AcariSans-Medium.ufo
<glyph name="exclam" format="2">
  <advance width="632"/>
  <unicode hex="0021"/>
  <outline>
    <contour>
      <point x="390" y="403" type="line"/>
      <point x="243" y="403" type="line"/>
      <point x="214" y="1434" type="line"/>
      <point x="418" y="1434" type="line"/>
    </contour>
    <contour>
      <point x="431" y="0" type="line"/>
      <point x="202" y="0" type="line"/>
      <point x="202" y="227" type="line"/>
      <point x="431" y="227" type="line"/>
    </contour>
  </outline>
</glyph>
<glyph name="quotedbl" format="2">
  <advance width="931"/>
  <unicode hex="0022"/>
  <outline>
    <contour>
      <point x="388" y="929" type="line"/>
      <point x="220" y="929" type="line"/>
      <point x="220" y="1413" type="line"/>
      <point x="388" y="1413" type="line"/>
    </contour>
    <contour>
      <point x="711" y="929" type="line"/>
      <point x="543" y="929" type="line"/>
      <point x="543" y="1413" type="line"/>
      <point x="711" y="1413" type="line"/>
    </contour>
  </outline>
</glyph>
<glyph name="dollar" format="2">
  <advance width="1122"/>
  <unicode hex="0024"/>
  <outline>
    <contour>
      <point x="636" y="-246" type="line"/>
      <point x="485" y="-246" type="line"/>
      <point x="485" y="-12" type="line"/>
      <point x="332" y="9"/>
      <point x="96" y="201"/>
      <point x="65" y="375" type="qcurve"/>
      <point x="261" y="423" type="line"/>
      <point x="279" y="296"/>
      <point x="455" y="169"/>
      <point x="578" y="169" type="qcurve" smooth="yes"/>
      <point x="656" y="169"/>
      <point x="774" y="215"/>
      <point x="839" y="314"/>
      <point x="839" y="392" type="qcurve" smooth="yes"/>
      <point x="839" y="460"/>
      <point x="800" y="508" type="qcurve" smooth="yes"/>
      <point x="764" y="552"/>
      <point x="645" y="621"/>
      <point x="541" y="664" type="qcurve"/>
      <point x="417" y="717"/>
      <point x="266" y="805"/>
      <point x="159" y="954"/>
      <point x="159" y="1064" type="qcurve" smooth="yes"/>
      <point x="159" y="1164"/>
      <point x="246" y="1316"/>
      <point x="393" y="1412"/>
      <point x="485" y="1428" type="qcurve"/>
      <point x="485" y="1659" type="line"/>
      <point x="636" y="1659" type="line"/>
      <point x="636" y="1432" type="line"/>
      <point x="870" y="1403"/>
      <point x="977" y="1205" type="qcurve"/>
      <point x="816" y="1105" type="line"/>
      <point x="774" y="1183"/>
      <point x="641" y="1256"/>
      <point x="566" y="1256" type="qcurve" smooth="yes"/>
      <point x="512" y="1256"/>
      <point x="419" y="1213"/>
      <point x="362" y="1132"/>
      <point x="362" y="1077" type="qcurve" smooth="yes"/>
      <point x="362" y="1013"/>
      <point x="436" y="925"/>
      <point x="548" y="866"/>
      <point x="646" y="825" type="qcurve" smooth="yes"/>
      <point x="772" y="772"/>
      <point x="930" y="680"/>
      <point x="1042" y="520"/>
      <point x="1042" y="401" type="qcurve" smooth="yes"/>
      <point x="1042" y="279"/>
      <point x="933" y="98"/>
      <point x="750" y="-7"/>
      <point x="636" y="-16" type="qcurve"/>
    </contour>
  </outline>
</glyph>
<glyph name="percent" format="2">
  <advance width="1559"/>
  <unicode hex="0025"/>
  <outline>
    <contour>
      <point x="370" y="787" type="qcurve" smooth="yes"/>
      <point x="275" y="787"/>
      <point x="154" y="892"/>
      <point x="104" y="1040"/>
      <point x="104" y="1111" type="qcurve" smooth="yes"/>
      <point x="104" y="1167"/>
      <point x="132" y="1281"/>
      <point x="193" y="1377"/>
      <point x="292" y="1436"/>
      <point x="364" y="1436" type="qcurve" smooth="yes"/>
      <point x="453" y="1436"/>
      <point x="570" y="1340"/>
      <point x="628" y="1190"/>
      <point x="628" y="1109" type="qcurve" smooth="yes"/>
      <point x="628" y="1033"/>
      <point x="574" y="885"/>
      <point x="460" y="787"/>
    </contour>
    <contour>
      <point x="472" y="-8" type="line"/>
      <point x="303" y="-8" type="line"/>
      <point x="1074" y="1429" type="line"/>
      <point x="1243" y="1429" type="line"/>
    </contour>
    <contour>
      <point x="367" y="921" type="qcurve" smooth="yes"/>
      <point x="406" y="921"/>
      <point x="458" y="975"/>
      <point x="485" y="1062"/>
      <point x="485" y="1111" type="qcurve" smooth="yes"/>
      <point x="485" y="1162"/>
      <point x="458" y="1248"/>
      <point x="404" y="1300"/>
      <point x="364" y="1300" type="qcurve" smooth="yes"/>
      <point x="323" y="1300"/>
      <point x="269" y="1248"/>
      <point x="243" y="1162"/>
      <point x="243" y="1111" type="qcurve" smooth="yes"/>
      <point x="243" y="1060"/>
      <point x="270" y="974"/>
      <point x="325" y="921"/>
    </contour>
    <contour>
      <point x="1197" y="-3" type="qcurve" smooth="yes"/>
      <point x="1102" y="-3"/>
      <point x="982" y="103"/>
      <point x="932" y="251"/>
      <point x="932" y="322" type="qcurve" smooth="yes"/>
      <point x="932" y="377"/>
      <point x="959" y="492"/>
      <point x="1019" y="588"/>
      <point x="1119" y="648"/>
      <point x="1191" y="648" type="qcurve" smooth="yes"/>
      <point x="1280" y="648"/>
      <point x="1398" y="551"/>
      <point x="1456" y="401"/>
      <point x="1456" y="321" type="qcurve" smooth="yes"/>
      <point x="1456" y="243"/>
      <point x="1401" y="94"/>
      <point x="1286" y="-3"/>
    </contour>
    <contour>
      <point x="1195" y="130" type="qcurve" smooth="yes"/>
      <point x="1251" y="130"/>
      <point x="1313" y="246"/>
      <point x="1313" y="323" type="qcurve" smooth="yes"/>
      <point x="1313" y="374"/>
      <point x="1286" y="460"/>
      <point x="1232" y="513"/>
      <point x="1191" y="513" type="qcurve" smooth="yes"/>
      <point x="1152" y="513"/>
      <point x="1098" y="460"/>
      <point x="1071" y="373"/>
      <point x="1071" y="322" type="qcurve" smooth="yes"/>
      <point x="1071" y="271"/>
      <point x="1098" y="183"/>
      <point x="1153" y="130"/>
    </contour>
  </outline>
</glyph>
<glyph name="ampersand" format="2">
  <advance width="1379"/>
  <unicode hex="0026"/>
  <outline>
    <contour>
      <point x="1164" y="-64" type="line"/>
      <point x="974" y="157" type="line"/>
      <point x="893" y="75"/>
      <point x="673" y="-22"/>
      <point x="537" y="-22" type="qcurve" smooth="yes"/>
      <point x="422" y="-22"/>
      <point x="225" y="52"/>
      <point x="105" y="201"/>
      <point x="105" y="315" type="qcurve" smooth="yes"/>
      <point x="105" y="498"/>
      <point x="267" y="638" type="qcurve" smooth="yes"/>
      <point x="338" y="700"/>
      <point x="443" y="764" type="qcurve"/>
      <point x="367" y="851"/>
      <point x="265" y="1020"/>
      <point x="265" y="1111" type="qcurve" smooth="yes"/>
      <point x="265" y="1211"/>
      <point x="370" y="1354"/>
      <point x="537" y="1430"/>
      <point x="630" y="1430" type="qcurve" smooth="yes"/>
      <point x="730" y="1430"/>
      <point x="886" y="1343"/>
      <point x="974" y="1198"/>
      <point x="974" y="1112" type="qcurve" smooth="yes"/>
      <point x="974" y="994"/>
      <point x="832" y="817"/>
      <point x="705" y="732" type="qcurve"/>
      <point x="956" y="444" type="line"/>
      <point x="1002" y="556"/>
      <point x="1010" y="694" type="qcurve"/>
      <point x="1192" y="674" type="line"/>
      <point x="1178" y="466"/>
      <point x="1082" y="299" type="qcurve"/>
      <point x="1297" y="53" type="line"/>
    </contour>
    <contour>
      <point x="586" y="850" type="qcurve"/>
      <point x="692" y="917"/>
      <point x="804" y="1036"/>
      <point x="804" y="1110" type="qcurve" smooth="yes"/>
      <point x="804" y="1183"/>
      <point x="703" y="1275"/>
      <point x="632" y="1275" type="qcurve" smooth="yes"/>
      <point x="583" y="1275"/>
      <point x="498" y="1236"/>
      <point x="445" y="1162"/>
      <point x="445" y="1108" type="qcurve" smooth="yes"/>
      <point x="445" y="1012"/>
    </contour>
    <contour>
      <point x="535" y="146" type="qcurve" smooth="yes"/>
      <point x="737" y="146"/>
      <point x="861" y="288" type="qcurve"/>
      <point x="559" y="639" type="line"/>
      <point x="427" y="558"/>
      <point x="285" y="409"/>
      <point x="285" y="314" type="qcurve" smooth="yes"/>
      <point x="285" y="256"/>
      <point x="351" y="181"/>
      <point x="464" y="146"/>
    </contour>
  </outline>
</glyph>
<glyph name="quotesingle" format="2">
  <advance width="608"/>
  <unicode hex="0027"/>
  <outline>
    <contour>
      <point x="388" y="958" type="line"/>
      <point x="220" y="958" type="line"/>
      <point x="220" y="1442" type="line"/>
      <point x="388" y="1442" type="line"/>
    </contour>
  </outline>
</glyph>
<glyph name="parenright" format="2">
  <advance width="566"/>
  <unicode hex="0029"/>
  <outline>
    <contour>
      <point x="209" y="-75" type="qcurve"/>
      <point x="43" y="-75" type="line"/>
      <point x="174" y="96"/>
      <point x="296" y="479"/>
      <point x="296" y="703" type="qcurve" smooth="yes"/>
      <point x="296" y="916"/>
      <point x="170" y="1318"/>
      <point x="41" y="1485" type="qcurve"/>
      <point x="211" y="1485" type="line"/>
      <point x="325" y="1353"/>
      <point x="451" y="953"/>
      <point x="451" y="707" type="qcurve" smooth="yes"/>
      <point x="451" y="507"/>
      <point x="324" y="55"/>
    </contour>
  </outline>
</glyph>
<glyph name="asterisk" format="2">
  <advance width="884"/>
  <unicode hex="002A"/>
  <outline>
    <contour>
      <point x="559" y="842" type="line"/>
      <point x="441" y="1063" type="line"/>
      <point x="324" y="842" type="line"/>
      <point x="201" y="926" type="line"/>
      <point x="367" y="1106" type="line"/>
      <point x="128" y="1142" type="line"/>
      <point x="176" y="1280" type="line"/>
      <point x="396" y="1189" type="line"/>
      <point x="366" y="1413" type="line"/>
      <point x="518" y="1413" type="line"/>
      <point x="488" y="1189" type="line"/>
      <point x="708" y="1280" type="line"/>
      <point x="755" y="1142" type="line"/>
      <point x="516" y="1106" type="line"/>
      <point x="682" y="926" type="line"/>
    </contour>
  </outline>
</glyph>
<glyph name="comma" format="2">
  <advance width="627"/>
  <unicode hex="002C"/>
  <outline>
    <contour>
      <point x="257" y="-315" type="line"/>
      <point x="132" y="-315" type="line"/>
      <point x="271" y="264" type="line"/>
      <point x="506" y="264" type="line"/>
    </contour>
  </outline>
</glyph>
<glyph name="period" format="2">
  <advance width="655"/>
  <unicode hex="002E"/>
  <outline>
    <contour>
      <point x="438" y="0" type="line"/>
      <point x="217" y="0" type="line"/>
      <point x="217" y="227" type="line"/>
      <point x="438" y="227" type="line"/>
    </contour>
  </outline>
</glyph>
<glyph name="slash" format="2">
  <advance width="930"/>
  <unicode hex="002F"/>
  <outline>
    <contour>
      <point x="177" y="-430" type="line"/>
      <point x="-12" y="-430" type="line"/>
      <point x="755" y="1516" type="line"/>
      <point x="942" y="1516" type="line"/>
    </contour>
  </outline>
</glyph>
<glyph name="three" format="2">
  <advance width="1200"/>
  <unicode hex="0033"/>
  <outline>
    <contour>
      <point x="581" y="-20" type="qcurve" smooth="yes"/>
      <point x="448" y="-20"/>
      <point x="219" y="75"/>
      <point x="148" y="179" type="qcurve" smooth="yes"/>
      <point x="81" y="278"/>
      <point x="81" y="421" type="qcurve"/>
      <point x="271" y="436" type="line"/>
      <point x="271" y="347"/>
      <point x="356" y="225"/>
      <point x="498" y="163"/>
      <point x="582" y="163" type="qcurve" smooth="yes"/>
      <point x="661" y="163"/>
      <point x="801" y="220"/>
      <point x="888" y="334"/>
      <point x="888" y="421" type="qcurve" smooth="yes"/>
      <point x="888" y="500"/>
      <point x="816" y="608"/>
      <point x="690" y="663"/>
      <point x="610" y="663" type="qcurve" smooth="yes"/>
      <point x="480" y="663" type="line"/>
      <point x="480" y="836" type="line"/>
      <point x="610" y="836" type="line" smooth="yes"/>
      <point x="710" y="836"/>
      <point x="810" y="947"/>
      <point x="810" y="1034" type="qcurve" smooth="yes"/>
      <point x="810" y="1104"/>
      <point x="746" y="1200"/>
      <point x="641" y="1249"/>
      <point x="578" y="1249" type="qcurve" smooth="yes"/>
      <point x="477" y="1249"/>
      <point x="341" y="1130"/>
      <point x="337" y="1023" type="qcurve"/>
      <point x="149" y="1040" type="line"/>
      <point x="149" y="1167"/>
      <point x="266" y="1343"/>
      <point x="461" y="1434"/>
      <point x="576" y="1434" type="qcurve" smooth="yes"/>
      <point x="686" y="1434"/>
      <point x="882" y="1347"/>
      <point x="944" y="1258" type="qcurve" smooth="yes"/>
      <point x="1002" y="1173"/>
      <point x="1002" y="1059" type="qcurve" smooth="yes"/>
      <point x="1002" y="972"/>
      <point x="928" y="817"/>
      <point x="857" y="765" type="qcurve"/>
      <point x="970" y="713"/>
      <point x="1076" y="527"/>
      <point x="1078" y="411" type="qcurve"/>
      <point x="1078" y="269"/>
      <point x="943" y="77"/>
      <point x="717" y="-20"/>
    </contour>
  </outline>
</glyph>
<glyph name="four" format="2">
  <advance width="1200"/>
  <unicode hex="0034"/>
  <outline>
    <contour>
      <point x="894" y="0" type="line"/>
      <point x="695" y="0" type="line"/>
      <point x="695" y="358" type="line"/>
      <point x="42" y="358" type="line"/>
      <point x="42" y="475" type="line"/>
      <point x="719" y="1413" type="line"/>
      <point x="894" y="1413" type="line"/>
      <point x="894" y="538" type="line"/>
      <point x="1119" y="538" type="line"/>
      <point x="1119" y="358" type="line"/>
      <point x="894" y="358" type="line"/>
    </contour>
    <contour>
      <point x="695" y="538" type="line"/>
      <point x="695" y="1103" type="line"/>
      <point x="294" y="538" type="line"/>
    </contour>
  </outline>
</glyph>
<glyph name="six" format="2">
  <advance width="1200"/>
  <unicode hex="0036"/>
  <outline>
    <contour>
      <point x="604" y="-20" type="qcurve" smooth="yes"/>
      <point x="461" y="-20"/>
      <point x="240" y="114"/>
      <point x="115" y="331"/>
      <point x="115" y="457" type="qcurve" smooth="yes"/>
      <point x="115" y="594"/>
      <point x="187" y="705" type="qcurve"/>
      <point x="604" y="1413" type="line"/>
      <point x="833" y="1413" type="line"/>
      <point x="524" y="916" type="line"/>
      <point x="571" y="923"/>
      <point x="605" y="923" type="qcurve" smooth="yes"/>
      <point x="741" y="923"/>
      <point x="962" y="804"/>
      <point x="1094" y="594"/>
      <point x="1094" y="463" type="qcurve" smooth="yes"/>
      <point x="1094" y="337"/>
      <point x="970" y="116"/>
      <point x="749" y="-20"/>
    </contour>
    <contour>
      <point x="605" y="167" type="qcurve" smooth="yes"/>
      <point x="690" y="167"/>
      <point x="822" y="250"/>
      <point x="898" y="385"/>
      <point x="898" y="461" type="qcurve" smooth="yes"/>
      <point x="898" y="547"/>
      <point x="815" y="680"/>
      <point x="681" y="755"/>
      <point x="605" y="755" type="qcurve" smooth="yes"/>
      <point x="520" y="755"/>
      <point x="388" y="673"/>
      <point x="312" y="539"/>
      <point x="312" y="461" type="qcurve" smooth="yes"/>
      <point x="312" y="377"/>
      <point x="394" y="244"/>
      <point x="527" y="167"/>
    </contour>
  </outline>
</glyph>
<glyph name="seven" format="2">
  <advance width="1200"/>
  <unicode hex="0037"/>
  <outline>
    <contour>
      <point x="474" y="0" type="line"/>
      <point x="250" y="0" type="line"/>
      <point x="850" y="1231" type="line"/>
      <point x="114" y="1231" type="line"/>
      <point x="114" y="1413" type="line"/>
      <point x="1091" y="1413" type="line"/>
      <point x="1091" y="1311" type="line"/>
    </contour>
  </outline>
</glyph>
<glyph name="nine" format="2">
  <advance width="1200"/>
  <unicode hex="0039"/>
  <outline>
    <contour>
      <point x="596" y="0" type="line"/>
      <point x="370" y="0" type="line"/>
      <point x="676" y="497" type="line"/>
      <point x="630" y="490"/>
      <point x="595" y="490" type="qcurve" smooth="yes"/>
      <point x="463" y="490"/>
      <point x="240" y="607"/>
      <point x="106" y="820"/>
      <point x="106" y="950" type="qcurve" smooth="yes"/>
      <point x="106" y="1078"/>
      <point x="232" y="1298"/>
      <point x="454" y="1434"/>
      <point x="597" y="1434" type="qcurve" smooth="yes"/>
      <point x="737" y="1434"/>
      <point x="956" y="1302"/>
      <point x="1085" y="1086"/>
      <point x="1085" y="956" type="qcurve" smooth="yes"/>
      <point x="1085" y="820"/>
      <point x="1015" y="709" type="qcurve"/>
    </contour>
    <contour>
      <point x="595" y="658" type="qcurve" smooth="yes"/>
      <point x="681" y="658"/>
      <point x="814" y="741"/>
      <point x="889" y="875"/>
      <point x="889" y="952" type="qcurve" smooth="yes"/>
      <point x="889" y="1037"/>
      <point x="807" y="1171"/>
      <point x="673" y="1247"/>
      <point x="595" y="1247" type="qcurve" smooth="yes"/>
      <point x="511" y="1247"/>
      <point x="379" y="1164"/>
      <point x="303" y="1030"/>
      <point x="303" y="952" type="qcurve" smooth="yes"/>
      <point x="303" y="866"/>
      <point x="385" y="734"/>
      <point x="519" y="658"/>
    </contour>
  </outline>
</glyph>
<glyph name="colon" format="2">
  <advance width="673"/>
  <unicode hex="003A"/>
  <outline>
    <contour>
      <point x="451" y="728" type="line"/>
      <point x="222" y="728" type="line"/>
      <point x="222" y="954" type="line"/>
      <point x="451" y="954" type="line"/>
    </contour>
    <contour>
      <point x="451" y="0" type="line"/>
      <point x="222" y="0" type="line"/>
      <point x="222" y="227" type="line"/>
      <point x="451" y="227" type="line"/>
    </contour>
  </outline>
</glyph>
<glyph name="less" format="2">
  <advance width="1223"/>
  <unicode hex="003C"/>
  <outline>
    <contour>
      <point x="1014" y="161" type="line"/>
      <point x="76" y="674" type="line"/>
      <point x="1014" y="1186" type="line"/>
      <point x="1099" y="1040" type="line"/>
      <point x="393" y="674" type="line"/>
      <point x="1099" y="307" type="line"/>
    </contour>
  </outline>
</glyph>
<glyph name="equal" format="2">
  <advance width="1265"/>
  <unicode hex="003D"/>
  <outline>
    <contour>
      <point x="1029" y="764" type="line"/>
      <point x="237" y="764" type="line"/>
      <point x="237" y="933" type="line"/>
      <point x="1029" y="933" type="line"/>
    </contour>
    <contour>
      <point x="1029" y="410" type="line"/>
      <point x="237" y="410" type="line"/>
      <point x="237" y="580" type="line"/>
      <point x="1029" y="580" type="line"/>
    </contour>
  </outline>
</glyph>
<glyph name="question" format="2">
  <advance width="1010"/>
  <unicode hex="003F"/>
  <outline>
    <contour>
      <point x="582" y="399" type="line"/>
      <point x="412" y="399" type="line"/>
      <point x="412" y="588" type="line" smooth="yes"/>
      <point x="412" y="724"/>
      <point x="497" y="788" type="qcurve" smooth="yes"/>
      <point x="537" y="817"/>
      <point x="591" y="847" type="qcurve" smooth="yes"/>
      <point x="640" y="874"/>
      <point x="674" y="898" type="qcurve" smooth="yes"/>
      <point x="746" y="951"/>
      <point x="746" y="1057" type="qcurve" smooth="yes"/>
      <point x="746" y="1130"/>
      <point x="681" y="1224"/>
      <point x="568" y="1268"/>
      <point x="496" y="1268" type="qcurve" smooth="yes"/>
      <point x="386" y="1268"/>
      <point x="251" y="1148"/>
      <point x="248" y="1029" type="qcurve"/>
      <point x="70" y="1029" type="line"/>
      <point x="70" y="1159"/>
      <point x="182" y="1339"/>
      <point x="372" y="1434"/>
      <point x="488" y="1434" type="qcurve" smooth="yes"/>
      <point x="602" y="1434"/>
      <point x="801" y="1350"/>
      <point x="864" y="1260" type="qcurve"/>
      <point x="922" y="1173"/>
      <point x="922" y="1053" type="qcurve" smooth="yes"/>
      <point x="922" y="887"/>
      <point x="818" y="798" type="qcurve" smooth="yes"/>
      <point x="774" y="761"/>
      <point x="706" y="724" type="qcurve" smooth="yes"/>
      <point x="643" y="690"/>
      <point x="582" y="632"/>
      <point x="582" y="586" type="qcurve" smooth="yes"/>
    </contour>
    <contour>
      <point x="615" y="0" type="line"/>
      <point x="386" y="0" type="line"/>
      <point x="386" y="227" type="line"/>
      <point x="615" y="227" type="line"/>
    </contour>
  </outline>
</glyph>
<glyph name="A" format="2">
  <advance width="1323"/>
  <unicode hex="0041"/>
  <outline>
    <contour>
      <point x="1284" y="0" type="line"/>
      <point x="1065" y="0" type="line"/>
      <point x="957" y="307" type="line"/>
      <point x="370" y="307" type="line"/>
      <point x="261" y="0" type="line"/>
      <point x="39" y="0" type="line"/>
      <point x="586" y="1413" type="line"/>
      <point x="740" y="1413" type="line"/>
    </contour>
    <contour>
      <point x="888" y="486" type="line"/>
      <point x="664" y="1114" type="line"/>
      <point x="438" y="486" type="line"/>
    </contour>
  </outline>
</glyph>
<glyph name="C" format="2">
  <advance width="1425"/>
  <unicode hex="0043"/>
  <outline>
    <contour>
      <point x="762" y="-20" type="qcurve" smooth="yes"/>
      <point x="546" y="-20"/>
      <point x="398" y="78" type="qcurve" smooth="yes"/>
      <point x="295" y="146"/>
      <point x="165" y="342"/>
      <point x="105" y="579"/>
      <point x="105" y="707" type="qcurve" smooth="yes"/>
      <point x="105" y="835"/>
      <point x="165" y="1072"/>
      <point x="294" y="1268"/>
      <point x="397" y="1338" type="qcurve" smooth="yes"/>
      <point x="544" y="1436"/>
      <point x="760" y="1436" type="qcurve" smooth="yes"/>
      <point x="954" y="1436"/>
      <point x="1266" y="1245"/>
      <point x="1355" y="1046" type="qcurve"/>
      <point x="1167" y="968" type="line"/>
      <point x="1127" y="1111"/>
      <point x="912" y="1244"/>
      <point x="758" y="1244" type="qcurve" smooth="yes"/>
      <point x="602" y="1244"/>
      <point x="402" y="1103"/>
      <point x="306" y="864"/>
      <point x="306" y="717" type="qcurve" smooth="yes"/>
      <point x="306" y="476"/>
      <point x="413" y="331" type="qcurve" smooth="yes"/>
      <point x="531" y="171"/>
      <point x="762" y="171" type="qcurve" smooth="yes"/>
      <point x="917" y="171"/>
      <point x="1116" y="310"/>
      <point x="1170" y="450" type="qcurve"/>
      <point x="1357" y="371" type="line"/>
      <point x="1272" y="178"/>
      <point x="962" y="-20"/>
    </contour>
  </outline>
</glyph>
<glyph name="E" format="2">
  <advance width="1242"/>
  <unicode hex="0045"/>
  <outline>
    <contour>
      <point x="1125" y="0" type="line"/>
      <point x="198" y="0" type="line"/>
      <point x="198" y="1413" type="line"/>
      <point x="1125" y="1413" type="line"/>
      <point x="1125" y="1231" type="line"/>
      <point x="401" y="1231" type="line"/>
      <point x="401" y="797" type="line"/>
      <point x="1050" y="797" type="line"/>
      <point x="1050" y="617" type="line"/>
      <point x="401" y="617" type="line"/>
      <point x="401" y="189" type="line"/>
      <point x="1125" y="189" type="line"/>
    </contour>
  </outline>
</glyph>
<glyph name="F" format="2">
  <advance width="1214"/>
  <unicode hex="0046"/>
  <outline>
    <contour>
      <point x="401" y="0" type="line"/>
      <point x="198" y="0" type="line"/>
      <point x="198" y="1413" type="line"/>
      <point x="1149" y="1413" type="line"/>
      <point x="1149" y="1231" type="line"/>
      <point x="401" y="1231" type="line"/>
      <point x="401" y="797" type="line"/>
      <point x="1061" y="797" type="line"/>
      <point x="1061" y="617" type="line"/>
      <point x="401" y="617" type="line"/>
    </contour>
  </outline>
</glyph>
<glyph name="H" format="2">
  <advance width="1472"/>
  <unicode hex="0048"/>
  <outline>
    <contour>
      <point x="1274" y="0" type="line"/>
      <point x="1070" y="0" type="line"/>
      <point x="1070" y="617" type="line"/>
      <point x="401" y="617" type="line"/>
      <point x="401" y="0" type="line"/>
      <point x="198" y="0" type="line"/>
      <point x="198" y="1413" type="line"/>
      <point x="401" y="1413" type="line"/>
      <point x="401" y="797" type="line"/>
      <point x="1070" y="797" type="line"/>
      <point x="1070" y="1413" type="line"/>
      <point x="1274" y="1413" type="line"/>
    </contour>
  </outline>
</glyph>
<glyph name="J" format="2">
  <advance width="1128"/>
  <unicode hex="004A"/>
  <outline>
    <contour>
      <point x="503" y="-20" type="qcurve" smooth="yes"/>
      <point x="366" y="-20"/>
      <point x="171" y="99"/>
      <point x="61" y="296"/>
      <point x="52" y="417" type="qcurve"/>
      <point x="252" y="441" type="line"/>
      <point x="260" y="322"/>
      <point x="385" y="165"/>
      <point x="503" y="165" type="qcurve" smooth="yes"/>
      <point x="599" y="165"/>
      <point x="708" y="240"/>
      <point x="753" y="387"/>
      <point x="753" y="495" type="qcurve" smooth="yes"/>
      <point x="753" y="1231" type="line"/>
      <point x="220" y="1231" type="line"/>
      <point x="220" y="1413" type="line"/>
      <point x="956" y="1413" type="line"/>
      <point x="956" y="506" type="line" smooth="yes"/>
      <point x="956" y="261"/>
      <point x="738" y="-20"/>
    </contour>
  </outline>
</glyph>
<glyph name="L" format="2">
  <advance width="1049"/>
  <unicode hex="004C"/>
  <outline>
    <contour>
      <point x="1006" y="0" type="line"/>
      <point x="198" y="0" type="line"/>
      <point x="198" y="1413" type="line"/>
      <point x="401" y="1413" type="line"/>
      <point x="401" y="189" type="line"/>
      <point x="1006" y="189" type="line"/>
    </contour>
  </outline>
</glyph>
<glyph name="M" format="2">
  <advance width="1779"/>
  <unicode hex="004D"/>
  <outline>
    <contour>
      <point x="1581" y="0" type="line"/>
      <point x="1383" y="0" type="line"/>
      <point x="1383" y="1173" type="line"/>
      <point x="993" y="123" type="line"/>
      <point x="786" y="123" type="line"/>
      <point x="396" y="1173" type="line"/>
      <point x="396" y="0" type="line"/>
      <point x="198" y="0" type="line"/>
      <point x="198" y="1413" type="line"/>
      <point x="496" y="1413" type="line"/>
      <point x="888" y="339" type="line"/>
      <point x="1283" y="1413" type="line"/>
      <point x="1581" y="1413" type="line"/>
    </contour>
  </outline>
</glyph>
<glyph name="N" format="2">
  <advance width="1435"/>
  <unicode hex="004E"/>
  <outline>
    <contour>
      <point x="1237" y="0" type="line"/>
      <point x="994" y="0" type="line"/>
      <point x="396" y="1127" type="line"/>
      <point x="396" y="0" type="line"/>
      <point x="198" y="0" type="line"/>
      <point x="198" y="1413" type="line"/>
      <point x="438" y="1413" type="line"/>
      <point x="1039" y="288" type="line"/>
      <point x="1039" y="1413" type="line"/>
      <point x="1237" y="1413" type="line"/>
    </contour>
  </outline>
</glyph>
<glyph name="Q" format="2">
  <advance width="1558"/>
  <unicode hex="0051"/>
  <outline>
    <contour>
      <point x="1340" y="-107" type="line"/>
      <point x="1143" y="94" type="line"/>
      <point x="991" y="-20"/>
      <point x="760" y="-20" type="qcurve" smooth="yes"/>
      <point x="545" y="-20"/>
      <point x="398" y="78" type="qcurve"/>
      <point x="244" y="183"/>
      <point x="104" y="516"/>
      <point x="104" y="707" type="qcurve" smooth="yes"/>
      <point x="104" y="898"/>
      <point x="244" y="1231"/>
      <point x="398" y="1336" type="qcurve"/>
      <point x="545" y="1434"/>
      <point x="760" y="1434" type="qcurve" smooth="yes"/>
      <point x="975" y="1434"/>
      <point x="1123" y="1336" type="qcurve"/>
      <point x="1277" y="1230"/>
      <point x="1417" y="897"/>
      <point x="1417" y="705" type="qcurve" smooth="yes"/>
      <point x="1417" y="567"/>
      <point x="1344" y="310"/>
      <point x="1269" y="211" type="qcurve"/>
      <point x="1468" y="16" type="line"/>
    </contour>
    <contour>
      <point x="760" y="169" type="qcurve" smooth="yes"/>
      <point x="902" y="169"/>
      <point x="1000" y="231" type="qcurve"/>
      <point x="804" y="422" type="line"/>
      <point x="930" y="544" type="line"/>
      <point x="1125" y="354" type="line"/>
      <point x="1214" y="498"/>
      <point x="1214" y="707" type="qcurve" smooth="yes"/>
      <point x="1214" y="817"/>
      <point x="1162" y="1011"/>
      <point x="1052" y="1159"/>
      <point x="880" y="1244"/>
      <point x="760" y="1244" type="qcurve" smooth="yes"/>
      <point x="605" y="1244"/>
      <point x="504" y="1172" type="qcurve"/>
      <point x="399" y="1094"/>
      <point x="307" y="851"/>
      <point x="307" y="707" type="qcurve" smooth="yes"/>
      <point x="307" y="598"/>
      <point x="358" y="404"/>
      <point x="467" y="255"/>
      <point x="639" y="169"/>
    </contour>
  </outline>
</glyph>
<glyph name="S" format="2">
  <advance width="1123"/>
  <unicode hex="0053"/>
  <outline>
    <contour>
      <point x="578" y="-16" type="qcurve" smooth="yes"/>
      <point x="460" y="-16"/>
      <point x="242" y="70"/>
      <point x="89" y="245"/>
      <point x="65" y="379" type="qcurve"/>
      <point x="262" y="432" type="line"/>
      <point x="279" y="295"/>
      <point x="459" y="165"/>
      <point x="580" y="165" type="qcurve" smooth="yes"/>
      <point x="696" y="165"/>
      <point x="842" y="275"/>
      <point x="842" y="383" type="qcurve" smooth="yes"/>
      <point x="842" y="455"/>
      <point x="802" y="505" type="qcurve" smooth="yes"/>
      <point x="765" y="551"/>
      <point x="643" y="621"/>
      <point x="538" y="664" type="qcurve" smooth="yes"/>
      <point x="416" y="715"/>
      <point x="265" y="802"/>
      <point x="159" y="950"/>
      <point x="159" y="1061" type="qcurve" smooth="yes"/>
      <point x="159" y="1179"/>
      <point x="273" y="1346"/>
      <point x="459" y="1434"/>
      <point x="569" y="1434" type="qcurve" smooth="yes"/>
      <point x="694" y="1434"/>
      <point x="908" y="1323"/>
      <point x="979" y="1201" type="qcurve"/>
      <point x="817" y="1098" type="line"/>
      <point x="774" y="1177"/>
      <point x="640" y="1255"/>
      <point x="564" y="1255" type="qcurve" smooth="yes"/>
      <point x="510" y="1255"/>
      <point x="417" y="1211"/>
      <point x="360" y="1130"/>
      <point x="360" y="1074" type="qcurve" smooth="yes"/>
      <point x="360" y="1008"/>
      <point x="433" y="920"/>
      <point x="550" y="856"/>
      <point x="650" y="815" type="qcurve" smooth="yes"/>
      <point x="776" y="764"/>
      <point x="932" y="674"/>
      <point x="1042" y="518"/>
      <point x="1042" y="400" type="qcurve" smooth="yes"/>
      <point x="1042" y="269"/>
      <point x="916" y="83"/>
      <point x="705" y="-16"/>
    </contour>
  </outline>
</glyph>
<glyph name="T" format="2">
  <advance width="1208"/>
  <unicode hex="0054"/>
  <outline>
    <contour>
      <point x="706" y="0" type="line"/>
      <point x="502" y="0" type="line"/>
      <point x="502" y="1237" type="line"/>
      <point x="41" y="1237" type="line"/>
      <point x="41" y="1413" type="line"/>
      <point x="1167" y="1413" type="line"/>
      <point x="1167" y="1237" type="line"/>
      <point x="706" y="1237" type="line"/>
    </contour>
  </outline>
</glyph>
<glyph name="W" format="2">
  <advance width="1987"/>
  <unicode hex="0057"/>
  <outline>
    <contour>
      <point x="1527" y="0" type="line"/>
      <point x="1319" y="0" type="line"/>
      <point x="995" y="1089" type="line"/>
      <point x="668" y="0" type="line"/>
      <point x="461" y="0" type="line"/>
      <point x="51" y="1413" type="line"/>
      <point x="261" y="1413" type="line"/>
      <point x="580" y="278" type="line"/>
      <point x="914" y="1413" type="line"/>
      <point x="1074" y="1413" type="line"/>
      <point x="1408" y="278" type="line"/>
      <point x="1726" y="1413" type="line"/>
      <point x="1937" y="1413" type="line"/>
    </contour>
  </outline>
</glyph>
<glyph name="Z" format="2">
  <advance width="1273"/>
  <unicode hex="005A"/>
  <outline>
    <contour>
      <point x="1186" y="0" type="line"/>
      <point x="74" y="0" type="line"/>
      <point x="74" y="148" type="line"/>
      <point x="919" y="1231" type="line"/>
      <point x="119" y="1231" type="line"/>
      <point x="119" y="1413" type="line"/>
      <point x="1186" y="1413" type="line"/>
      <point x="1186" y="1258" type="line"/>
      <point x="345" y="184" type="line"/>
      <point x="1186" y="184" type="line"/>
    </contour>
  </outline>
</glyph>
<glyph name="backslash" format="2">
  <advance width="930"/>
  <unicode hex="005C"/>
  <outline>
    <contour>
      <point x="942" y="-430" type="line"/>
      <point x="755" y="-430" type="line"/>
      <point x="-12" y="1516" type="line"/>
      <point x="177" y="1516" type="line"/>
    </contour>
  </outline>
</glyph>
<glyph name="bracketright" format="2">
  <advance width="637"/>
  <unicode hex="005D"/>
  <outline>
    <contour>
      <point x="446" y="-126" type="line"/>
      <point x="51" y="-126" type="line"/>
      <point x="51" y="0" type="line"/>
      <point x="287" y="0" type="line"/>
      <point x="287" y="1412" type="line"/>
      <point x="51" y="1412" type="line"/>
      <point x="51" y="1536" type="line"/>
      <point x="446" y="1536" type="line"/>
    </contour>
  </outline>
</glyph>
<glyph name="asciicircum" format="2">
  <advance width="978"/>
  <unicode hex="005E"/>
  <outline>
    <contour>
      <point x="883" y="823" type="line"/>
      <point x="685" y="823" type="line"/>
      <point x="488" y="1142" type="line"/>
      <point x="293" y="823" type="line"/>
      <point x="96" y="823" type="line"/>
      <point x="488" y="1461" type="line"/>
    </contour>
  </outline>
</glyph>
<glyph name="a" format="2">
  <advance width="1042"/>
  <unicode hex="0061"/>
  <outline>
    <contour>
      <point x="409" y="-20" type="qcurve" smooth="yes"/>
      <point x="311" y="-20"/>
      <point x="153" y="53"/>
      <point x="60" y="192"/>
      <point x="60" y="292" type="qcurve" smooth="yes"/>
      <point x="60" y="442"/>
      <point x="285" y="583"/>
      <point x="487" y="583" type="qcurve" smooth="yes"/>
      <point x="730" y="583" type="line"/>
      <point x="730" y="662"/>
      <point x="685" y="781"/>
      <point x="586" y="847"/>
      <point x="507" y="847" type="qcurve" smooth="yes"/>
      <point x="418" y="847"/>
      <point x="290" y="766"/>
      <point x="250" y="705" type="qcurve"/>
      <point x="105" y="813" type="line"/>
      <point x="250" y="1016"/>
      <point x="501" y="1016" type="qcurve" smooth="yes"/>
      <point x="634" y="1016"/>
      <point x="818" y="913"/>
      <point x="912" y="730"/>
      <point x="912" y="610" type="qcurve" smooth="yes"/>
      <point x="912" y="0" type="line"/>
      <point x="751" y="0" type="line"/>
      <point x="741" y="169" type="line"/>
      <point x="632" y="-20"/>
    </contour>
    <contour>
      <point x="434" y="144" type="qcurve" smooth="yes"/>
      <point x="522" y="144"/>
      <point x="654" y="232"/>
      <point x="728" y="367"/>
      <point x="730" y="440" type="qcurve"/>
      <point x="501" y="440" type="line" smooth="yes"/>
      <point x="387" y="440"/>
      <point x="259" y="364"/>
      <point x="259" y="286" type="qcurve" smooth="yes"/>
      <point x="259" y="215"/>
      <point x="360" y="144"/>
    </contour>
  </outline>
</glyph>
<glyph name="c" format="2">
  <advance width="988"/>
  <unicode hex="0063"/>
  <outline>
    <contour>
      <point x="533" y="-20" type="qcurve" smooth="yes"/>
      <point x="419" y="-20"/>
      <point x="248" y="65"/>
      <point x="133" y="210"/>
      <point x="76" y="396"/>
      <point x="76" y="498" type="qcurve" smooth="yes"/>
      <point x="76" y="629"/>
      <point x="175" y="866"/>
      <point x="282" y="944" type="qcurve"/>
      <point x="385" y="1016"/>
      <point x="531" y="1016" type="qcurve" smooth="yes"/>
      <point x="678" y="1016"/>
      <point x="886" y="865"/>
      <point x="940" y="741" type="qcurve"/>
      <point x="757" y="666" type="line"/>
      <point x="734" y="750"/>
      <point x="614" y="840"/>
      <point x="531" y="840" type="qcurve" smooth="yes"/>
      <point x="440" y="840"/>
      <point x="327" y="743"/>
      <point x="273" y="586"/>
      <point x="273" y="498" type="qcurve" smooth="yes"/>
      <point x="273" y="410"/>
      <point x="324" y="253"/>
      <point x="438" y="155"/>
      <point x="531" y="155" type="qcurve" smooth="yes"/>
      <point x="614" y="155"/>
      <point x="734" y="248"/>
      <point x="757" y="329" type="qcurve"/>
      <point x="929" y="260" type="line"/>
      <point x="882" y="130"/>
      <point x="678" y="-20"/>
    </contour>
  </outline>
</glyph>
<glyph name="g" format="2">
  <advance width="1036"/>
  <unicode hex="0067"/>
  <outline>
    <contour>
      <point x="544" y="-465" type="qcurve" smooth="yes"/>
      <point x="403" y="-465"/>
      <point x="202" y="-372"/>
      <point x="96" y="-215"/>
      <point x="96" y="-118" type="qcurve" smooth="yes"/>
      <point x="96" y="-95"/>
      <point x="99" y="-77" type="qcurve"/>
      <point x="225" y="44" type="line"/>
      <point x="111" y="110"/>
      <point x="111" y="245" type="qcurve" smooth="yes"/>
      <point x="111" y="356"/>
      <point x="194" y="429" type="qcurve"/>
      <point x="110" y="527"/>
      <point x="110" y="659" type="qcurve" smooth="yes"/>
      <point x="110" y="768"/>
      <point x="217" y="926"/>
      <point x="395" y="1012"/>
      <point x="501" y="1012" type="qcurve" smooth="yes"/>
      <point x="647" y="1012"/>
      <point x="749" y="937" type="qcurve"/>
      <point x="900" y="1071" type="line"/>
      <point x="1005" y="941" type="line"/>
      <point x="851" y="819" type="line"/>
      <point x="891" y="744"/>
      <point x="891" y="651" type="qcurve" smooth="yes"/>
      <point x="891" y="541"/>
      <point x="786" y="383"/>
      <point x="610" y="298"/>
      <point x="505" y="298" type="qcurve" smooth="yes"/>
      <point x="402" y="298"/>
      <point x="316" y="338" type="qcurve"/>
      <point x="279" y="313"/>
      <point x="279" y="273" type="qcurve" smooth="yes"/>
      <point x="279" y="228"/>
      <point x="351" y="178"/>
      <point x="459" y="156"/>
      <point x="562" y="142" type="qcurve" smooth="yes"/>
      <point x="690" y="124"/>
      <point x="852" y="77"/>
      <point x="963" y="-41"/>
      <point x="963" y="-147" type="qcurve" smooth="yes"/>
      <point x="963" y="-254"/>
      <point x="850" y="-395"/>
      <point x="660" y="-465"/>
    </contour>
    <contour>
      <point x="504" y="458" type="qcurve" smooth="yes"/>
      <point x="598" y="458"/>
      <point x="698" y="572"/>
      <point x="698" y="657" type="qcurve" smooth="yes"/>
      <point x="698" y="711"/>
      <point x="653" y="804"/>
      <point x="566" y="861"/>
      <point x="504" y="861" type="qcurve" smooth="yes"/>
      <point x="441" y="861"/>
      <point x="354" y="803"/>
      <point x="309" y="710"/>
      <point x="309" y="657" type="qcurve" smooth="yes"/>
      <point x="309" y="572"/>
      <point x="409" y="458"/>
    </contour>
    <contour>
      <point x="551" y="-305" type="qcurve" smooth="yes"/>
      <point x="616" y="-305"/>
      <point x="722" y="-274"/>
      <point x="784" y="-212"/>
      <point x="784" y="-166" type="qcurve" smooth="yes"/>
      <point x="784" y="-85"/>
      <point x="678" y="-62" type="qcurve" smooth="yes"/>
      <point x="620" y="-50"/>
      <point x="530" y="-36" type="qcurve"/>
      <point x="429" y="-22"/>
      <point x="350" y="-5" type="qcurve"/>
      <point x="265" y="-122" type="line"/>
      <point x="272" y="-201"/>
      <point x="421" y="-305"/>
    </contour>
  </outline>
</glyph>
<glyph name="j" format="2">
  <advance width="517"/>
  <unicode hex="006A"/>
  <outline>
    <contour>
      <point x="367" y="1198" type="line"/>
      <point x="155" y="1198" type="line"/>
      <point x="155" y="1416" type="line"/>
      <point x="367" y="1416" type="line"/>
    </contour>
    <contour>
      <point x="84" y="-438" type="qcurve" smooth="yes"/>
      <point x="46" y="-438"/>
      <point x="-45" y="-419"/>
      <point x="-77" y="-406" type="qcurve"/>
      <point x="-32" y="-248" type="line"/>
      <point x="28" y="-268"/>
      <point x="71" y="-268" type="qcurve" smooth="yes"/>
      <point x="161" y="-268"/>
      <point x="161" y="-152" type="qcurve" smooth="yes"/>
      <point x="161" y="999" type="line"/>
      <point x="357" y="999" type="line"/>
      <point x="357" y="-131" type="line" smooth="yes"/>
      <point x="357" y="-269"/>
      <point x="221" y="-438"/>
    </contour>
  </outline>
</glyph>
<glyph name="n" format="2">
  <advance width="1142"/>
  <unicode hex="006E"/>
  <outline>
    <contour>
      <point x="1011" y="0" type="line"/>
      <point x="815" y="0" type="line"/>
      <point x="815" y="582" type="line" smooth="yes"/>
      <point x="815" y="834"/>
      <point x="627" y="834" type="qcurve" smooth="yes"/>
      <point x="548" y="834"/>
      <point x="424" y="753"/>
      <point x="353" y="626"/>
      <point x="353" y="558" type="qcurve" smooth="yes"/>
      <point x="353" y="0" type="line"/>
      <point x="158" y="0" type="line"/>
      <point x="158" y="999" type="line"/>
      <point x="353" y="999" type="line"/>
      <point x="353" y="861" type="line"/>
      <point x="409" y="940"/>
      <point x="571" y="1016"/>
      <point x="655" y="1016" type="qcurve" smooth="yes"/>
      <point x="780" y="1016"/>
      <point x="937" y="903"/>
      <point x="1011" y="716"/>
      <point x="1011" y="604" type="qcurve" smooth="yes"/>
    </contour>
  </outline>
</glyph>
<glyph name="t" format="2">
  <advance width="711"/>
  <unicode hex="0074"/>
  <outline>
    <contour>
      <point x="471" y="-20" type="qcurve" smooth="yes"/>
      <point x="376" y="-20"/>
      <point x="253" y="53"/>
      <point x="194" y="184"/>
      <point x="194" y="270" type="qcurve" smooth="yes"/>
      <point x="194" y="838" type="line"/>
      <point x="35" y="838" type="line"/>
      <point x="35" y="999" type="line"/>
      <point x="197" y="999" type="line"/>
      <point x="197" y="1235" type="line"/>
      <point x="383" y="1391" type="line"/>
      <point x="383" y="999" type="line"/>
      <point x="641" y="999" type="line"/>
      <point x="641" y="838" type="line"/>
      <point x="383" y="838" type="line"/>
      <point x="383" y="290" type="line" smooth="yes"/>
      <point x="383" y="213"/>
      <point x="456" y="146"/>
      <point x="508" y="146" type="qcurve" smooth="yes"/>
      <point x="567" y="146"/>
      <point x="627" y="177" type="qcurve"/>
      <point x="627" y="5" type="line"/>
      <point x="565" y="-20"/>
    </contour>
  </outline>
</glyph>
<glyph name="v" format="2">
  <advance width="972"/>
  <unicode hex="0076"/>
  <outline>
    <contour>
      <point x="569" y="0" type="line"/>
      <point x="405" y="0" type="line"/>
      <point x="15" y="999" type="line"/>
      <point x="227" y="999" type="line"/>
      <point x="487" y="251" type="line"/>
      <point x="749" y="999" type="line"/>
      <point x="957" y="999" type="line"/>
    </contour>
  </outline>
</glyph>
<glyph name="x" format="2">
  <advance width="972"/>
  <unicode hex="0078"/>
  <outline>
    <contour>
      <point x="942" y="0" type="line"/>
      <point x="708" y="0" type="line"/>
      <point x="486" y="359" type="line"/>
      <point x="265" y="0" type="line"/>
      <point x="29" y="0" type="line"/>
      <point x="369" y="504" type="line"/>
      <point x="29" y="999" type="line"/>
      <point x="265" y="999" type="line"/>
      <point x="486" y="648" type="line"/>
      <point x="708" y="999" type="line"/>
      <point x="942" y="999" type="line"/>
      <point x="604" y="504" type="line"/>
    </contour>
  </outline>
</glyph>
<glyph name="braceleft" format="2">
  <advance width="608"/>
  <unicode hex="007B"/>
  <outline>
    <contour>
      <point x="477" y="-136" type="line"/>
      <point x="406" y="-136" type="line" smooth="yes"/>
      <point x="299" y="-136"/>
      <point x="236" y="-44" type="qcurve"/>
      <point x="201" y="4"/>
      <point x="201" y="116" type="qcurve" smooth="yes"/>
      <point x="201" y="480" type="line" smooth="yes"/>
      <point x="201" y="522"/>
      <point x="131" y="571"/>
      <point x="70" y="594" type="qcurve"/>
      <point x="70" y="730" type="line"/>
      <point x="140" y="751"/>
      <point x="201" y="821"/>
      <point x="201" y="878" type="qcurve" smooth="yes"/>
      <point x="201" y="1304" type="line" smooth="yes"/>
      <point x="201" y="1425"/>
      <point x="314" y="1539"/>
      <point x="427" y="1539" type="qcurve" smooth="yes"/>
      <point x="523" y="1539"/>
      <point x="544" y="1537" type="qcurve"/>
      <point x="544" y="1412" type="line"/>
      <point x="496" y="1422"/>
      <point x="462" y="1422" type="qcurve" smooth="yes"/>
      <point x="370" y="1422"/>
      <point x="370" y="1374" type="qcurve" smooth="yes"/>
      <point x="370" y="864" type="line" smooth="yes"/>
      <point x="370" y="793"/>
      <point x="293" y="694"/>
      <point x="209" y="655" type="qcurve"/>
      <point x="370" y="593"/>
      <point x="370" y="484" type="qcurve" smooth="yes"/>
      <point x="370" y="121" type="line" smooth="yes"/>
      <point x="370" y="-18"/>
      <point x="488" y="-18" type="qcurve" smooth="yes"/>
      <point x="516" y="-18"/>
      <point x="544" y="-9" type="qcurve"/>
      <point x="544" y="-134" type="line"/>
    </contour>
  </outline>
</glyph>
<glyph name="braceright" format="2">
  <advance width="608"/>
  <unicode hex="007D"/>
  <outline>
    <contour>
      <point x="203" y="-136" type="qcurve" smooth="yes"/>
      <point x="131" y="-136" type="line"/>
      <point x="64" y="-134" type="line"/>
      <point x="64" y="-9" type="line"/>
      <point x="94" y="-18"/>
      <point x="120" y="-18" type="qcurve" smooth="yes"/>
      <point x="238" y="-18"/>
      <point x="238" y="121" type="qcurve" smooth="yes"/>
      <point x="238" y="484" type="line" smooth="yes"/>
      <point x="238" y="590"/>
      <point x="399" y="655" type="qcurve"/>
      <point x="313" y="694"/>
      <point x="238" y="792"/>
      <point x="238" y="864" type="qcurve" smooth="yes"/>
      <point x="238" y="1372" type="line" smooth="yes"/>
      <point x="238" y="1422"/>
      <point x="158" y="1422" type="qcurve" smooth="yes"/>
      <point x="115" y="1422"/>
      <point x="64" y="1412" type="qcurve"/>
      <point x="64" y="1537" type="line"/>
      <point x="85" y="1539"/>
      <point x="181" y="1539" type="qcurve" smooth="yes"/>
      <point x="294" y="1539"/>
      <point x="407" y="1425"/>
      <point x="407" y="1304" type="qcurve" smooth="yes"/>
      <point x="407" y="878" type="line" smooth="yes"/>
      <point x="407" y="821"/>
      <point x="468" y="751"/>
      <point x="538" y="730" type="qcurve"/>
      <point x="538" y="594" type="line"/>
      <point x="477" y="571"/>
      <point x="407" y="522"/>
      <point x="407" y="480" type="qcurve" smooth="yes"/>
      <point x="407" y="116" type="line" smooth="yes"/>
      <point x="407" y="2"/>
      <point x="342" y="-90"/>
      <point x="260" y="-136"/>
    </contour>
  </outline>
</glyph>
<glyph name="asciitilde" format="2">
  <advance width="1159"/>
  <unicode hex="007E"/>
  <outline>
    <contour>
      <point x="737" y="379" type="qcurve" smooth="yes"/>
      <point x="691" y="379"/>
      <point x="614" y="403"/>
      <point x="559" y="437"/>
      <point x="521" y="465" type="qcurve" smooth="yes"/>
      <point x="482" y="493"/>
      <point x="432" y="519"/>
      <point x="403" y="519" type="qcurve" smooth="yes"/>
      <point x="357" y="519"/>
      <point x="325" y="464"/>
      <point x="325" y="414" type="qcurve" smooth="yes"/>
      <point x="325" y="406" type="line"/>
      <point x="192" y="406" type="line"/>
      <point x="192" y="522"/>
      <point x="301" y="651"/>
      <point x="401" y="651" type="qcurve" smooth="yes"/>
      <point x="457" y="651"/>
      <point x="544" y="626"/>
      <point x="601" y="592"/>
      <point x="637" y="566" type="qcurve" smooth="yes"/>
      <point x="672" y="540"/>
      <point x="716" y="516"/>
      <point x="743" y="516" type="qcurve" smooth="yes"/>
      <point x="793" y="516"/>
      <point x="827" y="578"/>
      <point x="827" y="645" type="qcurve"/>
      <point x="968" y="645" type="line"/>
      <point x="968" y="515"/>
      <point x="850" y="379"/>
    </contour>
  </outline>
</glyph>
<glyph name="exclamdown" format="2">
  <advance width="631"/>
  <unicode hex="00A1"/>
  <outline>
    <contour>
      <point x="430" y="773" type="line"/>
      <point x="201" y="773" type="line"/>
      <point x="201" y="999" type="line"/>
      <point x="430" y="999" type="line"/>
    </contour>
    <contour>
      <point x="417" y="-435" type="line"/>
      <point x="213" y="-435" type="line"/>
      <point x="242" y="597" type="line"/>
      <point x="389" y="597" type="line"/>
    </contour>
  </outline>
</glyph>
<glyph name="cent" format="2">
  <advance width="1126"/>
  <unicode hex="00A2"/>
  <outline>
    <contour>
      <point x="663" y="-205" type="line"/>
      <point x="521" y="-205" type="line"/>
      <point x="521" y="-18" type="line"/>
      <point x="394" y="2"/>
      <point x="225" y="150"/>
      <point x="142" y="372"/>
      <point x="142" y="498" type="qcurve" smooth="yes"/>
      <point x="142" y="618"/>
      <point x="222" y="840"/>
      <point x="390" y="993"/>
      <point x="521" y="1014" type="qcurve"/>
      <point x="521" y="1200" type="line"/>
      <point x="663" y="1200" type="line"/>
      <point x="663" y="1014" type="line"/>
      <point x="900" y="980"/>
      <point x="1006" y="739" type="qcurve"/>
      <point x="826" y="668" type="line"/>
      <point x="802" y="755"/>
      <point x="685" y="851"/>
      <point x="594" y="851" type="qcurve" smooth="yes"/>
      <point x="501" y="851"/>
      <point x="386" y="751"/>
      <point x="332" y="590"/>
      <point x="332" y="498" type="qcurve" smooth="yes"/>
      <point x="332" y="406"/>
      <point x="384" y="244"/>
      <point x="499" y="144"/>
      <point x="594" y="144" type="qcurve" smooth="yes"/>
      <point x="687" y="144"/>
      <point x="803" y="243"/>
      <point x="826" y="328" type="qcurve"/>
      <point x="993" y="260" type="line"/>
      <point x="948" y="135"/>
      <point x="778" y="-3"/>
      <point x="663" y="-19" type="qcurve"/>
    </contour>
  </outline>
</glyph>
<glyph name="sterling" format="2">
  <advance width="1222"/>
  <unicode hex="00A3"/>
  <outline>
    <contour>
      <point x="1178" y="0" type="line"/>
      <point x="151" y="0" type="line"/>
      <point x="151" y="160" type="line"/>
      <point x="157" y="160"/>
      <point x="219" y="207" type="qcurve" smooth="yes"/>
      <point x="396" y="341"/>
      <point x="396" y="468" type="qcurve" smooth="yes"/>
      <point x="396" y="533"/>
      <point x="373" y="622" type="qcurve"/>
      <point x="154" y="622" type="line"/>
      <point x="154" y="788" type="line"/>
      <point x="332" y="788" type="line"/>
      <point x="331" y="788"/>
      <point x="321" y="823" type="qcurve" smooth="yes"/>
      <point x="309" y="862"/>
      <point x="290" y="967"/>
      <point x="290" y="1025" type="qcurve" smooth="yes"/>
      <point x="290" y="1139"/>
      <point x="386" y="1329"/>
      <point x="572" y="1439"/>
      <point x="701" y="1439" type="qcurve" smooth="yes"/>
      <point x="794" y="1439"/>
      <point x="948" y="1360"/>
      <point x="1058" y="1225"/>
      <point x="1089" y="1142" type="qcurve"/>
      <point x="933" y="1084" type="line"/>
      <point x="901" y="1171"/>
      <point x="781" y="1272"/>
      <point x="701" y="1272" type="qcurve" smooth="yes"/>
      <point x="586" y="1272"/>
      <point x="456" y="1140"/>
      <point x="456" y="1023" type="qcurve" smooth="yes"/>
      <point x="456" y="969"/>
      <point x="477" y="864"/>
      <point x="502" y="788"/>
      <point x="503" y="788" type="qcurve"/>
      <point x="977" y="788" type="line"/>
      <point x="977" y="622" type="line"/>
      <point x="543" y="622" type="line"/>
      <point x="554" y="556" type="line"/>
      <point x="556" y="538" type="line" smooth="yes"/>
      <point x="559" y="504"/>
      <point x="559" y="471" type="qcurve" smooth="yes"/>
      <point x="559" y="312"/>
      <point x="451" y="203" type="qcurve" smooth="yes"/>
      <point x="420" y="172"/>
      <point x="412" y="167" type="qcurve"/>
      <point x="1178" y="167" type="line"/>
    </contour>
  </outline>
</glyph>
<glyph name="currency" format="2">
  <advance width="1362"/>
  <unicode hex="00A4"/>
  <outline>
    <contour>
      <point x="1051" y="149" type="line"/>
      <point x="945" y="256" type="line"/>
      <point x="818" y="170"/>
      <point x="680" y="170" type="qcurve" smooth="yes"/>
      <point x="544" y="170"/>
      <point x="415" y="256" type="qcurve"/>
      <point x="310" y="149" type="line"/>
      <point x="200" y="264" type="line"/>
      <point x="306" y="368" type="line"/>
      <point x="221" y="487"/>
      <point x="221" y="631" type="qcurve" smooth="yes"/>
      <point x="221" y="778"/>
      <point x="306" y="894" type="qcurve"/>
      <point x="202" y="995" type="line"/>
      <point x="312" y="1111" type="line"/>
      <point x="417" y="1004" type="line"/>
      <point x="538" y="1091"/>
      <point x="684" y="1091" type="qcurve" smooth="yes"/>
      <point x="829" y="1091"/>
      <point x="945" y="1006" type="qcurve"/>
      <point x="1049" y="1109" type="line"/>
      <point x="1160" y="999" type="line"/>
      <point x="1057" y="896" type="line"/>
      <point x="1142" y="779"/>
      <point x="1142" y="631" type="qcurve" smooth="yes"/>
      <point x="1142" y="485"/>
      <point x="1057" y="366" type="qcurve"/>
      <point x="1160" y="264" type="line"/>
    </contour>
    <contour>
      <point x="679" y="325" type="qcurve" smooth="yes"/>
      <point x="768" y="325"/>
      <point x="925" y="426"/>
      <point x="963" y="516" type="qcurve"/>
      <point x="985" y="572"/>
      <point x="985" y="631" type="qcurve" smooth="yes"/>
      <point x="985" y="726"/>
      <point x="878" y="877"/>
      <point x="795" y="912" type="qcurve"/>
      <point x="739" y="934"/>
      <point x="680" y="934" type="qcurve" smooth="yes"/>
      <point x="594" y="934"/>
      <point x="436" y="834"/>
      <point x="398" y="744" type="qcurve"/>
      <point x="376" y="687"/>
      <point x="376" y="627" type="qcurve" smooth="yes"/>
      <point x="376" y="570"/>
      <point x="418" y="460"/>
      <point x="461" y="416" type="qcurve" smooth="yes"/>
      <point x="508" y="369"/>
      <point x="621" y="325"/>
    </contour>
  </outline>
</glyph>
<glyph name="section" format="2">
  <advance width="1119"/>
  <unicode hex="00A7"/>
  <outline>
    <contour>
      <point x="565" y="-18" type="qcurve" smooth="yes"/>
      <point x="408" y="-18"/>
      <point x="176" y="127"/>
      <point x="142" y="270" type="qcurve"/>
      <point x="325" y="328" type="line"/>
      <point x="346" y="234"/>
      <point x="468" y="143"/>
      <point x="574" y="143" type="qcurve" smooth="yes"/>
      <point x="667" y="143"/>
      <point x="788" y="209"/>
      <point x="788" y="284" type="qcurve" smooth="yes"/>
      <point x="788" y="332"/>
      <point x="724" y="390"/>
      <point x="627" y="420"/>
      <point x="544" y="438" type="qcurve" smooth="yes"/>
      <point x="429" y="462"/>
      <point x="286" y="519"/>
      <point x="240" y="572" type="qcurve" smooth="yes"/>
      <point x="190" y="629"/>
      <point x="190" y="727" type="qcurve" smooth="yes"/>
      <point x="190" y="851"/>
      <point x="285" y="939" type="qcurve"/>
      <point x="237" y="977"/>
      <point x="192" y="1077"/>
      <point x="192" y="1132" type="qcurve" smooth="yes"/>
      <point x="192" y="1230"/>
      <point x="297" y="1364"/>
      <point x="465" y="1434"/>
      <point x="559" y="1434" type="qcurve" smooth="yes"/>
      <point x="695" y="1434"/>
      <point x="888" y="1313"/>
      <point x="933" y="1213" type="qcurve"/>
      <point x="769" y="1136" type="line"/>
      <point x="746" y="1209"/>
      <point x="632" y="1277"/>
      <point x="554" y="1277" type="qcurve" smooth="yes"/>
      <point x="464" y="1277"/>
      <point x="357" y="1190"/>
      <point x="357" y="1128" type="qcurve" smooth="yes"/>
      <point x="357" y="1084"/>
      <point x="418" y="1032"/>
      <point x="509" y="1005"/>
      <point x="590" y="988" type="qcurve" smooth="yes"/>
      <point x="706" y="963"/>
      <point x="851" y="911"/>
      <point x="955" y="791"/>
      <point x="955" y="688" type="qcurve" smooth="yes"/>
      <point x="955" y="561"/>
      <point x="867" y="479" type="qcurve"/>
      <point x="955" y="406"/>
      <point x="955" y="283" type="qcurve" smooth="yes"/>
      <point x="955" y="178"/>
      <point x="844" y="45"/>
      <point x="666" y="-18"/>
    </contour>
    <contour>
      <point x="691" y="551" type="line"/>
      <point x="741" y="570"/>
      <point x="788" y="643"/>
      <point x="788" y="688" type="qcurve" smooth="yes"/>
      <point x="788" y="743"/>
      <point x="712" y="811"/>
      <point x="599" y="847"/>
      <point x="506" y="867" type="qcurve" smooth="yes"/>
      <point x="458" y="878" type="line"/>
      <point x="407" y="856"/>
      <point x="357" y="776"/>
      <point x="357" y="733" type="qcurve" smooth="yes"/>
      <point x="357" y="682"/>
      <point x="434" y="617"/>
      <point x="544" y="583"/>
      <point x="633" y="564" type="qcurve" smooth="yes"/>
    </contour>
  </outline>
</glyph>
<glyph name="guillemotleft" format="2">
  <advance width="959"/>
  <unicode hex="00AB"/>
  <outline>
    <contour>
      <point x="438" y="171" type="line"/>
      <point x="42" y="511" type="line"/>
      <point x="438" y="851" type="line"/>
      <point x="438" y="666" type="line"/>
      <point x="251" y="511" type="line"/>
      <point x="438" y="356" type="line"/>
    </contour>
    <contour>
      <point x="802" y="171" type="line"/>
      <point x="404" y="511" type="line"/>
      <point x="802" y="851" type="line"/>
      <point x="802" y="666" type="line"/>
      <point x="614" y="511" type="line"/>
      <point x="802" y="356" type="line"/>
    </contour>
  </outline>
</glyph>
<glyph name="logicalnot" format="2">
  <advance width="1292"/>
  <unicode hex="00AC"/>
  <outline>
    <contour>
      <point x="1056" y="291" type="line"/>
      <point x="872" y="291" type="line"/>
      <point x="872" y="624" type="line"/>
      <point x="145" y="624" type="line"/>
      <point x="145" y="797" type="line"/>
      <point x="1056" y="797" type="line"/>
    </contour>
  </outline>
</glyph>
<glyph name="registered" format="2">
  <advance width="1745"/>
  <unicode hex="00AE"/>
  <outline>
    <contour>
      <point x="873" y="-48" type="qcurve" smooth="yes"/>
      <point x="727" y="-48"/>
      <point x="473" y="49"/>
      <point x="273" y="218"/>
      <point x="207" y="330" type="qcurve" smooth="yes"/>
      <point x="104" y="503"/>
      <point x="104" y="709" type="qcurve" smooth="yes"/>
      <point x="104" y="852"/>
      <point x="202" y="1101"/>
      <point x="373" y="1297"/>
      <point x="487" y="1363" type="qcurve" smooth="yes"/>
      <point x="664" y="1465"/>
      <point x="873" y="1465" type="qcurve" smooth="yes"/>
      <point x="1019" y="1465"/>
      <point x="1272" y="1368"/>
      <point x="1471" y="1199"/>
      <point x="1538" y="1088" type="qcurve" smooth="yes"/>
      <point x="1641" y="914"/>
      <point x="1641" y="709" type="qcurve" smooth="yes"/>
      <point x="1641" y="565"/>
      <point x="1543" y="316"/>
      <point x="1371" y="119"/>
      <point x="1258" y="54" type="qcurve" smooth="yes"/>
      <point x="1082" y="-48"/>
    </contour>
    <contour>
      <point x="873" y="96" type="qcurve" smooth="yes"/>
      <point x="1048" y="96"/>
      <point x="1329" y="266"/>
      <point x="1412" y="403" type="qcurve" smooth="yes"/>
      <point x="1497" y="544"/>
      <point x="1497" y="709" type="qcurve" smooth="yes"/>
      <point x="1497" y="824"/>
      <point x="1416" y="1025"/>
      <point x="1276" y="1185"/>
      <point x="1184" y="1239" type="qcurve" smooth="yes"/>
      <point x="1040" y="1322"/>
      <point x="873" y="1322" type="qcurve" smooth="yes"/>
      <point x="756" y="1322"/>
      <point x="550" y="1243"/>
      <point x="386" y="1104"/>
      <point x="332" y="1014" type="qcurve" smooth="yes"/>
      <point x="246" y="873"/>
      <point x="246" y="709" type="qcurve" smooth="yes"/>
      <point x="246" y="594"/>
      <point x="327" y="392"/>
      <point x="469" y="232"/>
      <point x="561" y="179" type="qcurve" smooth="yes"/>
      <point x="705" y="96"/>
    </contour>
    <contour>
      <point x="1245" y="297" type="line"/>
      <point x="1070" y="297" type="line"/>
      <point x="896" y="622" type="line"/>
      <point x="766" y="622" type="line"/>
      <point x="766" y="297" type="line"/>
      <point x="615" y="297" type="line"/>
      <point x="615" y="1106" type="line"/>
      <point x="926" y="1106" type="line" smooth="yes"/>
      <point x="1066" y="1106"/>
      <point x="1199" y="974"/>
      <point x="1199" y="864" type="qcurve" smooth="yes"/>
      <point x="1199" y="769"/>
      <point x="1111" y="660"/>
      <point x="1044" y="640" type="qcurve"/>
    </contour>
    <contour>
      <point x="926" y="762" type="line" smooth="yes"/>
      <point x="1058" y="762"/>
      <point x="1058" y="857" type="qcurve" smooth="yes"/>
      <point x="1058" y="864" type="line" smooth="yes"/>
      <point x="1058" y="920"/>
      <point x="996" y="965"/>
      <point x="926" y="965" type="qcurve" smooth="yes"/>
      <point x="756" y="965" type="line"/>
      <point x="756" y="762" type="line"/>
    </contour>
  </outline>
</glyph>
<glyph name="plusminus" format="2">
  <advance width="1325"/>
  <unicode hex="00B1"/>
  <outline>
    <contour>
      <point x="736" y="106" type="line"/>
      <point x="589" y="106" type="line"/>
      <point x="589" y="552" type="line"/>
      <point x="132" y="552" type="line"/>
      <point x="132" y="699" type="line"/>
      <point x="589" y="699" type="line"/>
      <point x="589" y="1143" type="line"/>
      <point x="736" y="1143" type="line"/>
      <point x="736" y="699" type="line"/>
      <point x="1193" y="699" type="line"/>
      <point x="1193" y="552" type="line"/>
      <point x="736" y="552" type="line"/>
    </contour>
    <contour>
      <point x="1192" y="-147" type="line"/>
      <point x="134" y="-147" type="line"/>
      <point x="134" y="0" type="line"/>
      <point x="1192" y="0" type="line"/>
    </contour>
  </outline>
</glyph>
<glyph name="twosuperior" format="2">
  <advance width="826"/>
  <unicode hex="00B2"/>
  <outline>
    <contour>
      <point x="763" y="486" type="line"/>
      <point x="49" y="486" type="line"/>
      <point x="49" y="613" type="line"/>
      <point x="261" y="740"/>
      <point x="391" y="861" type="qcurve"/>
      <point x="477" y="943"/>
      <point x="562" y="1082"/>
      <point x="562" y="1152" type="qcurve" smooth="yes"/>
      <point x="562" y="1219"/>
      <point x="487" y="1304"/>
      <point x="414" y="1304" type="qcurve" smooth="yes"/>
      <point x="355" y="1304"/>
      <point x="278" y="1249"/>
      <point x="238" y="1156"/>
      <point x="235" y="1097" type="qcurve"/>
      <point x="86" y="1107" type="line"/>
      <point x="86" y="1200"/>
      <point x="163" y="1352"/>
      <point x="309" y="1441"/>
      <point x="412" y="1441" type="qcurve" smooth="yes"/>
      <point x="508" y="1441"/>
      <point x="644" y="1369"/>
      <point x="717" y="1247"/>
      <point x="717" y="1172" type="qcurve" smooth="yes"/>
      <point x="717" y="1072"/>
      <point x="657" y="979" type="qcurve" smooth="yes"/>
      <point x="603" y="897"/>
      <point x="444" y="738"/>
      <point x="373" y="686" type="qcurve" smooth="yes"/>
      <point x="324" y="650"/>
      <point x="273" y="620" type="qcurve"/>
      <point x="763" y="620" type="line"/>
    </contour>
  </outline>
</glyph>
<glyph name="threesuperior" format="2">
  <advance width="860"/>
  <unicode hex="00B3"/>
  <outline>
    <contour>
      <point x="418" y="464" type="qcurve" smooth="yes"/>
      <point x="321" y="464"/>
      <point x="153" y="528"/>
      <point x="50" y="662"/>
      <point x="50" y="766" type="qcurve"/>
      <point x="193" y="776" type="line"/>
      <point x="193" y="719"/>
      <point x="255" y="642"/>
      <point x="357" y="602"/>
      <point x="418" y="602" type="qcurve" smooth="yes"/>
      <point x="476" y="602"/>
      <point x="577" y="638"/>
      <point x="640" y="711"/>
      <point x="640" y="766" type="qcurve" smooth="yes"/>
      <point x="640" y="841"/>
      <point x="527" y="920"/>
      <point x="439" y="920" type="qcurve" smooth="yes"/>
      <point x="345" y="920" type="line"/>
      <point x="345" y="1051" type="line"/>
      <point x="439" y="1051" type="line" smooth="yes"/>
      <point x="510" y="1051"/>
      <point x="582" y="1120"/>
      <point x="582" y="1175" type="qcurve" smooth="yes"/>
      <point x="582" y="1242"/>
      <point x="484" y="1310"/>
      <point x="416" y="1310" type="qcurve" smooth="yes"/>
      <point x="343" y="1310"/>
      <point x="246" y="1235"/>
      <point x="243" y="1168" type="qcurve"/>
      <point x="102" y="1179" type="line"/>
      <point x="102" y="1266"/>
      <point x="188" y="1387"/>
      <point x="330" y="1450"/>
      <point x="414" y="1450" type="qcurve" smooth="yes"/>
      <point x="495" y="1450"/>
      <point x="638" y="1390"/>
      <point x="726" y="1277"/>
      <point x="726" y="1196" type="qcurve" smooth="yes"/>
      <point x="726" y="1136"/>
      <point x="670" y="1032"/>
      <point x="617" y="997" type="qcurve"/>
      <point x="702" y="961"/>
      <point x="782" y="835"/>
      <point x="783" y="757" type="qcurve"/>
      <point x="783" y="661"/>
      <point x="684" y="531"/>
      <point x="518" y="464"/>
    </contour>
  </outline>
</glyph>
<glyph name="paragraph" format="2">
  <advance width="1299"/>
  <unicode hex="00B6"/>
  <outline>
    <contour>
      <point x="699" y="-246" type="line"/>
      <point x="547" y="-246" type="line"/>
      <point x="547" y="623" type="line"/>
      <point x="433" y="623"/>
      <point x="225" y="714"/>
      <point x="157" y="808" type="qcurve"/>
      <point x="94" y="898"/>
      <point x="94" y="1018" type="qcurve" smooth="yes"/>
      <point x="94" y="1144"/>
      <point x="224" y="1320"/>
      <point x="431" y="1413"/>
      <point x="547" y="1413" type="qcurve" smooth="yes"/>
      <point x="699" y="1413" type="line"/>
    </contour>
    <contour>
      <point x="1060" y="-246" type="line"/>
      <point x="907" y="-246" type="line"/>
      <point x="907" y="1413" type="line"/>
      <point x="1060" y="1413" type="line"/>
    </contour>
  </outline>
</glyph>
<glyph name="periodcentered" format="2">
  <advance width="630"/>
  <unicode hex="00B7"/>
  <outline>
    <contour>
      <point x="314" y="677" type="qcurve" smooth="yes"/>
      <point x="255" y="677"/>
      <point x="179" y="759"/>
      <point x="179" y="813" type="qcurve" smooth="yes"/>
      <point x="179" y="872"/>
      <point x="257" y="948"/>
      <point x="314" y="948" type="qcurve" smooth="yes"/>
      <point x="373" y="948"/>
      <point x="451" y="869"/>
      <point x="451" y="813" type="qcurve" smooth="yes"/>
      <point x="451" y="755"/>
      <point x="368" y="677"/>
    </contour>
  </outline>
</glyph>
<glyph name="cedilla" format="2">
  <advance width="569"/>
  <unicode hex="00B8"/>
  <anchor x="275" y="-500" name="b.uni0326_2"/>
  <outline>
    <contour>
      <point x="260" y="-513" type="qcurve" smooth="yes"/>
      <point x="195" y="-513"/>
      <point x="94" y="-440"/>
      <point x="72" y="-386" type="qcurve"/>
      <point x="188" y="-332" type="line"/>
      <point x="194" y="-357"/>
      <point x="237" y="-393"/>
      <point x="266" y="-393" type="qcurve" smooth="yes"/>
      <point x="308" y="-393"/>
      <point x="356" y="-342"/>
      <point x="356" y="-305" type="qcurve" smooth="yes"/>
      <point x="356" y="-259"/>
      <point x="267" y="-187"/>
      <point x="178" y="-187" type="qcurve" smooth="yes"/>
      <point x="124" y="-187" type="line"/>
      <point x="233" y="-1" type="line"/>
      <point x="364" y="-1" type="line"/>
      <point x="292" y="-109" type="line"/>
      <point x="387" y="-118"/>
      <point x="480" y="-223"/>
      <point x="480" y="-297" type="qcurve" smooth="yes"/>
      <point x="480" y="-354"/>
      <point x="426" y="-452"/>
      <point x="327" y="-513"/>
    </contour>
  </outline>
</glyph>
<glyph name="onesuperior" format="2">
  <advance width="809"/>
  <unicode hex="00B9"/>
  <outline>
    <contour>
      <point x="536" y="486" type="line"/>
      <point x="385" y="486" type="line"/>
      <point x="385" y="1181" type="line"/>
      <point x="135" y="1181" type="line"/>
      <point x="135" y="1300" type="line"/>
      <point x="285" y="1300" type="line" smooth="yes"/>
      <point x="339" y="1300"/>
      <point x="394" y="1359"/>
      <point x="394" y="1406" type="qcurve" smooth="yes"/>
      <point x="394" y="1428" type="line"/>
      <point x="536" y="1428" type="line"/>
    </contour>
  </outline>
</glyph>
<glyph name="ordmasculine" format="2">
  <advance width="942"/>
  <unicode hex="00BA"/>
  <outline>
    <contour>
      <point x="471" y="711" type="qcurve" smooth="yes"/>
      <point x="364" y="711"/>
      <point x="208" y="812"/>
      <point x="122" y="977"/>
      <point x="122" y="1073" type="qcurve" smooth="yes"/>
      <point x="122" y="1175"/>
      <point x="212" y="1338"/>
      <point x="369" y="1434"/>
      <point x="471" y="1434" type="qcurve" smooth="yes"/>
      <point x="576" y="1434"/>
      <point x="732" y="1334"/>
      <point x="818" y="1170"/>
      <point x="818" y="1073" type="qcurve" smooth="yes"/>
      <point x="818" y="972"/>
      <point x="729" y="808"/>
      <point x="573" y="711"/>
    </contour>
    <contour>
      <point x="471" y="837" type="qcurve" smooth="yes"/>
      <point x="572" y="837"/>
      <point x="669" y="968"/>
      <point x="669" y="1073" type="qcurve" smooth="yes"/>
      <point x="669" y="1177"/>
      <point x="572" y="1309"/>
      <point x="471" y="1309" type="qcurve" smooth="yes"/>
      <point x="369" y="1309"/>
      <point x="271" y="1177"/>
      <point x="271" y="1073" type="qcurve" smooth="yes"/>
      <point x="271" y="968"/>
      <point x="369" y="837"/>
    </contour>
  </outline>
</glyph>
<glyph name="questiondown" format="2">
  <advance width="1007"/>
  <unicode hex="00BF"/>
  <outline>
    <contour>
      <point x="624" y="773" type="line"/>
      <point x="395" y="773" type="line"/>
      <point x="395" y="999" type="line"/>
      <point x="624" y="999" type="line"/>
    </contour>
    <contour>
      <point x="520" y="-434" type="qcurve" smooth="yes"/>
      <point x="407" y="-434"/>
      <point x="210" y="-351"/>
      <point x="88" y="-182"/>
      <point x="88" y="-54" type="qcurve" smooth="yes"/>
      <point x="88" y="112"/>
      <point x="192" y="202" type="qcurve" smooth="yes"/>
      <point x="236" y="239"/>
      <point x="304" y="276" type="qcurve" smooth="yes"/>
      <point x="350" y="301"/>
      <point x="374" y="318" type="qcurve" smooth="yes"/>
      <point x="428" y="358"/>
      <point x="428" y="414" type="qcurve" smooth="yes"/>
      <point x="428" y="601" type="line"/>
      <point x="597" y="601" type="line"/>
      <point x="597" y="412" type="line" smooth="yes"/>
      <point x="597" y="275"/>
      <point x="513" y="212" type="qcurve" smooth="yes"/>
      <point x="472" y="182"/>
      <point x="418" y="152" type="qcurve" smooth="yes"/>
      <point x="369" y="125"/>
      <point x="336" y="101" type="qcurve" smooth="yes"/>
      <point x="263" y="48"/>
      <point x="263" y="-58" type="qcurve" smooth="yes"/>
      <point x="263" y="-131"/>
      <point x="328" y="-224"/>
      <point x="441" y="-269"/>
      <point x="512" y="-269" type="qcurve" smooth="yes"/>
      <point x="614" y="-269"/>
      <point x="758" y="-156"/>
      <point x="762" y="-42" type="qcurve"/>
      <point x="939" y="-42" type="line"/>
      <point x="933" y="-228"/>
      <point x="692" y="-434"/>
    </contour>
  </outline>
</glyph>
<glyph name="AE" format="2">
  <advance width="1835"/>
  <unicode hex="00C6"/>
  <outline>
    <contour>
      <point x="1730" y="0" type="line"/>
      <point x="791" y="0" type="line"/>
      <point x="791" y="307" type="line"/>
      <point x="357" y="307" type="line"/>
      <point x="247" y="0" type="line"/>
      <point x="39" y="0" type="line"/>
      <point x="581" y="1413" type="line"/>
      <point x="1730" y="1413" type="line"/>
      <point x="1730" y="1245" type="line"/>
      <point x="983" y="1245" type="line"/>
      <point x="983" y="792" type="line"/>
      <point x="1642" y="792" type="line"/>
      <point x="1642" y="621" type="line"/>
      <point x="983" y="621" type="line"/>
      <point x="983" y="175" type="line"/>
      <point x="1730" y="175" type="line"/>
    </contour>
    <contour>
      <point x="791" y="474" type="line"/>
      <point x="791" y="1245" type="line"/>
      <point x="709" y="1245" type="line"/>
      <point x="420" y="474" type="line"/>
    </contour>
  </outline>
</glyph>
<glyph name="Ccedilla" format="2">
  <advance width="1425"/>
  <unicode hex="00C7"/>
  <outline>
    <contour>
      <point x="752" y="-513" type="qcurve" smooth="yes"/>
      <point x="687" y="-513"/>
      <point x="586" y="-440"/>
      <point x="564" y="-386" type="qcurve"/>
      <point x="680" y="-332" type="line"/>
      <point x="686" y="-357"/>
      <point x="729" y="-393"/>
      <point x="758" y="-393" type="qcurve" smooth="yes"/>
      <point x="800" y="-393"/>
      <point x="848" y="-342"/>
      <point x="848" y="-305" type="qcurve" smooth="yes"/>
      <point x="848" y="-259"/>
      <point x="759" y="-187"/>
      <point x="670" y="-187" type="qcurve" smooth="yes"/>
      <point x="616" y="-187" type="line"/>
      <point x="715" y="-19" type="line"/>
      <point x="514" y="-8"/>
      <point x="377" y="92" type="qcurve"/>
      <point x="234" y="199"/>
      <point x="105" y="521"/>
      <point x="105" y="707" type="qcurve" smooth="yes"/>
      <point x="105" y="835"/>
      <point x="165" y="1072"/>
      <point x="294" y="1268"/>
      <point x="397" y="1338" type="qcurve" smooth="yes"/>
      <point x="544" y="1436"/>
      <point x="760" y="1436" type="qcurve" smooth="yes"/>
      <point x="954" y="1436"/>
      <point x="1266" y="1245"/>
      <point x="1355" y="1046" type="qcurve"/>
      <point x="1167" y="968" type="line"/>
      <point x="1127" y="1111"/>
      <point x="912" y="1244"/>
      <point x="758" y="1244" type="qcurve" smooth="yes"/>
      <point x="602" y="1244"/>
      <point x="402" y="1103"/>
      <point x="306" y="864"/>
      <point x="306" y="717" type="qcurve" smooth="yes"/>
      <point x="306" y="476"/>
      <point x="413" y="331" type="qcurve" smooth="yes"/>
      <point x="531" y="171"/>
      <point x="762" y="171" type="qcurve" smooth="yes"/>
      <point x="917" y="171"/>
      <point x="1116" y="310"/>
      <point x="1170" y="450" type="qcurve"/>
      <point x="1357" y="371" type="line"/>
      <point x="1280" y="196"/>
      <point x="1015" y="4"/>
      <point x="846" y="-15" type="qcurve"/>
      <point x="784" y="-109" type="line"/>
      <point x="879" y="-118"/>
      <point x="972" y="-223"/>
      <point x="972" y="-297" type="qcurve" smooth="yes"/>
      <point x="972" y="-354"/>
      <point x="918" y="-452"/>
      <point x="819" y="-513"/>
    </contour>
  </outline>
</glyph>
<glyph name="Eth" format="2">
  <advance width="1426"/>
  <unicode hex="00D0"/>
  <outline>
    <contour>
      <point x="597" y="0" type="qcurve" smooth="yes"/>
      <point x="218" y="0" type="line"/>
      <point x="218" y="639" type="line"/>
      <point x="105" y="639" type="line"/>
      <point x="105" y="787" type="line"/>
      <point x="218" y="787" type="line"/>
      <point x="218" y="1413" type="line"/>
      <point x="599" y="1413" type="line" smooth="yes"/>
      <point x="954" y="1413"/>
      <point x="1324" y="1038"/>
      <point x="1324" y="696" type="qcurve" smooth="yes"/>
      <point x="1324" y="470"/>
      <point x="1149" y="160"/>
      <point x="823" y="0"/>
    </contour>
    <contour>
      <point x="572" y="181" type="line" smooth="yes"/>
      <point x="736" y="181"/>
      <point x="986" y="291"/>
      <point x="1127" y="524"/>
      <point x="1127" y="707" type="qcurve" smooth="yes"/>
      <point x="1127" y="1234"/>
      <point x="595" y="1234" type="qcurve" smooth="yes"/>
      <point x="413" y="1234" type="line"/>
      <point x="413" y="787" type="line"/>
      <point x="794" y="787" type="line"/>
      <point x="794" y="639" type="line"/>
      <point x="413" y="639" type="line"/>
      <point x="413" y="181" type="line"/>
    </contour>
  </outline>
</glyph>
<glyph name="Thorn" format="2">
  <advance width="1150"/>
  <unicode hex="00DE"/>
  <outline>
    <contour>
      <point x="391" y="0" type="line"/>
      <point x="198" y="0" type="line"/>
      <point x="198" y="1413" type="line"/>
      <point x="391" y="1413" type="line"/>
      <point x="391" y="1216" type="line"/>
      <point x="644" y="1216" type="line" smooth="yes"/>
      <point x="785" y="1216"/>
      <point x="980" y="1118"/>
      <point x="1081" y="939"/>
      <point x="1081" y="819" type="qcurve" smooth="yes"/>
      <point x="1081" y="685"/>
      <point x="962" y="506"/>
      <point x="750" y="416"/>
      <point x="612" y="416" type="qcurve" smooth="yes"/>
      <point x="391" y="416" type="line"/>
    </contour>
    <contour>
      <point x="612" y="593" type="line" smooth="yes"/>
      <point x="745" y="593"/>
      <point x="888" y="701"/>
      <point x="888" y="814" type="qcurve" smooth="yes"/>
      <point x="888" y="918"/>
      <point x="753" y="1041"/>
      <point x="612" y="1041" type="qcurve" smooth="yes"/>
      <point x="391" y="1041" type="line"/>
      <point x="391" y="593" type="line"/>
    </contour>
  </outline>
</glyph>
<glyph name="eth" format="2">
  <advance width="1166"/>
  <unicode hex="00F0"/>
  <outline>
    <contour>
      <point x="576" y="-16" type="qcurve" smooth="yes"/>
      <point x="453" y="-16"/>
      <point x="265" y="70"/>
      <point x="138" y="219"/>
      <point x="73" y="411"/>
      <point x="73" y="516" type="qcurve" smooth="yes"/>
      <point x="73" y="650"/>
      <point x="182" y="881"/>
      <point x="293" y="953" type="qcurve"/>
      <point x="399" y="1020"/>
      <point x="542" y="1020" type="qcurve" smooth="yes"/>
      <point x="632" y="1020"/>
      <point x="767" y="971"/>
      <point x="809" y="932" type="qcurve"/>
      <point x="755" y="1122"/>
      <point x="540" y="1250" type="qcurve"/>
      <point x="454" y="1124" type="line"/>
      <point x="358" y="1186" type="line"/>
      <point x="438" y="1304" type="line"/>
      <point x="371" y="1334"/>
      <point x="285" y="1365" type="qcurve"/>
      <point x="377" y="1516" type="line"/>
      <point x="467" y="1480"/>
      <point x="535" y="1446" type="qcurve"/>
      <point x="600" y="1541" type="line"/>
      <point x="699" y="1482" type="line"/>
      <point x="636" y="1390" type="line"/>
      <point x="863" y="1248"/>
      <point x="1066" y="831"/>
      <point x="1066" y="544" type="qcurve" smooth="yes"/>
      <point x="1066" y="387"/>
      <point x="955" y="130"/>
      <point x="840" y="55" type="qcurve" smooth="yes"/>
      <point x="729" y="-16"/>
    </contour>
    <contour>
      <point x="570" y="165" type="qcurve" smooth="yes"/>
      <point x="668" y="165"/>
      <point x="798" y="264"/>
      <point x="863" y="424"/>
      <point x="863" y="517" type="qcurve" smooth="yes"/>
      <point x="863" y="608"/>
      <point x="798" y="768"/>
      <point x="668" y="867"/>
      <point x="570" y="867" type="qcurve" smooth="yes"/>
      <point x="471" y="867"/>
      <point x="340" y="769"/>
      <point x="276" y="608"/>
      <point x="276" y="516" type="qcurve" smooth="yes"/>
      <point x="276" y="426"/>
      <point x="339" y="265"/>
      <point x="469" y="165"/>
    </contour>
  </outline>
</glyph>
<glyph name="divide" format="2">
  <advance width="1102"/>
  <unicode hex="00F7"/>
  <outline>
    <contour>
      <point x="663" y="870" type="line"/>
      <point x="434" y="870" type="line"/>
      <point x="434" y="1097" type="line"/>
      <point x="663" y="1097" type="line"/>
    </contour>
    <contour>
      <point x="992" y="555" type="line"/>
      <point x="106" y="555" type="line"/>
      <point x="106" y="702" type="line"/>
      <point x="992" y="702" type="line"/>
    </contour>
    <contour>
      <point x="663" y="142" type="line"/>
      <point x="434" y="142" type="line"/>
      <point x="434" y="369" type="line"/>
      <point x="663" y="369" type="line"/>
    </contour>
  </outline>
</glyph>
<glyph name="eogonek" format="2">
  <advance width="1051"/>
  <unicode hex="0119"/>
  <outline>
    <contour>
      <point x="674" y="-405" type="qcurve" smooth="yes"/>
      <point x="585" y="-405"/>
      <point x="459" y="-296"/>
      <point x="459" y="-200" type="qcurve" smooth="yes"/>
      <point x="459" y="-93"/>
      <point x="552" y="-12" type="qcurve"/>
      <point x="394" y="-12"/>
      <point x="288" y="57" type="qcurve" smooth="yes"/>
      <point x="177" y="130"/>
      <point x="74" y="362"/>
      <point x="74" y="494" type="qcurve" smooth="yes"/>
      <point x="74" y="625"/>
      <point x="173" y="862"/>
      <point x="280" y="940" type="qcurve"/>
      <point x="383" y="1012"/>
      <point x="530" y="1012" type="qcurve" smooth="yes"/>
      <point x="768" y="1012"/>
      <point x="976" y="718"/>
      <point x="976" y="491" type="qcurve" smooth="yes"/>
      <point x="976" y="463"/>
      <point x="970" y="436" type="qcurve"/>
      <point x="279" y="436" type="line"/>
      <point x="282" y="361"/>
      <point x="341" y="239"/>
      <point x="457" y="165"/>
      <point x="545" y="165" type="qcurve" smooth="yes"/>
      <point x="639" y="165"/>
      <point x="762" y="210"/>
      <point x="812" y="263" type="qcurve"/>
      <point x="946" y="150" type="line"/>
      <point x="851" y="52"/>
      <point x="737" y="15" type="qcurve"/>
      <point x="586" y="-68"/>
      <point x="586" y="-176" type="qcurve" smooth="yes"/>
      <point x="586" y="-228"/>
      <point x="633" y="-274"/>
      <point x="666" y="-274" type="qcurve" smooth="yes"/>
      <point x="736" y="-274"/>
      <point x="779" y="-213" type="qcurve"/>
      <point x="886" y="-287" type="line"/>
      <point x="809" y="-405"/>
    </contour>
    <contour>
      <point x="788" y="583" type="line"/>
      <point x="785" y="662"/>
      <point x="728" y="779"/>
      <point x="616" y="845"/>
      <point x="530" y="845" type="qcurve" smooth="yes"/>
      <point x="450" y="845"/>
      <point x="343" y="776"/>
      <point x="285" y="658"/>
      <point x="279" y="583" type="qcurve"/>
    </contour>
  </outline>
</glyph>
<glyph name="dotlessi" format="2">
  <advance width="508"/>
  <unicode hex="0131"/>
  <outline>
    <contour>
      <point x="351" y="0" type="line"/>
      <point x="158" y="0" type="line"/>
      <point x="158" y="999" type="line"/>
      <point x="351" y="999" type="line"/>
    </contour>
  </outline>
</glyph>
<glyph name="Lcaron" format="2">
  <advance width="1074"/>
  <unicode hex="013D"/>
  <outline>
    <contour>
      <point x="1006" y="0" type="line"/>
      <point x="198" y="0" type="line"/>
      <point x="198" y="1413" type="line"/>
      <point x="401" y="1413" type="line"/>
      <point x="401" y="189" type="line"/>
      <point x="1006" y="189" type="line"/>
    </contour>
    <contour>
      <point x="757" y="990" type="line"/>
      <point x="633" y="990" type="line"/>
      <point x="742" y="1413" type="line"/>
      <point x="974" y="1413" type="line"/>
    </contour>
  </outline>
</glyph>
<glyph name="lcaron" format="2">
  <advance width="613"/>
  <unicode hex="013E"/>
  <outline>
    <contour>
      <point x="340" y="-20" type="qcurve" smooth="yes"/>
      <point x="245" y="-20"/>
      <point x="153" y="82"/>
      <point x="153" y="200" type="qcurve" smooth="yes"/>
      <point x="153" y="1413" type="line"/>
      <point x="347" y="1413" type="line"/>
      <point x="347" y="213" type="line" smooth="yes"/>
      <point x="347" y="194"/>
      <point x="378" y="152"/>
      <point x="414" y="152" type="qcurve" smooth="yes"/>
      <point x="456" y="152"/>
      <point x="494" y="160" type="qcurve"/>
      <point x="494" y="0" type="line"/>
      <point x="409" y="-20"/>
    </contour>
    <contour>
      <point x="603" y="990" type="line"/>
      <point x="479" y="990" type="line"/>
      <point x="588" y="1413" type="line"/>
      <point x="820" y="1413" type="line"/>
    </contour>
  </outline>
</glyph>
<glyph name="Lslash" format="2">
  <advance width="1073"/>
  <unicode hex="0141"/>
  <outline>
    <contour>
      <point x="1028" y="0" type="line"/>
      <point x="220" y="0" type="line"/>
      <point x="220" y="315" type="line"/>
      <point x="116" y="199" type="line"/>
      <point x="116" y="424" type="line"/>
      <point x="220" y="542" type="line"/>
      <point x="220" y="1413" type="line"/>
      <point x="423" y="1413" type="line"/>
      <point x="423" y="772" type="line"/>
      <point x="730" y="1120" type="line"/>
      <point x="730" y="885" type="line"/>
      <point x="423" y="542" type="line"/>
      <point x="423" y="189" type="line"/>
      <point x="1028" y="189" type="line"/>
    </contour>
  </outline>
</glyph>
<glyph name="lslash" format="2">
  <advance width="544"/>
  <unicode hex="0142"/>
  <outline>
    <contour>
      <point x="340" y="-20" type="qcurve" smooth="yes"/>
      <point x="245" y="-20"/>
      <point x="153" y="82"/>
      <point x="153" y="200" type="qcurve" smooth="yes"/>
      <point x="153" y="440" type="line"/>
      <point x="38" y="310" type="line"/>
      <point x="38" y="495" type="line"/>
      <point x="153" y="625" type="line"/>
      <point x="153" y="1413" type="line"/>
      <point x="347" y="1413" type="line"/>
      <point x="347" y="843" type="line"/>
      <point x="492" y="1007" type="line"/>
      <point x="492" y="822" type="line"/>
      <point x="347" y="658" type="line"/>
      <point x="347" y="213" type="line" smooth="yes"/>
      <point x="347" y="194"/>
      <point x="378" y="152"/>
      <point x="414" y="152" type="qcurve" smooth="yes"/>
      <point x="456" y="152"/>
      <point x="494" y="160" type="qcurve"/>
      <point x="494" y="0" type="line"/>
      <point x="409" y="-20"/>
    </contour>
  </outline>
</glyph>
<glyph name="Eng" format="2">
  <advance width="1436"/>
  <unicode hex="014A"/>
  <outline>
    <contour>
      <point x="934" y="-369" type="qcurve" smooth="yes"/>
      <point x="835" y="-369" type="line"/>
      <point x="835" y="-230" type="line"/>
      <point x="848" y="-230" type="line" smooth="yes"/>
      <point x="968" y="-230"/>
      <point x="1019" y="-174" type="qcurve" smooth="yes"/>
      <point x="1044" y="-146"/>
      <point x="1044" y="-110" type="qcurve" smooth="yes"/>
      <point x="1044" y="-86"/>
      <point x="1032" y="-59" type="qcurve"/>
      <point x="396" y="1120" type="line"/>
      <point x="396" y="0" type="line"/>
      <point x="198" y="0" type="line"/>
      <point x="198" y="1412" type="line"/>
      <point x="434" y="1412" type="line"/>
      <point x="1039" y="293" type="line"/>
      <point x="1039" y="1412" type="line"/>
      <point x="1236" y="1412" type="line"/>
      <point x="1236" y="0" type="line" smooth="yes"/>
      <point x="1236" y="-148"/>
      <point x="1113" y="-369"/>
    </contour>
  </outline>
</glyph>
<glyph name="Tbar" format="2">
  <advance width="1208"/>
  <unicode hex="0166"/>
  <outline>
    <contour>
      <point x="706" y="0" type="line"/>
      <point x="502" y="0" type="line"/>
      <point x="502" y="637" type="line"/>
      <point x="289" y="637" type="line"/>
      <point x="289" y="776" type="line"/>
      <point x="502" y="776" type="line"/>
      <point x="502" y="1237" type="line"/>
      <point x="41" y="1237" type="line"/>
      <point x="41" y="1413" type="line"/>
      <point x="1167" y="1413" type="line"/>
      <point x="1167" y="1237" type="line"/>
      <point x="706" y="1237" type="line"/>
      <point x="706" y="776" type="line"/>
      <point x="923" y="776" type="line"/>
      <point x="923" y="637" type="line"/>
      <point x="706" y="637" type="line"/>
    </contour>
  </outline>
</glyph>
<glyph name="Uogonek" format="2">
  <advance width="1366"/>
  <unicode hex="0172"/>
  <outline>
    <contour>
      <point x="811" y="-416" type="qcurve" smooth="yes"/>
      <point x="722" y="-416"/>
      <point x="596" y="-307"/>
      <point x="596" y="-211" type="qcurve" smooth="yes"/>
      <point x="596" y="-100"/>
      <point x="693" y="-20" type="qcurve"/>
      <point x="334" y="-20"/>
      <point x="221" y="251" type="qcurve" smooth="yes"/>
      <point x="168" y="376"/>
      <point x="168" y="534" type="qcurve" smooth="yes"/>
      <point x="168" y="1413" type="line"/>
      <point x="371" y="1413" type="line"/>
      <point x="371" y="571" type="line" smooth="yes"/>
      <point x="371" y="379"/>
      <point x="510" y="175"/>
      <point x="682" y="175" type="qcurve" smooth="yes"/>
      <point x="854" y="175"/>
      <point x="995" y="379"/>
      <point x="995" y="571" type="qcurve" smooth="yes"/>
      <point x="995" y="1413" type="line"/>
      <point x="1199" y="1413" type="line"/>
      <point x="1199" y="544" type="line" smooth="yes"/>
      <point x="1199" y="418"/>
      <point x="1135" y="205"/>
      <point x="999" y="51"/>
      <point x="890" y="12" type="qcurve"/>
      <point x="825" y="-20"/>
      <point x="723" y="-121"/>
      <point x="723" y="-187" type="qcurve" smooth="yes"/>
      <point x="723" y="-239"/>
      <point x="770" y="-285"/>
      <point x="803" y="-285" type="qcurve" smooth="yes"/>
      <point x="873" y="-285"/>
      <point x="916" y="-224" type="qcurve"/>
      <point x="1023" y="-298" type="line"/>
      <point x="946" y="-416"/>
    </contour>
  </outline>
</glyph>
<glyph name="longs" format="2">
  <advance width="683"/>
  <unicode hex="017F"/>
  <outline>
    <contour>
      <point x="406" y="0" type="line"/>
      <point x="209" y="0" type="line"/>
      <point x="209" y="838" type="line"/>
      <point x="27" y="838" type="line"/>
      <point x="27" y="997" type="line"/>
      <point x="210" y="997" type="line"/>
      <point x="210" y="1151" type="line" smooth="yes"/>
      <point x="210" y="1244"/>
      <point x="291" y="1370"/>
      <point x="424" y="1434"/>
      <point x="503" y="1434" type="qcurve" smooth="yes"/>
      <point x="592" y="1434"/>
      <point x="675" y="1394" type="qcurve"/>
      <point x="619" y="1237" type="line"/>
      <point x="565" y="1265"/>
      <point x="520" y="1265" type="qcurve" smooth="yes"/>
      <point x="471" y="1265"/>
      <point x="406" y="1203"/>
      <point x="406" y="1135" type="qcurve" smooth="yes"/>
    </contour>
  </outline>
</glyph>
<glyph name="aemacron" format="2">
  <advance width="1672"/>
  <unicode hex="01E3"/>
  <outline>
    <contour>
      <point x="1100" y="1173" type="line"/>
      <point x="555" y="1173" type="line"/>
      <point x="555" y="1302" type="line"/>
      <point x="1100" y="1302" type="line"/>
    </contour>
    <contour>
      <point x="395" y="-20" type="qcurve" smooth="yes"/>
      <point x="305" y="-20"/>
      <point x="153" y="54"/>
      <point x="60" y="190"/>
      <point x="60" y="284" type="qcurve" smooth="yes"/>
      <point x="60" y="439"/>
      <point x="265" y="584"/>
      <point x="440" y="584" type="qcurve" smooth="yes"/>
      <point x="733" y="584" type="line"/>
      <point x="733" y="720"/>
      <point x="616" y="855"/>
      <point x="493" y="855" type="qcurve" smooth="yes"/>
      <point x="410" y="855"/>
      <point x="281" y="775"/>
      <point x="242" y="718" type="qcurve"/>
      <point x="101" y="816" type="line"/>
      <point x="178" y="921"/>
      <point x="375" y="1016"/>
      <point x="501" y="1016" type="qcurve" smooth="yes"/>
      <point x="623" y="1016"/>
      <point x="789" y="920"/>
      <point x="832" y="838" type="qcurve"/>
      <point x="943" y="1012"/>
      <point x="1159" y="1012" type="qcurve" smooth="yes"/>
      <point x="1392" y="1012"/>
      <point x="1596" y="717"/>
      <point x="1596" y="489" type="qcurve" smooth="yes"/>
      <point x="1596" y="471"/>
      <point x="1591" y="436" type="qcurve"/>
      <point x="899" y="436" type="line"/>
      <point x="904" y="356"/>
      <point x="967" y="234"/>
      <point x="1083" y="164"/>
      <point x="1167" y="164" type="qcurve" smooth="yes"/>
      <point x="1259" y="164"/>
      <point x="1384" y="211"/>
      <point x="1434" y="265" type="qcurve"/>
      <point x="1567" y="151" type="line"/>
      <point x="1489" y="68"/>
      <point x="1298" y="-12"/>
      <point x="1169" y="-12" type="qcurve" smooth="yes"/>
      <point x="900" y="-12"/>
      <point x="800" y="212" type="qcurve"/>
      <point x="743" y="105"/>
      <point x="543" y="-20"/>
    </contour>
    <contour>
      <point x="1409" y="584" type="line"/>
      <point x="1403" y="705"/>
      <point x="1277" y="845"/>
      <point x="1151" y="845" type="qcurve" smooth="yes"/>
      <point x="1070" y="845"/>
      <point x="963" y="776"/>
      <point x="906" y="659"/>
      <point x="900" y="584" type="qcurve"/>
    </contour>
    <contour>
      <point x="434" y="142" type="qcurve" smooth="yes"/>
      <point x="518" y="142"/>
      <point x="650" y="227"/>
      <point x="728" y="361"/>
      <point x="733" y="436" type="qcurve"/>
      <point x="454" y="436" type="line" smooth="yes"/>
      <point x="368" y="436"/>
      <point x="251" y="357"/>
      <point x="251" y="284" type="qcurve" smooth="yes"/>
      <point x="251" y="240"/>
      <point x="304" y="176"/>
      <point x="388" y="142"/>
    </contour>
  </outline>
</glyph>
<glyph name="aturned" format="2">
  <advance width="1074"/>
  <unicode hex="0250"/>
  <outline>
    <contour>
      <point x="564" y="-20" type="qcurve" smooth="yes"/>
      <point x="433" y="-20"/>
      <point x="252" y="82"/>
      <point x="158" y="265"/>
      <point x="158" y="385" type="qcurve" smooth="yes"/>
      <point x="158" y="995" type="line"/>
      <point x="312" y="995" type="line"/>
      <point x="329" y="834" type="line"/>
      <point x="390" y="927"/>
      <point x="553" y="1016"/>
      <point x="671" y="1016" type="qcurve" smooth="yes"/>
      <point x="760" y="1016"/>
      <point x="915" y="942"/>
      <point x="1010" y="804"/>
      <point x="1010" y="709" type="qcurve" smooth="yes"/>
      <point x="1010" y="553"/>
      <point x="802" y="412"/>
      <point x="625" y="412" type="qcurve" smooth="yes"/>
      <point x="338" y="412" type="line"/>
      <point x="338" y="283"/>
      <point x="451" y="150"/>
      <point x="572" y="150" type="qcurve" smooth="yes"/>
      <point x="653" y="150"/>
      <point x="783" y="232"/>
      <point x="820" y="291" type="qcurve"/>
      <point x="965" y="182" type="line"/>
      <point x="889" y="77"/>
      <point x="693" y="-20"/>
    </contour>
    <contour>
      <point x="611" y="560" type="line" smooth="yes"/>
      <point x="696" y="560"/>
      <point x="811" y="639"/>
      <point x="811" y="709" type="qcurve" smooth="yes"/>
      <point x="811" y="780"/>
      <point x="706" y="847"/>
      <point x="629" y="847" type="qcurve" smooth="yes"/>
      <point x="544" y="847"/>
      <point x="414" y="762"/>
      <point x="340" y="632"/>
      <point x="338" y="560" type="qcurve"/>
    </contour>
  </outline>
</glyph>
<glyph name="uni02F5" format="2">
  <advance width="1174"/>
  <unicode hex="02F5"/>
  <outline>
    <contour>
      <point x="831" y="695" type="line"/>
      <point x="605" y="695" type="line"/>
      <point x="331" y="999" type="line"/>
      <point x="613" y="999" type="line"/>
    </contour>
  </outline>
</glyph>
<glyph name="uni02F6" format="2">
  <advance width="1174"/>
  <unicode hex="02F6"/>
  <outline>
    <contour>
      <point x="569" y="695" type="line"/>
      <point x="343" y="695" type="line"/>
      <point x="562" y="999" type="line"/>
      <point x="843" y="999" type="line"/>
    </contour>
  </outline>
</glyph>
<glyph name="gravecmb" format="2">
  <unicode hex="0300"/>
  <anchor x="-146" y="999" name="_t.ringcmb_1"/>
  <outline>
    <contour>
      <point x="-51" y="1113" type="line"/>
      <point x="-215" y="1113" type="line"/>
      <point x="-496" y="1413" type="line"/>
      <point x="-272" y="1413" type="line"/>
    </contour>
  </outline>
</glyph>
<glyph name="acutecmb" format="2">
  <unicode hex="0301"/>
  <anchor x="-335" y="999" name="_t.ringcmb_1"/>
  <outline>
    <contour>
      <point x="-329" y="1124" type="line"/>
      <point x="-484" y="1124" type="line"/>
      <point x="-263" y="1413" type="line"/>
      <point x="-38" y="1413" type="line"/>
    </contour>
  </outline>
</glyph>
<glyph name="circumflexcmb" format="2">
  <unicode hex="0302"/>
  <anchor x="-352" y="999" name="_t.ringcmb_1"/>
  <outline>
    <contour>
      <point x="-30" y="1098" type="line"/>
      <point x="-203" y="1098" type="line"/>
      <point x="-353" y="1265" type="line"/>
      <point x="-501" y="1098" type="line"/>
      <point x="-676" y="1098" type="line"/>
      <point x="-353" y="1452" type="line"/>
    </contour>
  </outline>
</glyph>
<glyph name="macroncmb" format="2">
  <unicode hex="0304"/>
  <anchor x="-426" y="999" name="_t.ringcmb_1"/>
  <outline>
    <contour>
      <point x="-151" y="1166" type="line"/>
      <point x="-700" y="1166" type="line"/>
      <point x="-700" y="1300" type="line"/>
      <point x="-151" y="1300" type="line"/>
    </contour>
  </outline>
</glyph>
<glyph name="brevecmb" format="2">
  <unicode hex="0306"/>
  <anchor x="-410" y="999" name="_t.ringcmb_1"/>
  <outline>
    <contour>
      <point x="-410" y="1143" type="qcurve" smooth="yes"/>
      <point x="-560" y="1143"/>
      <point x="-721" y="1283"/>
      <point x="-721" y="1413" type="qcurve"/>
      <point x="-568" y="1413" type="line"/>
      <point x="-568" y="1344"/>
      <point x="-475" y="1270"/>
      <point x="-410" y="1270" type="qcurve" smooth="yes"/>
      <point x="-344" y="1270"/>
      <point x="-253" y="1344"/>
      <point x="-253" y="1413" type="qcurve"/>
      <point x="-100" y="1413" type="line"/>
      <point x="-100" y="1321"/>
      <point x="-177" y="1201"/>
      <point x="-317" y="1143"/>
    </contour>
  </outline>
</glyph>
<glyph name="dotaccentcmb" format="2">
  <unicode hex="0307"/>
  <anchor x="-258" y="999" name="_t.ringcmb_1"/>
  <outline>
    <contour>
      <point x="-154" y="1205" type="line"/>
      <point x="-366" y="1205" type="line"/>
      <point x="-366" y="1413" type="line"/>
      <point x="-154" y="1413" type="line"/>
    </contour>
  </outline>
</glyph>
<glyph name="ringcmb" format="2">
  <unicode hex="030A"/>
  <anchor x="-317" y="999" name="_t.ringcmb_1"/>
  <outline>
    <contour>
      <point x="-318" y="1074" type="qcurve" smooth="yes"/>
      <point x="-381" y="1074"/>
      <point x="-478" y="1135"/>
      <point x="-533" y="1234"/>
      <point x="-533" y="1291" type="qcurve" smooth="yes"/>
      <point x="-533" y="1385"/>
      <point x="-404" y="1506"/>
      <point x="-318" y="1506" type="qcurve" smooth="yes"/>
      <point x="-230" y="1506"/>
      <point x="-101" y="1382"/>
      <point x="-101" y="1291" type="qcurve" smooth="yes"/>
      <point x="-101" y="1199"/>
      <point x="-229" y="1074"/>
    </contour>
    <contour>
      <point x="-318" y="1191" type="qcurve" smooth="yes"/>
      <point x="-275" y="1191"/>
      <point x="-217" y="1249"/>
      <point x="-217" y="1292" type="qcurve" smooth="yes"/>
      <point x="-217" y="1332"/>
      <point x="-271" y="1389"/>
      <point x="-318" y="1389" type="qcurve" smooth="yes"/>
      <point x="-363" y="1389"/>
      <point x="-416" y="1335"/>
      <point x="-416" y="1292" type="qcurve" smooth="yes"/>
      <point x="-416" y="1247"/>
      <point x="-360" y="1191"/>
    </contour>
  </outline>
</glyph>
<glyph name="hungarumlautcmb" format="2">
  <unicode hex="030B"/>
  <anchor x="-541" y="999" name="_t.ringcmb_1"/>
  <outline>
    <contour>
      <point x="-666" y="1103" type="line"/>
      <point x="-821" y="1103" type="line"/>
      <point x="-600" y="1413" type="line"/>
      <point x="-397" y="1413" type="line"/>
    </contour>
    <contour>
      <point x="-328" y="1103" type="line"/>
      <point x="-482" y="1103" type="line"/>
      <point x="-261" y="1413" type="line"/>
      <point x="-37" y="1413" type="line"/>
    </contour>
  </outline>
</glyph>
<glyph name="caroncmb" format="2">
  <unicode hex="030C"/>
  <anchor x="-353" y="999" name="_t.ringcmb_1"/>
  <outline>
    <contour>
      <point x="-354" y="1080" type="line"/>
      <point x="-676" y="1412" type="line"/>
      <point x="-502" y="1412" type="line"/>
      <point x="-354" y="1252" type="line"/>
      <point x="-204" y="1412" type="line"/>
      <point x="-30" y="1412" type="line"/>
    </contour>
  </outline>
</glyph>
<glyph name="dblgravecmb" format="2">
  <unicode hex="030F"/>
  <anchor x="-329" y="999" name="_t.ringcmb_1"/>
  <outline>
    <contour>
      <point x="-401" y="1103" type="line"/>
      <point x="-575" y="1103" type="line"/>
      <point x="-856" y="1413" type="line"/>
      <point x="-622" y="1413" type="line"/>
    </contour>
    <contour>
      <point x="-52" y="1103" type="line"/>
      <point x="-227" y="1103" type="line"/>
      <point x="-507" y="1413" type="line"/>
      <point x="-273" y="1413" type="line"/>
    </contour>
  </outline>
</glyph>
<glyph name="commaturnedabovecmb" format="2">
  <unicode hex="0312"/>
  <anchor x="-329" y="999" name="_t.ringcmb_1"/>
  <outline>
    <contour>
      <point x="-223" y="1121" type="line"/>
      <point x="-454" y="1121" type="line"/>
      <point x="-217" y="1428" type="line"/>
      <point x="-94" y="1428" type="line"/>
    </contour>
  </outline>
</glyph>
<glyph name="ogonekcmb" format="2">
  <unicode hex="0328"/>
  <anchor x="-178" y="0" name="_b.ogonekcmb_2"/>
  <outline>
    <contour>
      <point x="-271" y="-451" type="qcurve" smooth="yes"/>
      <point x="-360" y="-451"/>
      <point x="-486" y="-342"/>
      <point x="-486" y="-246" type="qcurve" smooth="yes"/>
      <point x="-486" y="-175"/>
      <point x="-409" y="-67"/>
      <point x="-324" y="-7"/>
      <point x="-296" y="0" type="qcurve"/>
      <point x="-141" y="0" type="line"/>
      <point x="-169" y="-10"/>
      <point x="-266" y="-62"/>
      <point x="-359" y="-159"/>
      <point x="-359" y="-222" type="qcurve" smooth="yes"/>
      <point x="-359" y="-274"/>
      <point x="-312" y="-320"/>
      <point x="-279" y="-320" type="qcurve" smooth="yes"/>
      <point x="-209" y="-320"/>
      <point x="-166" y="-259" type="qcurve"/>
      <point x="-59" y="-333" type="line"/>
      <point x="-136" y="-451"/>
    </contour>
  </outline>
</glyph>
<glyph name="pi" format="2">
  <advance width="996"/>
  <unicode hex="03C0"/>
  <outline>
    <contour>
      <point x="830" y="-20" type="qcurve" smooth="yes"/>
      <point x="728" y="-20"/>
      <point x="611" y="121"/>
      <point x="611" y="223" type="qcurve" smooth="yes"/>
      <point x="611" y="823" type="line"/>
      <point x="354" y="823" type="line"/>
      <point x="354" y="0" type="line"/>
      <point x="178" y="0" type="line"/>
      <point x="178" y="823" type="line"/>
      <point x="96" y="823" type="line"/>
      <point x="96" y="999" type="line"/>
      <point x="869" y="999" type="line"/>
      <point x="869" y="823" type="line"/>
      <point x="787" y="823" type="line"/>
      <point x="787" y="242" type="line" smooth="yes"/>
      <point x="787" y="184"/>
      <point x="820" y="131"/>
      <point x="846" y="131" type="qcurve" smooth="yes"/>
      <point x="870" y="131"/>
      <point x="894" y="147" type="qcurve"/>
      <point x="946" y="13" type="line"/>
      <point x="894" y="-20"/>
    </contour>
  </outline>
</glyph>
<glyph name="afii10053" format="2">
  <advance width="1425"/>
  <unicode hex="0404"/>
  <outline>
    <contour>
      <point x="762" y="-20" type="qcurve" smooth="yes"/>
      <point x="547" y="-20"/>
      <point x="399" y="78" type="qcurve"/>
      <point x="245" y="182"/>
      <point x="105" y="515"/>
      <point x="105" y="707" type="qcurve" smooth="yes"/>
      <point x="105" y="900"/>
      <point x="244" y="1233"/>
      <point x="398" y="1338" type="qcurve"/>
      <point x="545" y="1436"/>
      <point x="760" y="1436" type="qcurve" smooth="yes"/>
      <point x="956" y="1436"/>
      <point x="1267" y="1244"/>
      <point x="1355" y="1046" type="qcurve"/>
      <point x="1167" y="970" type="line"/>
      <point x="1126" y="1112"/>
      <point x="911" y="1244"/>
      <point x="758" y="1244" type="qcurve" smooth="yes"/>
      <point x="618" y="1244"/>
      <point x="428" y="1126"/>
      <point x="323" y="924"/>
      <point x="311" y="795" type="qcurve"/>
      <point x="912" y="795" type="line"/>
      <point x="912" y="624" type="line"/>
      <point x="312" y="624" type="line"/>
      <point x="324" y="492"/>
      <point x="429" y="288"/>
      <point x="619" y="171"/>
      <point x="762" y="171" type="qcurve" smooth="yes"/>
      <point x="917" y="171"/>
      <point x="1115" y="310"/>
      <point x="1169" y="449" type="qcurve"/>
      <point x="1357" y="371" type="line"/>
      <point x="1270" y="172"/>
      <point x="957" y="-20"/>
    </contour>
  </outline>
</glyph>
<glyph name="afii10056" format="2">
  <advance width="598"/>
  <unicode hex="0407"/>
  <outline>
    <contour>
      <point x="216" y="1583" type="line"/>
      <point x="37" y="1583" type="line"/>
      <point x="37" y="1763" type="line"/>
      <point x="216" y="1763" type="line"/>
    </contour>
    <contour>
      <point x="558" y="1583" type="line"/>
      <point x="379" y="1583" type="line"/>
      <point x="379" y="1763" type="line"/>
      <point x="558" y="1763" type="line"/>
    </contour>
    <contour>
      <point x="401" y="0" type="line"/>
      <point x="198" y="0" type="line"/>
      <point x="198" y="1412" type="line"/>
      <point x="401" y="1412" type="line"/>
    </contour>
  </outline>
</glyph>
<glyph name="afii10057" format="2">
  <advance width="1128"/>
  <unicode hex="0408"/>
  <outline>
    <contour>
      <point x="504" y="-20" type="qcurve" smooth="yes"/>
      <point x="366" y="-20"/>
      <point x="171" y="99"/>
      <point x="61" y="296"/>
      <point x="52" y="417" type="qcurve"/>
      <point x="252" y="442" type="line"/>
      <point x="260" y="322"/>
      <point x="385" y="165"/>
      <point x="504" y="165" type="qcurve" smooth="yes"/>
      <point x="599" y="165"/>
      <point x="707" y="239"/>
      <point x="753" y="386"/>
      <point x="753" y="495" type="qcurve" smooth="yes"/>
      <point x="753" y="1231" type="line"/>
      <point x="220" y="1231" type="line"/>
      <point x="220" y="1412" type="line"/>
      <point x="956" y="1412" type="line"/>
      <point x="956" y="503" type="line" smooth="yes"/>
      <point x="956" y="259"/>
      <point x="739" y="-20"/>
    </contour>
  </outline>
</glyph>
<glyph name="afii10059" format="2">
  <advance width="2030"/>
  <unicode hex="040A"/>
  <outline>
    <contour>
      <point x="1489" y="0" type="qcurve" smooth="yes"/>
      <point x="1070" y="0" type="line"/>
      <point x="1070" y="616" type="line"/>
      <point x="401" y="616" type="line"/>
      <point x="401" y="0" type="line"/>
      <point x="198" y="0" type="line"/>
      <point x="198" y="1412" type="line"/>
      <point x="401" y="1412" type="line"/>
      <point x="401" y="797" type="line"/>
      <point x="1070" y="797" type="line"/>
      <point x="1070" y="1412" type="line"/>
      <point x="1274" y="1412" type="line"/>
      <point x="1274" y="799" type="line"/>
      <point x="1489" y="799" type="line" smooth="yes"/>
      <point x="1625" y="799"/>
      <point x="1839" y="710"/>
      <point x="1963" y="533"/>
      <point x="1963" y="403" type="qcurve" smooth="yes"/>
      <point x="1963" y="273"/>
      <point x="1840" y="93"/>
      <point x="1626" y="0"/>
    </contour>
    <contour>
      <point x="1489" y="186" type="line" smooth="yes"/>
      <point x="1629" y="186"/>
      <point x="1762" y="304"/>
      <point x="1762" y="403" type="qcurve" smooth="yes"/>
      <point x="1762" y="504"/>
      <point x="1627" y="613"/>
      <point x="1489" y="613" type="qcurve" smooth="yes"/>
      <point x="1274" y="613" type="line"/>
      <point x="1274" y="186" type="line"/>
    </contour>
  </outline>
</glyph>
<glyph name="afii10061" format="2">
  <advance width="1306"/>
  <unicode hex="040C"/>
  <outline>
    <contour>
      <point x="665" y="1537" type="line"/>
      <point x="519" y="1537" type="line"/>
      <point x="738" y="1826" type="line"/>
      <point x="952" y="1826" type="line"/>
    </contour>
    <contour>
      <point x="1259" y="0" type="line"/>
      <point x="1011" y="0" type="line"/>
      <point x="826" y="521" type="line"/>
      <point x="815" y="555"/>
      <point x="764" y="630"/>
      <point x="686" y="685"/>
      <point x="636" y="685" type="qcurve" smooth="yes"/>
      <point x="401" y="685" type="line"/>
      <point x="401" y="0" type="line"/>
      <point x="198" y="0" type="line"/>
      <point x="198" y="1412" type="line"/>
      <point x="401" y="1412" type="line"/>
      <point x="401" y="868" type="line"/>
      <point x="560" y="868" type="line"/>
      <point x="919" y="1412" type="line"/>
      <point x="1185" y="1412" type="line"/>
      <point x="769" y="824" type="line"/>
      <point x="825" y="824"/>
      <point x="920" y="756"/>
      <point x="989" y="661"/>
      <point x="1007" y="617" type="qcurve" smooth="yes"/>
    </contour>
  </outline>
</glyph>
<glyph name="uni040D" format="2">
  <advance width="1471"/>
  <unicode hex="040D"/>
  <outline>
    <contour>
      <point x="861" y="1529" type="line"/>
      <point x="702" y="1529" type="line"/>
      <point x="429" y="1826" type="line"/>
      <point x="643" y="1826" type="line"/>
    </contour>
    <contour>
      <point x="1273" y="0" type="line"/>
      <point x="1070" y="0" type="line"/>
      <point x="1070" y="1066" type="line"/>
      <point x="1072" y="1151" type="line"/>
      <point x="441" y="0" type="line"/>
      <point x="198" y="0" type="line"/>
      <point x="198" y="1412" type="line"/>
      <point x="401" y="1412" type="line"/>
      <point x="401" y="363" type="line" smooth="yes"/>
      <point x="401" y="313"/>
      <point x="398" y="260" type="qcurve"/>
      <point x="1029" y="1412" type="line"/>
      <point x="1273" y="1412" type="line"/>
    </contour>
  </outline>
</glyph>
<glyph name="afii10062" format="2">
  <advance width="1113"/>
  <unicode hex="040E"/>
  <outline>
    <contour>
      <point x="550" y="1555" type="qcurve" smooth="yes"/>
      <point x="458" y="1555"/>
      <point x="319" y="1615"/>
      <point x="242" y="1735"/>
      <point x="242" y="1826" type="qcurve"/>
      <point x="388" y="1826" type="line"/>
      <point x="388" y="1755"/>
      <point x="484" y="1679"/>
      <point x="550" y="1679" type="qcurve" smooth="yes"/>
      <point x="617" y="1679"/>
      <point x="713" y="1756"/>
      <point x="713" y="1826" type="qcurve"/>
      <point x="859" y="1826" type="line"/>
      <point x="859" y="1735"/>
      <point x="781" y="1614"/>
      <point x="642" y="1555"/>
    </contour>
    <contour>
      <point x="457" y="0" type="line"/>
      <point x="242" y="0" type="line"/>
      <point x="437" y="457" type="line"/>
      <point x="39" y="1412" type="line"/>
      <point x="257" y="1412" type="line"/>
      <point x="544" y="676" type="line"/>
      <point x="854" y="1412" type="line"/>
      <point x="1073" y="1412" type="line"/>
    </contour>
  </outline>
</glyph>
<glyph name="afii10145" format="2">
  <advance width="1471"/>
  <unicode hex="040F"/>
  <outline>
    <contour>
      <point x="837" y="-307" type="line"/>
      <point x="634" y="-307" type="line"/>
      <point x="634" y="0" type="line"/>
      <point x="198" y="0" type="line"/>
      <point x="198" y="1412" type="line"/>
      <point x="401" y="1412" type="line"/>
      <point x="401" y="182" type="line"/>
      <point x="1070" y="182" type="line"/>
      <point x="1070" y="1412" type="line"/>
      <point x="1273" y="1412" type="line"/>
      <point x="1273" y="0" type="line"/>
      <point x="837" y="0" type="line"/>
    </contour>
  </outline>
</glyph>
<glyph name="Acyrillic" format="2">
  <advance width="1323"/>
  <unicode hex="0410"/>
  <outline>
    <contour>
      <point x="1283" y="0" type="line"/>
      <point x="1065" y="0" type="line"/>
      <point x="955" y="307" type="line"/>
      <point x="371" y="307" type="line"/>
      <point x="260" y="0" type="line"/>
      <point x="39" y="0" type="line"/>
      <point x="585" y="1412" type="line"/>
      <point x="739" y="1412" type="line"/>
    </contour>
    <contour>
      <point x="888" y="486" type="line"/>
      <point x="663" y="1114" type="line"/>
      <point x="438" y="486" type="line"/>
    </contour>
  </outline>
</glyph>
<glyph name="afii10018" format="2">
  <advance width="1258"/>
  <unicode hex="0411"/>
  <outline>
    <contour>
      <point x="703" y="0" type="qcurve" smooth="yes"/>
      <point x="198" y="0" type="line"/>
      <point x="198" y="1412" type="line"/>
      <point x="980" y="1412" type="line"/>
      <point x="980" y="1229" type="line"/>
      <point x="401" y="1229" type="line"/>
      <point x="401" y="817" type="line"/>
      <point x="718" y="817" type="line" smooth="yes"/>
      <point x="934" y="817"/>
      <point x="1158" y="592"/>
      <point x="1158" y="398" type="qcurve" smooth="yes"/>
      <point x="1158" y="272"/>
      <point x="1035" y="94"/>
      <point x="828" y="0"/>
    </contour>
    <contour>
      <point x="707" y="191" type="line" smooth="yes"/>
      <point x="776" y="191"/>
      <point x="889" y="243"/>
      <point x="956" y="344"/>
      <point x="956" y="418" type="qcurve" smooth="yes"/>
      <point x="956" y="487"/>
      <point x="887" y="585"/>
      <point x="772" y="637"/>
      <point x="704" y="637" type="qcurve" smooth="yes"/>
      <point x="401" y="637" type="line"/>
      <point x="401" y="191" type="line"/>
    </contour>
  </outline>
</glyph>
<glyph name="afii10027" format="2">
  <advance width="1471"/>
  <unicode hex="0419"/>
  <outline>
    <contour>
      <point x="756" y="1555" type="qcurve" smooth="yes"/>
      <point x="664" y="1555"/>
      <point x="525" y="1615"/>
      <point x="448" y="1735"/>
      <point x="448" y="1826" type="qcurve"/>
      <point x="594" y="1826" type="line"/>
      <point x="594" y="1755"/>
      <point x="690" y="1679"/>
      <point x="756" y="1679" type="qcurve" smooth="yes"/>
      <point x="823" y="1679"/>
      <point x="919" y="1756"/>
      <point x="919" y="1826" type="qcurve"/>
      <point x="1065" y="1826" type="line"/>
      <point x="1065" y="1735"/>
      <point x="987" y="1614"/>
      <point x="848" y="1555"/>
    </contour>
    <contour>
      <point x="1273" y="0" type="line"/>
      <point x="1070" y="0" type="line"/>
      <point x="1070" y="1066" type="line"/>
      <point x="1072" y="1151" type="line"/>
      <point x="441" y="0" type="line"/>
      <point x="198" y="0" type="line"/>
      <point x="198" y="1412" type="line"/>
      <point x="401" y="1412" type="line"/>
      <point x="401" y="363" type="line" smooth="yes"/>
      <point x="401" y="313"/>
      <point x="398" y="260" type="qcurve"/>
      <point x="1029" y="1412" type="line"/>
      <point x="1273" y="1412" type="line"/>
    </contour>
  </outline>
</glyph>
<glyph name="afii10029" format="2">
  <advance width="1334"/>
  <unicode hex="041B"/>
  <outline>
    <contour>
      <point x="1295" y="0" type="line"/>
      <point x="1076" y="0" type="line"/>
      <point x="666" y="1109" type="line"/>
      <point x="259" y="0" type="line"/>
      <point x="39" y="0" type="line"/>
      <point x="585" y="1413" type="line"/>
      <point x="747" y="1413" type="line"/>
    </contour>
  </outline>
</glyph>
<glyph name="afii10033" format="2">
  <advance width="1471"/>
  <unicode hex="041F"/>
  <outline>
    <contour>
      <point x="1273" y="0" type="line"/>
      <point x="1070" y="0" type="line"/>
      <point x="1070" y="1231" type="line"/>
      <point x="401" y="1231" type="line"/>
      <point x="401" y="0" type="line"/>
      <point x="198" y="0" type="line"/>
      <point x="198" y="1412" type="line"/>
      <point x="1273" y="1412" type="line"/>
    </contour>
  </outline>
</glyph>
<glyph name="afii10035" format="2">
  <advance width="1425"/>
  <unicode hex="0421"/>
  <outline>
    <contour>
      <point x="762" y="-20" type="qcurve" smooth="yes"/>
      <point x="547" y="-20"/>
      <point x="399" y="78" type="qcurve"/>
      <point x="245" y="182"/>
      <point x="105" y="515"/>
      <point x="105" y="707" type="qcurve" smooth="yes"/>
      <point x="105" y="900"/>
      <point x="244" y="1233"/>
      <point x="398" y="1338" type="qcurve"/>
      <point x="545" y="1436"/>
      <point x="760" y="1436" type="qcurve" smooth="yes"/>
      <point x="956" y="1436"/>
      <point x="1267" y="1244"/>
      <point x="1355" y="1046" type="qcurve"/>
      <point x="1167" y="970" type="line"/>
      <point x="1126" y="1112"/>
      <point x="911" y="1244"/>
      <point x="758" y="1244" type="qcurve" smooth="yes"/>
      <point x="602" y="1244"/>
      <point x="402" y="1103"/>
      <point x="306" y="864"/>
      <point x="306" y="717" type="qcurve" smooth="yes"/>
      <point x="306" y="476"/>
      <point x="414" y="330" type="qcurve" smooth="yes"/>
      <point x="532" y="171"/>
      <point x="762" y="171" type="qcurve" smooth="yes"/>
      <point x="917" y="171"/>
      <point x="1115" y="310"/>
      <point x="1169" y="449" type="qcurve"/>
      <point x="1357" y="371" type="line"/>
      <point x="1270" y="172"/>
      <point x="957" y="-20"/>
    </contour>
  </outline>
</glyph>
<glyph name="afii10039" format="2">
  <advance width="1299"/>
  <unicode hex="0425"/>
  <outline>
    <contour>
      <point x="1249" y="0" type="line"/>
      <point x="1008" y="0" type="line"/>
      <point x="647" y="558" type="line"/>
      <point x="292" y="0" type="line"/>
      <point x="50" y="0" type="line"/>
      <point x="519" y="707" type="line"/>
      <point x="52" y="1413" type="line"/>
      <point x="294" y="1413" type="line"/>
      <point x="649" y="846" type="line"/>
      <point x="1006" y="1413" type="line"/>
      <point x="1247" y="1413" type="line"/>
      <point x="781" y="707" type="line"/>
    </contour>
  </outline>
</glyph>
<glyph name="afii10040" format="2">
  <advance width="1502"/>
  <unicode hex="0426"/>
  <outline>
    <contour>
      <point x="1420" y="-278" type="line"/>
      <point x="1218" y="-278" type="line"/>
      <point x="1218" y="0" type="line"/>
      <point x="198" y="0" type="line"/>
      <point x="198" y="1412" type="line"/>
      <point x="401" y="1412" type="line"/>
      <point x="401" y="182" type="line"/>
      <point x="1070" y="182" type="line"/>
      <point x="1070" y="1412" type="line"/>
      <point x="1273" y="1412" type="line"/>
      <point x="1273" y="182" type="line"/>
      <point x="1420" y="182" type="line"/>
    </contour>
  </outline>
</glyph>
<glyph name="afii10042" format="2">
  <advance width="1772"/>
  <unicode hex="0428"/>
  <outline>
    <contour>
      <point x="1574" y="0" type="line"/>
      <point x="198" y="0" type="line"/>
      <point x="198" y="1412" type="line"/>
      <point x="401" y="1412" type="line"/>
      <point x="401" y="182" type="line"/>
      <point x="783" y="182" type="line"/>
      <point x="783" y="1412" type="line"/>
      <point x="986" y="1412" type="line"/>
      <point x="986" y="182" type="line"/>
      <point x="1371" y="182" type="line"/>
      <point x="1371" y="1412" type="line"/>
      <point x="1574" y="1412" type="line"/>
    </contour>
  </outline>
</glyph>
<glyph name="afii10044" format="2">
  <advance width="1386"/>
  <unicode hex="042A"/>
  <outline>
    <contour>
      <point x="845" y="0" type="qcurve" smooth="yes"/>
      <point x="427" y="0" type="line"/>
      <point x="427" y="1238" type="line"/>
      <point x="41" y="1238" type="line"/>
      <point x="41" y="1412" type="line"/>
      <point x="628" y="1412" type="line"/>
      <point x="628" y="799" type="line"/>
      <point x="845" y="799" type="line" smooth="yes"/>
      <point x="979" y="799"/>
      <point x="1195" y="711"/>
      <point x="1259" y="618" type="qcurve"/>
      <point x="1318" y="528"/>
      <point x="1318" y="403" type="qcurve" smooth="yes"/>
      <point x="1318" y="274"/>
      <point x="1196" y="94"/>
      <point x="983" y="0"/>
    </contour>
    <contour>
      <point x="845" y="186" type="line" smooth="yes"/>
      <point x="985" y="186"/>
      <point x="1119" y="304"/>
      <point x="1119" y="403" type="qcurve" smooth="yes"/>
      <point x="1119" y="504"/>
      <point x="984" y="613"/>
      <point x="845" y="613" type="qcurve" smooth="yes"/>
      <point x="628" y="613" type="line"/>
      <point x="628" y="186" type="line"/>
    </contour>
  </outline>
</glyph>
<glyph name="afii10045" format="2">
  <advance width="1682"/>
  <unicode hex="042B"/>
  <outline>
    <contour>
      <point x="616" y="0" type="qcurve" smooth="yes"/>
      <point x="198" y="0" type="line"/>
      <point x="198" y="1412" type="line"/>
      <point x="400" y="1412" type="line"/>
      <point x="400" y="799" type="line"/>
      <point x="616" y="799" type="line" smooth="yes"/>
      <point x="751" y="799"/>
      <point x="967" y="711"/>
      <point x="1031" y="618" type="qcurve"/>
      <point x="1090" y="528"/>
      <point x="1090" y="403" type="qcurve" smooth="yes"/>
      <point x="1090" y="274"/>
      <point x="969" y="94"/>
      <point x="755" y="0"/>
    </contour>
    <contour>
      <point x="1484" y="0" type="line"/>
      <point x="1282" y="0" type="line"/>
      <point x="1282" y="1412" type="line"/>
      <point x="1484" y="1412" type="line"/>
    </contour>
    <contour>
      <point x="616" y="186" type="line" smooth="yes"/>
      <point x="756" y="186"/>
      <point x="890" y="304"/>
      <point x="890" y="403" type="qcurve" smooth="yes"/>
      <point x="890" y="504"/>
      <point x="755" y="613"/>
      <point x="616" y="613" type="qcurve" smooth="yes"/>
      <point x="400" y="613" type="line"/>
      <point x="400" y="186" type="line"/>
    </contour>
  </outline>
</glyph>
<glyph name="afii10047" format="2">
  <advance width="1425"/>
  <unicode hex="042D"/>
  <outline>
    <contour>
      <point x="663" y="-20" type="qcurve" smooth="yes"/>
      <point x="468" y="-20"/>
      <point x="155" y="172"/>
      <point x="68" y="371" type="qcurve"/>
      <point x="257" y="449" type="line"/>
      <point x="310" y="310"/>
      <point x="508" y="171"/>
      <point x="663" y="171" type="qcurve" smooth="yes"/>
      <point x="868" y="171"/>
      <point x="1093" y="419"/>
      <point x="1114" y="624" type="qcurve"/>
      <point x="514" y="624" type="line"/>
      <point x="514" y="795" type="line"/>
      <point x="1114" y="795" type="line"/>
      <point x="1102" y="924"/>
      <point x="999" y="1126"/>
      <point x="809" y="1244"/>
      <point x="667" y="1244" type="qcurve" smooth="yes"/>
      <point x="515" y="1244"/>
      <point x="300" y="1112"/>
      <point x="259" y="970" type="qcurve"/>
      <point x="70" y="1046" type="line"/>
      <point x="158" y="1244"/>
      <point x="469" y="1436"/>
      <point x="665" y="1436" type="qcurve" smooth="yes"/>
      <point x="881" y="1436"/>
      <point x="1029" y="1338" type="qcurve"/>
      <point x="1182" y="1233"/>
      <point x="1321" y="900"/>
      <point x="1321" y="707" type="qcurve" smooth="yes"/>
      <point x="1321" y="579"/>
      <point x="1260" y="342"/>
      <point x="1130" y="146"/>
      <point x="1027" y="78" type="qcurve" smooth="yes"/>
      <point x="878" y="-20"/>
    </contour>
  </outline>
</glyph>
<glyph name="afii10048" format="2">
  <advance width="1945"/>
  <unicode hex="042E"/>
  <outline>
    <contour>
      <point x="1183" y="-20" type="qcurve" smooth="yes"/>
      <point x="980" y="-20"/>
      <point x="701" y="148"/>
      <point x="546" y="434"/>
      <point x="530" y="616" type="qcurve"/>
      <point x="401" y="616" type="line"/>
      <point x="401" y="0" type="line"/>
      <point x="198" y="0" type="line"/>
      <point x="198" y="1412" type="line"/>
      <point x="401" y="1412" type="line"/>
      <point x="401" y="797" type="line"/>
      <point x="530" y="797" type="line"/>
      <point x="544" y="972"/>
      <point x="695" y="1260"/>
      <point x="843" y="1350" type="qcurve"/>
      <point x="984" y="1434"/>
      <point x="1183" y="1434" type="qcurve" smooth="yes"/>
      <point x="1399" y="1434"/>
      <point x="1547" y="1336" type="qcurve" smooth="yes"/>
      <point x="1650" y="1267"/>
      <point x="1780" y="1071"/>
      <point x="1840" y="835"/>
      <point x="1840" y="707" type="qcurve" smooth="yes"/>
      <point x="1840" y="579"/>
      <point x="1780" y="343"/>
      <point x="1650" y="147"/>
      <point x="1547" y="78" type="qcurve" smooth="yes"/>
      <point x="1399" y="-20"/>
    </contour>
    <contour>
      <point x="1183" y="163" type="qcurve" smooth="yes"/>
      <point x="1337" y="163"/>
      <point x="1438" y="237" type="qcurve"/>
      <point x="1541" y="315"/>
      <point x="1631" y="562"/>
      <point x="1631" y="707" type="qcurve" smooth="yes"/>
      <point x="1631" y="943"/>
      <point x="1527" y="1089" type="qcurve" smooth="yes"/>
      <point x="1411" y="1250"/>
      <point x="1183" y="1250" type="qcurve" smooth="yes"/>
      <point x="1029" y="1250"/>
      <point x="929" y="1177" type="qcurve"/>
      <point x="825" y="1099"/>
      <point x="735" y="852"/>
      <point x="735" y="707" type="qcurve" smooth="yes"/>
      <point x="735" y="471"/>
      <point x="839" y="325" type="qcurve" smooth="yes"/>
      <point x="954" y="163"/>
    </contour>
  </outline>
</glyph>
<glyph name="afii10049" format="2">
  <advance width="1242"/>
  <unicode hex="042F"/>
  <outline>
    <contour>
      <point x="1044" y="-2" type="line"/>
      <point x="841" y="-2" type="line"/>
      <point x="841" y="619" type="line"/>
      <point x="638" y="619" type="line"/>
      <point x="287" y="-2" type="line"/>
      <point x="52" y="-2" type="line"/>
      <point x="440" y="642" type="line"/>
      <point x="309" y="678"/>
      <point x="150" y="870"/>
      <point x="150" y="1009" type="qcurve" smooth="yes"/>
      <point x="150" y="1137"/>
      <point x="277" y="1317"/>
      <point x="488" y="1412"/>
      <point x="615" y="1412" type="qcurve" smooth="yes"/>
      <point x="1044" y="1412" type="line"/>
    </contour>
    <contour>
      <point x="839" y="794" type="line"/>
      <point x="839" y="1231" type="line"/>
      <point x="613" y="1231" type="line" smooth="yes"/>
      <point x="500" y="1231"/>
      <point x="351" y="1116"/>
      <point x="351" y="1007" type="qcurve" smooth="yes"/>
      <point x="351" y="906"/>
      <point x="484" y="799"/>
      <point x="591" y="794" type="qcurve"/>
    </contour>
  </outline>
</glyph>
<glyph name="afii10067" format="2">
  <advance width="1168"/>
  <unicode hex="0432"/>
  <outline>
    <contour>
      <point x="609" y="-20" type="qcurve" smooth="yes"/>
      <point x="385" y="-20"/>
      <point x="125" y="208"/>
      <point x="125" y="445" type="qcurve" smooth="yes"/>
      <point x="125" y="974" type="line" smooth="yes"/>
      <point x="125" y="1213"/>
      <point x="384" y="1434"/>
      <point x="599" y="1434" type="qcurve" smooth="yes"/>
      <point x="713" y="1434"/>
      <point x="903" y="1355"/>
      <point x="1016" y="1193"/>
      <point x="1016" y="1068" type="qcurve" smooth="yes"/>
      <point x="1016" y="994"/>
      <point x="931" y="835"/>
      <point x="848" y="789" type="qcurve"/>
      <point x="960" y="751"/>
      <point x="1068" y="550"/>
      <point x="1068" y="428" type="qcurve" smooth="yes"/>
      <point x="1068" y="281"/>
      <point x="948" y="82"/>
      <point x="741" y="-20"/>
    </contour>
    <contour>
      <point x="603" y="156" type="qcurve" smooth="yes"/>
      <point x="864" y="156"/>
      <point x="864" y="436" type="qcurve" smooth="yes"/>
      <point x="864" y="526"/>
      <point x="799" y="640"/>
      <point x="686" y="694"/>
      <point x="613" y="694" type="qcurve" smooth="yes"/>
      <point x="498" y="694"/>
      <point x="429" y="642" type="qcurve"/>
      <point x="429" y="815" type="line"/>
      <point x="470" y="840"/>
      <point x="585" y="861"/>
      <point x="639" y="862" type="qcurve"/>
      <point x="699" y="862"/>
      <point x="778" y="919"/>
      <point x="817" y="1009"/>
      <point x="817" y="1057" type="qcurve" smooth="yes"/>
      <point x="817" y="1156"/>
      <point x="704" y="1253"/>
      <point x="601" y="1253" type="qcurve" smooth="yes"/>
      <point x="509" y="1253"/>
      <point x="384" y="1194"/>
      <point x="322" y="1059"/>
      <point x="322" y="945" type="qcurve" smooth="yes"/>
      <point x="322" y="454" type="line" smooth="yes"/>
      <point x="322" y="302"/>
      <point x="458" y="156"/>
    </contour>
  </outline>
</glyph>
<glyph name="afii10068" format="2">
  <advance width="886"/>
  <unicode hex="0433"/>
  <outline>
    <contour>
      <point x="437" y="-20" type="qcurve" smooth="yes"/>
      <point x="345" y="-20"/>
      <point x="177" y="43"/>
      <point x="70" y="177"/>
      <point x="70" y="282" type="qcurve" smooth="yes"/>
      <point x="70" y="382"/>
      <point x="117" y="444" type="qcurve" smooth="yes"/>
      <point x="159" y="501"/>
      <point x="289" y="569"/>
      <point x="394" y="601" type="qcurve" smooth="yes"/>
      <point x="464" y="623"/>
      <point x="544" y="659"/>
      <point x="593" y="709"/>
      <point x="593" y="747" type="qcurve" smooth="yes"/>
      <point x="593" y="802"/>
      <point x="511" y="852"/>
      <point x="446" y="852" type="qcurve" smooth="yes"/>
      <point x="371" y="852"/>
      <point x="270" y="788"/>
      <point x="238" y="727" type="qcurve"/>
      <point x="95" y="807" type="line"/>
      <point x="146" y="898"/>
      <point x="325" y="1014"/>
      <point x="447" y="1014" type="qcurve" smooth="yes"/>
      <point x="534" y="1014"/>
      <point x="686" y="950"/>
      <point x="781" y="824"/>
      <point x="781" y="730" type="qcurve" smooth="yes"/>
      <point x="781" y="635"/>
      <point x="737" y="577" type="qcurve" smooth="yes"/>
      <point x="696" y="523"/>
      <point x="572" y="461"/>
      <point x="471" y="432" type="qcurve" smooth="yes"/>
      <point x="398" y="410"/>
      <point x="314" y="374"/>
      <point x="262" y="319"/>
      <point x="262" y="275" type="qcurve" smooth="yes"/>
      <point x="262" y="209"/>
      <point x="363" y="145"/>
      <point x="441" y="145" type="qcurve" smooth="yes"/>
      <point x="502" y="145"/>
      <point x="594" y="193"/>
      <point x="657" y="271"/>
      <point x="673" y="318" type="qcurve"/>
      <point x="830" y="242" type="line"/>
      <point x="807" y="169"/>
      <point x="696" y="51"/>
      <point x="535" y="-20"/>
    </contour>
  </outline>
</glyph>
<glyph name="afii10076" format="2">
  <advance width="998"/>
  <unicode hex="043A"/>
  <outline>
    <contour>
      <point x="965" y="0" type="line"/>
      <point x="737" y="0" type="line"/>
      <point x="615" y="356" type="line" smooth="yes"/>
      <point x="592" y="421"/>
      <point x="521" y="484"/>
      <point x="467" y="484" type="qcurve" smooth="yes"/>
      <point x="352" y="484" type="line"/>
      <point x="352" y="0" type="line"/>
      <point x="158" y="0" type="line"/>
      <point x="158" y="1412" type="line"/>
      <point x="352" y="1412" type="line"/>
      <point x="352" y="635" type="line"/>
      <point x="450" y="635" type="line"/>
      <point x="678" y="999" type="line"/>
      <point x="907" y="999" type="line"/>
      <point x="634" y="604" type="line"/>
      <point x="684" y="604"/>
      <point x="770" y="505"/>
      <point x="795" y="444" type="qcurve"/>
    </contour>
  </outline>
</glyph>
<glyph name="afii10077" format="2">
  <advance width="971"/>
  <unicode hex="043B"/>
  <outline>
    <contour>
      <point x="956" y="0" type="line"/>
      <point x="745" y="0" type="line"/>
      <point x="485" y="748" type="line"/>
      <point x="224" y="0" type="line"/>
      <point x="14" y="0" type="line"/>
      <point x="403" y="999" type="line"/>
      <point x="568" y="999" type="line"/>
    </contour>
  </outline>
</glyph>
<glyph name="afii10086" format="2">
  <advance width="1444"/>
  <unicode hex="0444"/>
  <outline>
    <contour>
      <point x="819" y="-430" type="line"/>
      <point x="625" y="-430" type="line"/>
      <point x="625" y="-16" type="line"/>
      <point x="589" y="-20"/>
      <point x="566" y="-20" type="qcurve" smooth="yes"/>
      <point x="414" y="-20"/>
      <point x="191" y="123"/>
      <point x="69" y="359"/>
      <point x="69" y="496" type="qcurve" smooth="yes"/>
      <point x="69" y="638"/>
      <point x="196" y="872"/>
      <point x="422" y="1012"/>
      <point x="566" y="1012" type="qcurve"/>
      <point x="606" y="1010"/>
      <point x="625" y="1007" type="qcurve"/>
      <point x="625" y="1412" type="line"/>
      <point x="819" y="1412" type="line"/>
      <point x="819" y="1007" type="line"/>
      <point x="849" y="1012"/>
      <point x="878" y="1012" type="qcurve" smooth="yes"/>
      <point x="1028" y="1012"/>
      <point x="1252" y="869"/>
      <point x="1375" y="634"/>
      <point x="1375" y="496" type="qcurve" smooth="yes"/>
      <point x="1375" y="356"/>
      <point x="1250" y="121"/>
      <point x="1022" y="-20"/>
      <point x="878" y="-20" type="qcurve" smooth="yes"/>
      <point x="855" y="-20"/>
      <point x="819" y="-16" type="qcurve"/>
    </contour>
    <contour>
      <point x="566" y="149" type="qcurve" smooth="yes"/>
      <point x="607" y="149"/>
      <point x="625" y="153" type="qcurve"/>
      <point x="625" y="838" type="line"/>
      <point x="580" y="843"/>
      <point x="566" y="843" type="qcurve" smooth="yes"/>
      <point x="467" y="843"/>
      <point x="342" y="750"/>
      <point x="282" y="593"/>
      <point x="282" y="496" type="qcurve" smooth="yes"/>
      <point x="282" y="401"/>
      <point x="340" y="243"/>
      <point x="466" y="149"/>
    </contour>
    <contour>
      <point x="878" y="149" type="qcurve" smooth="yes"/>
      <point x="977" y="149"/>
      <point x="1102" y="242"/>
      <point x="1162" y="399"/>
      <point x="1162" y="496" type="qcurve" smooth="yes"/>
      <point x="1162" y="588"/>
      <point x="1105" y="747"/>
      <point x="980" y="843"/>
      <point x="878" y="843" type="qcurve" smooth="yes"/>
      <point x="864" y="843"/>
      <point x="819" y="838" type="qcurve"/>
      <point x="819" y="153" type="line"/>
      <point x="837" y="149"/>
    </contour>
  </outline>
</glyph>
<glyph name="afii10088" format="2">
  <advance width="1171"/>
  <unicode hex="0446"/>
  <outline>
    <contour>
      <point x="1096" y="-307" type="line"/>
      <point x="938" y="-307" type="line"/>
      <point x="938" y="-23" type="line"/>
      <point x="886" y="-23"/>
      <point x="799" y="69"/>
      <point x="789" y="144" type="qcurve"/>
      <point x="746" y="74"/>
      <point x="586" y="-23"/>
      <point x="487" y="-23" type="qcurve" smooth="yes"/>
      <point x="363" y="-23"/>
      <point x="204" y="96"/>
      <point x="129" y="292"/>
      <point x="129" y="408" type="qcurve" smooth="yes"/>
      <point x="129" y="999" type="line"/>
      <point x="326" y="999" type="line"/>
      <point x="326" y="413" type="line" smooth="yes"/>
      <point x="326" y="154"/>
      <point x="511" y="154" type="qcurve" smooth="yes"/>
      <point x="590" y="154"/>
      <point x="716" y="237"/>
      <point x="789" y="366"/>
      <point x="789" y="436" type="qcurve" smooth="yes"/>
      <point x="789" y="999" type="line"/>
      <point x="985" y="999" type="line"/>
      <point x="985" y="227" type="line" smooth="yes"/>
      <point x="985" y="153"/>
      <point x="1072" y="79"/>
      <point x="1133" y="79" type="qcurve"/>
    </contour>
  </outline>
</glyph>
<glyph name="afii10091" format="2">
  <advance width="1746"/>
  <unicode hex="0449"/>
  <outline>
    <contour>
      <point x="1671" y="-307" type="line"/>
      <point x="1513" y="-307" type="line"/>
      <point x="1513" y="-23" type="line"/>
      <point x="1461" y="-23"/>
      <point x="1373" y="73"/>
      <point x="1364" y="146" type="qcurve"/>
      <point x="1322" y="69"/>
      <point x="1185" y="-18"/>
      <point x="1105" y="-18" type="qcurve" smooth="yes"/>
      <point x="1006" y="-18"/>
      <point x="853" y="71"/>
      <point x="807" y="161" type="qcurve"/>
      <point x="752" y="70"/>
      <point x="586" y="-16"/>
      <point x="489" y="-16" type="qcurve" smooth="yes"/>
      <point x="365" y="-16"/>
      <point x="206" y="97"/>
      <point x="130" y="284"/>
      <point x="130" y="395" type="qcurve" smooth="yes"/>
      <point x="130" y="999" type="line"/>
      <point x="327" y="999" type="line"/>
      <point x="327" y="419" type="line" smooth="yes"/>
      <point x="327" y="156"/>
      <point x="515" y="156" type="qcurve" smooth="yes"/>
      <point x="590" y="156"/>
      <point x="694" y="236"/>
      <point x="749" y="366"/>
      <point x="749" y="440" type="qcurve" smooth="yes"/>
      <point x="749" y="999" type="line"/>
      <point x="945" y="999" type="line"/>
      <point x="945" y="415" type="line" smooth="yes"/>
      <point x="945" y="156"/>
      <point x="1131" y="156" type="qcurve" smooth="yes"/>
      <point x="1206" y="156"/>
      <point x="1310" y="236"/>
      <point x="1365" y="365"/>
      <point x="1365" y="440" type="qcurve" smooth="yes"/>
      <point x="1365" y="999" type="line"/>
      <point x="1561" y="999" type="line"/>
      <point x="1561" y="227" type="line" smooth="yes"/>
      <point x="1561" y="153"/>
      <point x="1648" y="79"/>
      <point x="1709" y="79" type="qcurve"/>
    </contour>
  </outline>
</glyph>
<glyph name="afii10092" format="2">
  <advance width="1190"/>
  <unicode hex="044A"/>
  <outline>
    <contour>
      <point x="659" y="-20" type="qcurve" smooth="yes"/>
      <point x="459" y="-20"/>
      <point x="237" y="210"/>
      <point x="237" y="409" type="qcurve" smooth="yes"/>
      <point x="237" y="847" type="line"/>
      <point x="13" y="847" type="line"/>
      <point x="13" y="999" type="line"/>
      <point x="421" y="999" type="line"/>
      <point x="421" y="702" type="line"/>
      <point x="468" y="752"/>
      <point x="609" y="818"/>
      <point x="697" y="818" type="qcurve" smooth="yes"/>
      <point x="899" y="818"/>
      <point x="1119" y="591"/>
      <point x="1119" y="399" type="qcurve" smooth="yes"/>
      <point x="1119" y="266"/>
      <point x="1001" y="79"/>
      <point x="794" y="-20"/>
    </contour>
    <contour>
      <point x="668" y="149" type="qcurve" smooth="yes"/>
      <point x="746" y="149"/>
      <point x="852" y="214"/>
      <point x="906" y="327"/>
      <point x="906" y="399" type="qcurve" smooth="yes"/>
      <point x="906" y="464"/>
      <point x="850" y="578"/>
      <point x="742" y="649"/>
      <point x="664" y="649" type="qcurve" smooth="yes"/>
      <point x="552" y="649"/>
      <point x="421" y="519"/>
      <point x="421" y="423" type="qcurve" smooth="yes"/>
      <point x="421" y="382" type="line" smooth="yes"/>
      <point x="421" y="318"/>
      <point x="477" y="212"/>
      <point x="587" y="149"/>
    </contour>
  </outline>
</glyph>
<glyph name="afii10094" format="2">
  <advance width="1116"/>
  <unicode hex="044C"/>
  <outline>
    <contour>
      <point x="579" y="-20" type="qcurve" smooth="yes"/>
      <point x="380" y="-20"/>
      <point x="153" y="209"/>
      <point x="153" y="409" type="qcurve" smooth="yes"/>
      <point x="153" y="999" type="line"/>
      <point x="338" y="999" type="line"/>
      <point x="338" y="702" type="line"/>
      <point x="447" y="818"/>
      <point x="597" y="818" type="qcurve" smooth="yes"/>
      <point x="802" y="818"/>
      <point x="1035" y="589"/>
      <point x="1035" y="399" type="qcurve" smooth="yes"/>
      <point x="1035" y="266"/>
      <point x="916" y="79"/>
      <point x="710" y="-20"/>
    </contour>
    <contour>
      <point x="579" y="149" type="qcurve" smooth="yes"/>
      <point x="657" y="149"/>
      <point x="766" y="215"/>
      <point x="822" y="329"/>
      <point x="822" y="399" type="qcurve" smooth="yes"/>
      <point x="822" y="465"/>
      <point x="765" y="579"/>
      <point x="656" y="649"/>
      <point x="579" y="649" type="qcurve" smooth="yes"/>
      <point x="505" y="649"/>
      <point x="399" y="588"/>
      <point x="341" y="486"/>
      <point x="338" y="423" type="qcurve"/>
      <point x="338" y="382" type="line"/>
      <point x="343" y="280"/>
      <point x="467" y="149"/>
    </contour>
  </outline>
</glyph>
<glyph name="afii10099" format="2">
  <advance width="1143"/>
  <unicode hex="0452"/>
  <outline>
    <contour>
      <point x="611" y="-448" type="qcurve" smooth="yes"/>
      <point x="451" y="-448"/>
      <point x="316" y="-331" type="qcurve"/>
      <point x="416" y="-186" type="line"/>
      <point x="507" y="-270"/>
      <point x="602" y="-270" type="qcurve" smooth="yes"/>
      <point x="720" y="-270"/>
      <point x="815" y="-106"/>
      <point x="815" y="40" type="qcurve" smooth="yes"/>
      <point x="815" y="582" type="line" smooth="yes"/>
      <point x="815" y="695"/>
      <point x="732" y="831"/>
      <point x="628" y="831" type="qcurve" smooth="yes"/>
      <point x="558" y="831"/>
      <point x="434" y="760"/>
      <point x="356" y="626"/>
      <point x="356" y="532" type="qcurve" smooth="yes"/>
      <point x="356" y="0" type="line"/>
      <point x="160" y="0" type="line"/>
      <point x="160" y="1138" type="line"/>
      <point x="-7" y="1138" type="line"/>
      <point x="-7" y="1277" type="line"/>
      <point x="160" y="1277" type="line"/>
      <point x="160" y="1413" type="line"/>
      <point x="356" y="1413" type="line"/>
      <point x="356" y="1277" type="line"/>
      <point x="628" y="1277" type="line"/>
      <point x="628" y="1138" type="line"/>
      <point x="356" y="1138" type="line"/>
      <point x="356" y="863" type="line"/>
      <point x="410" y="941"/>
      <point x="564" y="1018"/>
      <point x="646" y="1018" type="qcurve" smooth="yes"/>
      <point x="774" y="1018"/>
      <point x="935" y="904"/>
      <point x="1011" y="714"/>
      <point x="1011" y="601" type="qcurve" smooth="yes"/>
      <point x="1011" y="83" type="line" smooth="yes"/>
      <point x="1011" y="-195"/>
      <point x="807" y="-448"/>
    </contour>
  </outline>
</glyph>
<glyph name="afii10101" format="2">
  <advance width="982"/>
  <unicode hex="0454"/>
  <outline>
    <contour>
      <point x="527" y="-20" type="qcurve" smooth="yes"/>
      <point x="412" y="-20"/>
      <point x="241" y="64"/>
      <point x="126" y="209"/>
      <point x="69" y="395"/>
      <point x="69" y="498" type="qcurve" smooth="yes"/>
      <point x="69" y="630"/>
      <point x="168" y="867"/>
      <point x="275" y="945" type="qcurve"/>
      <point x="377" y="1016"/>
      <point x="525" y="1016" type="qcurve" smooth="yes"/>
      <point x="672" y="1016"/>
      <point x="881" y="866"/>
      <point x="934" y="741" type="qcurve"/>
      <point x="751" y="666" type="line"/>
      <point x="728" y="748"/>
      <point x="608" y="840"/>
      <point x="525" y="840" type="qcurve" smooth="yes"/>
      <point x="411" y="840"/>
      <point x="285" y="681"/>
      <point x="272" y="563" type="qcurve"/>
      <point x="650" y="563" type="line"/>
      <point x="650" y="418" type="line"/>
      <point x="273" y="418" type="line"/>
      <point x="289" y="304"/>
      <point x="413" y="155"/>
      <point x="525" y="155" type="qcurve" smooth="yes"/>
      <point x="611" y="155"/>
      <point x="728" y="252"/>
      <point x="751" y="329" type="qcurve"/>
      <point x="923" y="260" type="line"/>
      <point x="875" y="125"/>
      <point x="668" y="-20"/>
    </contour>
  </outline>
</glyph>
<glyph name="afii10105" format="2">
  <advance width="516"/>
  <unicode hex="0458"/>
  <outline>
    <contour>
      <point x="366" y="1197" type="line"/>
      <point x="153" y="1197" type="line"/>
      <point x="153" y="1416" type="line"/>
      <point x="366" y="1416" type="line"/>
    </contour>
    <contour>
      <point x="82" y="-438" type="qcurve" smooth="yes"/>
      <point x="31" y="-438"/>
      <point x="-67" y="-412"/>
      <point x="-78" y="-406" type="qcurve"/>
      <point x="-33" y="-248" type="line"/>
      <point x="-33" y="-249"/>
      <point x="3" y="-256"/>
      <point x="54" y="-263"/>
      <point x="76" y="-263" type="qcurve" smooth="yes"/>
      <point x="122" y="-263"/>
      <point x="161" y="-207"/>
      <point x="161" y="-151" type="qcurve" smooth="yes"/>
      <point x="161" y="999" type="line"/>
      <point x="356" y="999" type="line"/>
      <point x="356" y="-131" type="line" smooth="yes"/>
      <point x="356" y="-269"/>
      <point x="219" y="-438"/>
    </contour>
  </outline>
</glyph>
<glyph name="uni045D" format="2">
  <advance width="1168"/>
  <unicode hex="045D"/>
  <outline>
    <contour>
      <point x="683" y="1116" type="line"/>
      <point x="524" y="1116" type="line"/>
      <point x="252" y="1413" type="line"/>
      <point x="465" y="1413" type="line"/>
    </contour>
    <contour>
      <point x="514" y="-23" type="qcurve" smooth="yes"/>
      <point x="390" y="-23"/>
      <point x="232" y="96"/>
      <point x="158" y="292"/>
      <point x="158" y="408" type="qcurve" smooth="yes"/>
      <point x="158" y="999" type="line"/>
      <point x="353" y="999" type="line"/>
      <point x="353" y="413" type="line" smooth="yes"/>
      <point x="353" y="154"/>
      <point x="538" y="154" type="qcurve" smooth="yes"/>
      <point x="617" y="154"/>
      <point x="743" y="237"/>
      <point x="816" y="366"/>
      <point x="816" y="436" type="qcurve" smooth="yes"/>
      <point x="816" y="999" type="line"/>
      <point x="1011" y="999" type="line"/>
      <point x="1011" y="0" type="line"/>
      <point x="816" y="0" type="line"/>
      <point x="816" y="144" type="line"/>
      <point x="773" y="74"/>
      <point x="613" y="-23"/>
    </contour>
  </outline>
</glyph>
<glyph name="afii10146" format="2">
  <advance width="1283"/>
  <unicode hex="0462"/>
  <outline>
    <contour>
      <point x="742" y="0" type="qcurve" smooth="yes"/>
      <point x="324" y="0" type="line"/>
      <point x="324" y="1079" type="line"/>
      <point x="52" y="1079" type="line"/>
      <point x="52" y="1260" type="line"/>
      <point x="324" y="1260" type="line"/>
      <point x="324" y="1412" type="line"/>
      <point x="526" y="1412" type="line"/>
      <point x="526" y="1260" type="line"/>
      <point x="848" y="1260" type="line"/>
      <point x="848" y="1079" type="line"/>
      <point x="526" y="1079" type="line"/>
      <point x="526" y="799" type="line"/>
      <point x="742" y="799" type="line" smooth="yes"/>
      <point x="878" y="799"/>
      <point x="1092" y="710"/>
      <point x="1216" y="533"/>
      <point x="1216" y="403" type="qcurve" smooth="yes"/>
      <point x="1216" y="273"/>
      <point x="1093" y="93"/>
      <point x="879" y="0"/>
    </contour>
    <contour>
      <point x="742" y="186" type="line" smooth="yes"/>
      <point x="882" y="186"/>
      <point x="1015" y="304"/>
      <point x="1015" y="403" type="qcurve" smooth="yes"/>
      <point x="1015" y="504"/>
      <point x="880" y="613"/>
      <point x="742" y="613" type="qcurve" smooth="yes"/>
      <point x="526" y="613" type="line"/>
      <point x="526" y="186" type="line"/>
    </contour>
  </outline>
</glyph>
<glyph name="Yuslittlecyrillic" format="2">
  <advance width="1323"/>
  <unicode hex="0466"/>
  <outline>
    <contour>
      <point x="1283" y="0" type="line"/>
      <point x="1065" y="0" type="line"/>
      <point x="900" y="466" type="line"/>
      <point x="763" y="466" type="line"/>
      <point x="763" y="0" type="line"/>
      <point x="562" y="0" type="line"/>
      <point x="562" y="466" type="line"/>
      <point x="425" y="466" type="line"/>
      <point x="260" y="0" type="line"/>
      <point x="39" y="0" type="line"/>
      <point x="585" y="1412" type="line"/>
      <point x="739" y="1412" type="line"/>
    </contour>
    <contour>
      <point x="834" y="638" type="line"/>
      <point x="663" y="1114" type="line"/>
      <point x="491" y="638" type="line"/>
    </contour>
  </outline>
</glyph>
<glyph name="Yuslittleiotifiedcyrillic" format="2">
  <advance width="1760"/>
  <unicode hex="0468"/>
  <outline>
    <contour>
      <point x="1721" y="0" type="line"/>
      <point x="1502" y="0" type="line"/>
      <point x="1338" y="466" type="line"/>
      <point x="1201" y="466" type="line"/>
      <point x="1201" y="0" type="line"/>
      <point x="999" y="0" type="line"/>
      <point x="999" y="466" type="line"/>
      <point x="863" y="466" type="line"/>
      <point x="697" y="0" type="line"/>
      <point x="477" y="0" type="line"/>
      <point x="714" y="616" type="line"/>
      <point x="401" y="616" type="line"/>
      <point x="401" y="0" type="line"/>
      <point x="198" y="0" type="line"/>
      <point x="198" y="1412" type="line"/>
      <point x="401" y="1412" type="line"/>
      <point x="401" y="797" type="line"/>
      <point x="785" y="797" type="line"/>
      <point x="1023" y="1412" type="line"/>
      <point x="1177" y="1412" type="line"/>
    </contour>
    <contour>
      <point x="1272" y="638" type="line"/>
      <point x="1101" y="1114" type="line"/>
      <point x="929" y="638" type="line"/>
    </contour>
  </outline>
</glyph>
<glyph name="yuslittleiotifiedcyrillic" format="2">
  <advance width="1387"/>
  <unicode hex="0469"/>
  <outline>
    <contour>
      <point x="1348" y="0" type="line"/>
      <point x="1150" y="0" type="line"/>
      <point x="1067" y="269" type="line"/>
      <point x="969" y="269" type="line"/>
      <point x="969" y="0" type="line"/>
      <point x="815" y="0" type="line"/>
      <point x="815" y="269" type="line"/>
      <point x="720" y="269" type="line"/>
      <point x="624" y="0" type="line"/>
      <point x="433" y="0" type="line"/>
      <point x="584" y="397" type="line"/>
      <point x="353" y="397" type="line"/>
      <point x="353" y="0" type="line"/>
      <point x="158" y="0" type="line"/>
      <point x="158" y="999" type="line"/>
      <point x="353" y="999" type="line"/>
      <point x="353" y="545" type="line"/>
      <point x="641" y="545" type="line"/>
      <point x="814" y="999" type="line"/>
      <point x="969" y="999" type="line"/>
    </contour>
    <contour>
      <point x="1022" y="413" type="line"/>
      <point x="893" y="764" type="line"/>
      <point x="766" y="413" type="line"/>
    </contour>
  </outline>
</glyph>
<glyph name="Yusbigcyrillic" format="2">
  <advance width="1570"/>
  <unicode hex="046A"/>
  <outline>
    <contour>
      <point x="1520" y="0" type="line"/>
      <point x="1288" y="0" type="line"/>
      <point x="1103" y="489" type="line"/>
      <point x="1046" y="653"/>
      <point x="933" y="653" type="qcurve" smooth="yes"/>
      <point x="876" y="653" type="line"/>
      <point x="876" y="0" type="line"/>
      <point x="674" y="0" type="line"/>
      <point x="674" y="653" type="line"/>
      <point x="617" y="653" type="line" smooth="yes"/>
      <point x="506" y="653"/>
      <point x="447" y="489" type="qcurve"/>
      <point x="262" y="0" type="line"/>
      <point x="47" y="0" type="line"/>
      <point x="266" y="585" type="line" smooth="yes"/>
      <point x="287" y="642"/>
      <point x="367" y="739"/>
      <point x="476" y="799"/>
      <point x="541" y="799" type="qcurve"/>
      <point x="226" y="1231" type="line"/>
      <point x="226" y="1412" type="line"/>
      <point x="1323" y="1412" type="line"/>
      <point x="1323" y="1231" type="line"/>
      <point x="1007" y="799" type="line"/>
      <point x="1104" y="799"/>
      <point x="1249" y="674"/>
      <point x="1285" y="585" type="qcurve" smooth="yes"/>
    </contour>
    <contour>
      <point x="776" y="822" type="line"/>
      <point x="1073" y="1231" type="line"/>
      <point x="475" y="1231" type="line"/>
    </contour>
  </outline>
</glyph>
<glyph name="yusbigcyrillic" format="2">
  <advance width="1268"/>
  <unicode hex="046B"/>
  <outline>
    <contour>
      <point x="1229" y="0" type="line"/>
      <point x="1001" y="0" type="line"/>
      <point x="879" y="356" type="line"/>
      <point x="848" y="468"/>
      <point x="723" y="469" type="qcurve"/>
      <point x="723" y="0" type="line"/>
      <point x="545" y="0" type="line"/>
      <point x="545" y="469" type="line"/>
      <point x="479" y="467"/>
      <point x="408" y="415"/>
      <point x="389" y="356" type="qcurve"/>
      <point x="267" y="0" type="line"/>
      <point x="39" y="0" type="line"/>
      <point x="208" y="444" type="line"/>
      <point x="274" y="604"/>
      <point x="397" y="604" type="qcurve"/>
      <point x="195" y="851" type="line"/>
      <point x="195" y="999" type="line"/>
      <point x="1072" y="999" type="line"/>
      <point x="1072" y="851" type="line"/>
      <point x="872" y="604" type="line"/>
      <point x="994" y="604"/>
      <point x="1060" y="444" type="qcurve"/>
    </contour>
    <contour>
      <point x="633" y="611" type="line"/>
      <point x="830" y="851" type="line"/>
      <point x="442" y="851" type="line"/>
    </contour>
  </outline>
</glyph>
<glyph name="Yusbigiotifiedcyrillic" format="2">
  <advance width="1994"/>
  <unicode hex="046C"/>
  <outline>
    <contour>
      <point x="1944" y="0" type="line"/>
      <point x="1721" y="0" type="line"/>
      <point x="1536" y="489" type="line"/>
      <point x="1477" y="653"/>
      <point x="1366" y="653" type="qcurve" smooth="yes"/>
      <point x="1310" y="653" type="line"/>
      <point x="1310" y="0" type="line"/>
      <point x="1106" y="0" type="line"/>
      <point x="1106" y="653" type="line"/>
      <point x="1051" y="653" type="line" smooth="yes"/>
      <point x="983" y="653"/>
      <point x="904" y="556"/>
      <point x="879" y="489" type="qcurve" smooth="yes"/>
      <point x="695" y="0" type="line"/>
      <point x="489" y="0" type="line"/>
      <point x="693" y="543" type="line" smooth="yes"/>
      <point x="709" y="584"/>
      <point x="723" y="614" type="qcurve"/>
      <point x="401" y="614" type="line"/>
      <point x="401" y="0" type="line"/>
      <point x="198" y="0" type="line"/>
      <point x="198" y="1412" type="line"/>
      <point x="401" y="1412" type="line"/>
      <point x="401" y="794" type="line"/>
      <point x="979" y="794" type="line"/>
      <point x="659" y="1231" type="line"/>
      <point x="659" y="1412" type="line"/>
      <point x="1755" y="1412" type="line"/>
      <point x="1755" y="1231" type="line"/>
      <point x="1440" y="799" type="line"/>
      <point x="1535" y="799"/>
      <point x="1672" y="676"/>
      <point x="1709" y="585" type="qcurve" smooth="yes"/>
    </contour>
    <contour>
      <point x="1208" y="822" type="line"/>
      <point x="1506" y="1231" type="line"/>
      <point x="908" y="1231" type="line"/>
    </contour>
  </outline>
</glyph>
<glyph name="afii10147" format="2">
  <advance width="1521"/>
  <unicode hex="0472"/>
  <outline>
    <contour>
      <point x="760" y="-20" type="qcurve" smooth="yes"/>
      <point x="544" y="-20"/>
      <point x="397" y="78" type="qcurve"/>
      <point x="243" y="183"/>
      <point x="104" y="515"/>
      <point x="104" y="707" type="qcurve" smooth="yes"/>
      <point x="104" y="899"/>
      <point x="243" y="1231"/>
      <point x="397" y="1336" type="qcurve"/>
      <point x="544" y="1434"/>
      <point x="760" y="1434" type="qcurve" smooth="yes"/>
      <point x="976" y="1434"/>
      <point x="1124" y="1336" type="qcurve" smooth="yes"/>
      <point x="1227" y="1267"/>
      <point x="1357" y="1071"/>
      <point x="1417" y="835"/>
      <point x="1417" y="707" type="qcurve" smooth="yes"/>
      <point x="1417" y="579"/>
      <point x="1357" y="343"/>
      <point x="1227" y="147"/>
      <point x="1124" y="78" type="qcurve" smooth="yes"/>
      <point x="976" y="-20"/>
    </contour>
    <contour>
      <point x="1204" y="789" type="line"/>
      <point x="1192" y="922"/>
      <point x="1089" y="1130"/>
      <point x="901" y="1250"/>
      <point x="760" y="1250" type="qcurve" smooth="yes"/>
      <point x="618" y="1250"/>
      <point x="429" y="1129"/>
      <point x="327" y="921"/>
      <point x="315" y="789" type="qcurve"/>
    </contour>
    <contour>
      <point x="760" y="163" type="qcurve" smooth="yes"/>
      <point x="903" y="163"/>
      <point x="1095" y="290"/>
      <point x="1197" y="506"/>
      <point x="1206" y="643" type="qcurve"/>
      <point x="314" y="643" type="line"/>
      <point x="323" y="507"/>
      <point x="422" y="291"/>
      <point x="613" y="163"/>
    </contour>
  </outline>
</glyph>
<glyph name="afii10196" format="2">
  <advance width="982"/>
  <unicode hex="0475"/>
  <outline>
    <contour>
      <point x="550" y="0" type="line"/>
      <point x="385" y="0" type="line"/>
      <point x="15" y="999" type="line"/>
      <point x="227" y="999" type="line"/>
      <point x="468" y="252" type="line"/>
      <point x="599" y="620" type="line" smooth="yes"/>
      <point x="670" y="818"/>
      <point x="856" y="986"/>
      <point x="967" y="999" type="qcurve"/>
      <point x="967" y="812" type="line"/>
      <point x="918" y="798"/>
      <point x="836" y="720"/>
      <point x="793" y="613" type="qcurve" smooth="yes"/>
    </contour>
  </outline>
</glyph>
<glyph name="titlocyrilliccmb" format="2">
  <unicode hex="0483"/>
  <outline>
    <contour>
      <point x="-773" y="1561" type="line"/>
      <point x="-953" y="1561" type="line"/>
      <point x="-953" y="1866" type="line"/>
      <point x="-311" y="1866" type="line"/>
      <point x="-311" y="1997" type="line"/>
      <point x="-125" y="1997" type="line"/>
      <point x="-125" y="1700" type="line"/>
      <point x="-773" y="1700" type="line"/>
    </contour>
  </outline>
</glyph>
<glyph name="afii10050" format="2">
  <advance width="1067"/>
  <unicode hex="0490"/>
  <outline>
    <contour>
      <point x="401" y="0" type="line"/>
      <point x="198" y="0" type="line"/>
      <point x="198" y="1412" type="line"/>
      <point x="824" y="1412" type="line"/>
      <point x="824" y="1719" type="line"/>
      <point x="1025" y="1719" type="line"/>
      <point x="1025" y="1231" type="line"/>
      <point x="401" y="1231" type="line"/>
    </contour>
  </outline>
</glyph>
<glyph name="ghestrokecyrillic" format="2">
  <advance width="782"/>
  <unicode hex="0493"/>
  <outline>
    <contour>
      <point x="353" y="0" type="line"/>
      <point x="158" y="0" type="line"/>
      <point x="158" y="999" type="line"/>
      <point x="770" y="999" type="line"/>
      <point x="770" y="851" type="line"/>
      <point x="353" y="851" type="line"/>
    </contour>
  </outline>
</glyph>
<glyph name="Zhedescendercyrillic" format="2">
  <advance width="2019"/>
  <unicode hex="0496"/>
  <outline>
    <contour>
      <point x="2057" y="-238" type="line"/>
      <point x="1865" y="-238" type="line"/>
      <point x="1865" y="0" type="line"/>
      <point x="1721" y="0" type="line"/>
      <point x="1537" y="521" type="line" smooth="yes"/>
      <point x="1515" y="584"/>
      <point x="1416" y="685"/>
      <point x="1347" y="685" type="qcurve" smooth="yes"/>
      <point x="1111" y="685" type="line"/>
      <point x="1111" y="0" type="line"/>
      <point x="908" y="0" type="line"/>
      <point x="908" y="685" type="line"/>
      <point x="673" y="685" type="line" smooth="yes"/>
      <point x="603" y="685"/>
      <point x="507" y="587"/>
      <point x="483" y="521" type="qcurve" smooth="yes"/>
      <point x="298" y="0" type="line"/>
      <point x="50" y="0" type="line"/>
      <point x="302" y="617" type="line" smooth="yes"/>
      <point x="320" y="662"/>
      <point x="389" y="757"/>
      <point x="484" y="824"/>
      <point x="540" y="824" type="qcurve"/>
      <point x="124" y="1412" type="line"/>
      <point x="389" y="1412" type="line"/>
      <point x="749" y="868" type="line"/>
      <point x="908" y="868" type="line"/>
      <point x="908" y="1412" type="line"/>
      <point x="1111" y="1412" type="line"/>
      <point x="1111" y="868" type="line"/>
      <point x="1270" y="868" type="line"/>
      <point x="1629" y="1412" type="line"/>
      <point x="1895" y="1412" type="line"/>
      <point x="1479" y="824" type="line"/>
      <point x="1535" y="824"/>
      <point x="1630" y="756"/>
      <point x="1699" y="661"/>
      <point x="1718" y="617" type="qcurve"/>
      <point x="1901" y="168" type="line"/>
      <point x="2057" y="168" type="line"/>
    </contour>
  </outline>
</glyph>
<glyph name="zhedescendercyrillic" format="2">
  <advance width="1479"/>
  <unicode hex="0497"/>
  <outline>
    <contour>
      <point x="1545" y="-238" type="line"/>
      <point x="1353" y="-238" type="line"/>
      <point x="1353" y="0" type="line"/>
      <point x="1221" y="0" type="line"/>
      <point x="1100" y="356" type="line" smooth="yes"/>
      <point x="1077" y="422"/>
      <point x="1006" y="484"/>
      <point x="952" y="484" type="qcurve" smooth="yes"/>
      <point x="836" y="484" type="line"/>
      <point x="836" y="0" type="line"/>
      <point x="642" y="0" type="line"/>
      <point x="642" y="484" type="line"/>
      <point x="527" y="484" type="line" smooth="yes"/>
      <point x="473" y="484"/>
      <point x="402" y="421"/>
      <point x="379" y="356" type="qcurve" smooth="yes"/>
      <point x="257" y="0" type="line"/>
      <point x="29" y="0" type="line"/>
      <point x="199" y="444" type="line" smooth="yes"/>
      <point x="223" y="505"/>
      <point x="309" y="604"/>
      <point x="360" y="604" type="qcurve"/>
      <point x="87" y="999" type="line"/>
      <point x="316" y="999" type="line"/>
      <point x="544" y="635" type="line"/>
      <point x="642" y="635" type="line"/>
      <point x="642" y="999" type="line"/>
      <point x="836" y="999" type="line"/>
      <point x="836" y="635" type="line"/>
      <point x="935" y="635" type="line"/>
      <point x="1162" y="999" type="line"/>
      <point x="1392" y="999" type="line"/>
      <point x="1119" y="604" type="line"/>
      <point x="1169" y="604"/>
      <point x="1255" y="505"/>
      <point x="1280" y="444" type="qcurve"/>
      <point x="1385" y="168" type="line"/>
      <point x="1545" y="168" type="line"/>
    </contour>
  </outline>
</glyph>
<glyph name="Kadescendercyrillic" format="2">
  <advance width="1306"/>
  <unicode hex="049A"/>
  <outline>
    <contour>
      <point x="1344" y="-238" type="line"/>
      <point x="1152" y="-238" type="line"/>
      <point x="1152" y="0" type="line"/>
      <point x="1011" y="0" type="line"/>
      <point x="826" y="521" type="line"/>
      <point x="815" y="555"/>
      <point x="764" y="630"/>
      <point x="686" y="685"/>
      <point x="636" y="685" type="qcurve" smooth="yes"/>
      <point x="401" y="685" type="line"/>
      <point x="401" y="0" type="line"/>
      <point x="198" y="0" type="line"/>
      <point x="198" y="1412" type="line"/>
      <point x="401" y="1412" type="line"/>
      <point x="401" y="868" type="line"/>
      <point x="560" y="868" type="line"/>
      <point x="919" y="1412" type="line"/>
      <point x="1185" y="1412" type="line"/>
      <point x="769" y="824" type="line"/>
      <point x="825" y="824"/>
      <point x="920" y="756"/>
      <point x="989" y="661"/>
      <point x="1007" y="617" type="qcurve" smooth="yes"/>
      <point x="1190" y="168" type="line"/>
      <point x="1344" y="168" type="line"/>
    </contour>
  </outline>
</glyph>
<glyph name="endescendercyrillic" format="2">
  <advance width="1168"/>
  <unicode hex="04A3"/>
  <outline>
    <contour>
      <point x="1193" y="-238" type="line"/>
      <point x="1001" y="-238" type="line"/>
      <point x="1001" y="0" type="line"/>
      <point x="815" y="0" type="line"/>
      <point x="815" y="478" type="line"/>
      <point x="354" y="478" type="line"/>
      <point x="354" y="0" type="line"/>
      <point x="158" y="0" type="line"/>
      <point x="158" y="999" type="line"/>
      <point x="354" y="999" type="line"/>
      <point x="354" y="626" type="line"/>
      <point x="815" y="626" type="line"/>
      <point x="815" y="999" type="line"/>
      <point x="1011" y="999" type="line"/>
      <point x="1011" y="168" type="line"/>
      <point x="1193" y="168" type="line"/>
    </contour>
  </outline>
</glyph>
<glyph name="ustraightcyrillic" format="2">
  <advance width="982"/>
  <unicode hex="04AF"/>
  <outline>
    <contour>
      <point x="588" y="0" type="line"/>
      <point x="395" y="0" type="line"/>
      <point x="395" y="436" type="line"/>
      <point x="27" y="999" type="line"/>
      <point x="257" y="999" type="line"/>
      <point x="491" y="622" type="line"/>
      <point x="726" y="999" type="line"/>
      <point x="955" y="999" type="line"/>
      <point x="588" y="436" type="line"/>
    </contour>
  </outline>
</glyph>
<glyph name="ustraightstrokecyrillic" format="2">
  <advance width="1031"/>
  <unicode hex="04B1"/>
  <outline>
    <contour>
      <point x="588" y="0" type="line"/>
      <point x="395" y="0" type="line"/>
      <point x="395" y="191" type="line"/>
      <point x="48" y="191" type="line"/>
      <point x="48" y="360" type="line"/>
      <point x="395" y="360" type="line"/>
      <point x="395" y="436" type="line"/>
      <point x="27" y="999" type="line"/>
      <point x="257" y="999" type="line"/>
      <point x="491" y="622" type="line"/>
      <point x="726" y="999" type="line"/>
      <point x="955" y="999" type="line"/>
      <point x="588" y="436" type="line"/>
      <point x="588" y="360" type="line"/>
      <point x="788" y="360" type="line"/>
      <point x="788" y="191" type="line"/>
      <point x="588" y="191" type="line"/>
    </contour>
  </outline>
</glyph>
<glyph name="hadescendercyrillic" format="2">
  <advance width="973"/>
  <unicode hex="04B3"/>
  <outline>
    <contour>
      <point x="1017" y="-238" type="line"/>
      <point x="825" y="-238" type="line"/>
      <point x="825" y="0" type="line"/>
      <point x="708" y="0" type="line"/>
      <point x="486" y="359" type="line"/>
      <point x="265" y="0" type="line"/>
      <point x="29" y="0" type="line"/>
      <point x="368" y="504" type="line"/>
      <point x="29" y="999" type="line"/>
      <point x="265" y="999" type="line"/>
      <point x="486" y="647" type="line"/>
      <point x="708" y="999" type="line"/>
      <point x="943" y="999" type="line"/>
      <point x="605" y="504" type="line"/>
      <point x="830" y="168" type="line"/>
      <point x="1017" y="168" type="line"/>
    </contour>
  </outline>
</glyph>
<glyph name="Chedescendercyrillic" format="2">
  <advance width="1338"/>
  <unicode hex="04B6"/>
  <outline>
    <contour>
      <point x="1306" y="-238" type="line"/>
      <point x="1114" y="-238" type="line"/>
      <point x="1114" y="0" type="line"/>
      <point x="936" y="0" type="line"/>
      <point x="936" y="511" type="line"/>
      <point x="809" y="410"/>
      <point x="624" y="410" type="qcurve" smooth="yes"/>
      <point x="362" y="410"/>
      <point x="109" y="725"/>
      <point x="109" y="1000" type="qcurve" smooth="yes"/>
      <point x="109" y="1412" type="line"/>
      <point x="312" y="1412" type="line"/>
      <point x="312" y="1011" type="line" smooth="yes"/>
      <point x="312" y="812"/>
      <point x="451" y="606"/>
      <point x="624" y="606" type="qcurve" smooth="yes"/>
      <point x="733" y="606"/>
      <point x="891" y="683"/>
      <point x="936" y="739" type="qcurve"/>
      <point x="936" y="1412" type="line"/>
      <point x="1140" y="1412" type="line"/>
      <point x="1140" y="168" type="line"/>
      <point x="1306" y="168" type="line"/>
    </contour>
  </outline>
</glyph>
<glyph name="uni04CF" format="2">
  <advance width="509"/>
  <unicode hex="04CF"/>
  <outline>
    <contour>
      <point x="352" y="0" type="line"/>
      <point x="158" y="0" type="line"/>
      <point x="158" y="1412" type="line"/>
      <point x="352" y="1412" type="line"/>
    </contour>
  </outline>
</glyph>
<glyph name="Schwacyrillic" format="2">
  <advance width="1526"/>
  <unicode hex="04D8"/>
  <outline>
    <contour>
      <point x="762" y="-20" type="qcurve" smooth="yes"/>
      <point x="546" y="-20"/>
      <point x="399" y="78" type="qcurve"/>
      <point x="245" y="183"/>
      <point x="106" y="515"/>
      <point x="106" y="707" type="qcurve" smooth="yes"/>
      <point x="106" y="735"/>
      <point x="110" y="789" type="qcurve"/>
      <point x="1206" y="789" type="line"/>
      <point x="1194" y="922"/>
      <point x="1092" y="1130"/>
      <point x="904" y="1250"/>
      <point x="762" y="1250" type="qcurve" smooth="yes"/>
      <point x="516" y="1250"/>
      <point x="399" y="1059" type="qcurve"/>
      <point x="224" y="1159" type="line"/>
      <point x="304" y="1286"/>
      <point x="571" y="1434"/>
      <point x="762" y="1434" type="qcurve" smooth="yes"/>
      <point x="979" y="1434"/>
      <point x="1127" y="1336" type="qcurve" smooth="yes"/>
      <point x="1230" y="1267"/>
      <point x="1360" y="1071"/>
      <point x="1420" y="835"/>
      <point x="1420" y="707" type="qcurve" smooth="yes"/>
      <point x="1420" y="579"/>
      <point x="1360" y="343"/>
      <point x="1230" y="147"/>
      <point x="1127" y="78" type="qcurve" smooth="yes"/>
      <point x="979" y="-20"/>
    </contour>
    <contour>
      <point x="762" y="163" type="qcurve" smooth="yes"/>
      <point x="906" y="163"/>
      <point x="1098" y="290"/>
      <point x="1199" y="506"/>
      <point x="1208" y="643" type="qcurve"/>
      <point x="317" y="643" type="line"/>
      <point x="325" y="508"/>
      <point x="424" y="292"/>
      <point x="615" y="163"/>
    </contour>
  </outline>
</glyph>
<glyph name="afii10846" format="2">
  <advance width="1051"/>
  <unicode hex="04D9"/>
  <outline>
    <contour>
      <point x="521" y="-13" type="qcurve" smooth="yes"/>
      <point x="283" y="-13"/>
      <point x="75" y="281"/>
      <point x="75" y="508" type="qcurve" smooth="yes"/>
      <point x="75" y="536"/>
      <point x="81" y="563" type="qcurve"/>
      <point x="772" y="563" type="line"/>
      <point x="769" y="638"/>
      <point x="710" y="760"/>
      <point x="594" y="834"/>
      <point x="506" y="834" type="qcurve" smooth="yes"/>
      <point x="412" y="834"/>
      <point x="289" y="789"/>
      <point x="239" y="736" type="qcurve"/>
      <point x="105" y="849" type="line"/>
      <point x="184" y="931"/>
      <point x="374" y="1011"/>
      <point x="504" y="1011" type="qcurve" smooth="yes"/>
      <point x="662" y="1011"/>
      <point x="872" y="871"/>
      <point x="977" y="641"/>
      <point x="977" y="505" type="qcurve" smooth="yes"/>
      <point x="977" y="374"/>
      <point x="878" y="137"/>
      <point x="771" y="59" type="qcurve"/>
      <point x="668" y="-13"/>
    </contour>
    <contour>
      <point x="521" y="154" type="qcurve" smooth="yes"/>
      <point x="601" y="154"/>
      <point x="708" y="223"/>
      <point x="766" y="341"/>
      <point x="772" y="416" type="qcurve"/>
      <point x="263" y="416" type="line"/>
      <point x="266" y="337"/>
      <point x="323" y="220"/>
      <point x="435" y="154"/>
    </contour>
  </outline>
</glyph>
<glyph name="endash" format="2">
  <advance width="1034"/>
  <unicode hex="2013"/>
  <outline>
    <contour>
      <point x="882" y="545" type="line"/>
      <point x="152" y="545" type="line"/>
      <point x="152" y="692" type="line"/>
      <point x="882" y="692" type="line"/>
    </contour>
  </outline>
</glyph>
<glyph name="quotedblleft" format="2">
  <advance width="912"/>
  <unicode hex="201C"/>
  <outline>
    <contour>
      <point x="441" y="893" type="line"/>
      <point x="315" y="893" type="line"/>
      <point x="80" y="1413" type="line"/>
      <point x="313" y="1413" type="line"/>
    </contour>
    <contour>
      <point x="788" y="893" type="line"/>
      <point x="662" y="893" type="line"/>
      <point x="426" y="1413" type="line"/>
      <point x="659" y="1413" type="line"/>
    </contour>
  </outline>
</glyph>
<glyph name="dagger" format="2">
  <advance width="793"/>
  <unicode hex="2020"/>
  <outline>
    <contour>
      <point x="488" y="-205" type="line"/>
      <point x="305" y="-205" type="line"/>
      <point x="305" y="828" type="line"/>
      <point x="83" y="828" type="line"/>
      <point x="83" y="1011" type="line"/>
      <point x="305" y="1011" type="line"/>
      <point x="305" y="1413" type="line"/>
      <point x="488" y="1413" type="line"/>
      <point x="488" y="1011" type="line"/>
      <point x="710" y="1011" type="line"/>
      <point x="710" y="828" type="line"/>
      <point x="488" y="828" type="line"/>
    </contour>
  </outline>
</glyph>
<glyph name="daggerdbl" format="2">
  <advance width="885"/>
  <unicode hex="2021"/>
  <outline>
    <contour>
      <point x="534" y="-205" type="line"/>
      <point x="351" y="-205" type="line"/>
      <point x="351" y="196" type="line"/>
      <point x="129" y="196" type="line"/>
      <point x="129" y="381" type="line"/>
      <point x="351" y="381" type="line"/>
      <point x="351" y="828" type="line"/>
      <point x="129" y="828" type="line"/>
      <point x="129" y="1011" type="line"/>
      <point x="351" y="1011" type="line"/>
      <point x="351" y="1413" type="line"/>
      <point x="534" y="1413" type="line"/>
      <point x="534" y="1011" type="line"/>
      <point x="756" y="1011" type="line"/>
      <point x="756" y="828" type="line"/>
      <point x="534" y="828" type="line"/>
      <point x="534" y="381" type="line"/>
      <point x="756" y="381" type="line"/>
      <point x="756" y="196" type="line"/>
      <point x="534" y="196" type="line"/>
    </contour>
  </outline>
</glyph>
<glyph name="bullet" format="2">
  <advance width="793"/>
  <unicode hex="2022"/>
  <outline>
    <contour>
      <point x="396" y="244" type="qcurve" smooth="yes"/>
      <point x="327" y="244"/>
      <point x="220" y="311"/>
      <point x="159" y="419"/>
      <point x="159" y="481" type="qcurve" smooth="yes"/>
      <point x="159" y="579"/>
      <point x="298" y="719"/>
      <point x="396" y="719" type="qcurve" smooth="yes"/>
      <point x="495" y="719"/>
      <point x="634" y="579"/>
      <point x="634" y="481" type="qcurve" smooth="yes"/>
      <point x="634" y="380"/>
      <point x="491" y="244"/>
    </contour>
  </outline>
</glyph>
<glyph name="ellipsis" format="2">
  <advance width="1482"/>
  <unicode hex="2026"/>
  <outline>
    <contour>
      <point x="438" y="0" type="line"/>
      <point x="217" y="0" type="line"/>
      <point x="217" y="227" type="line"/>
      <point x="438" y="227" type="line"/>
    </contour>
    <contour>
      <point x="851" y="0" type="line"/>
      <point x="631" y="0" type="line"/>
      <point x="631" y="227" type="line"/>
      <point x="851" y="227" type="line"/>
    </contour>
    <contour>
      <point x="1265" y="0" type="line"/>
      <point x="1045" y="0" type="line"/>
      <point x="1045" y="227" type="line"/>
      <point x="1265" y="227" type="line"/>
    </contour>
  </outline>
</glyph>
<glyph name="perthousand" format="2">
  <advance width="2174"/>
  <unicode hex="2030"/>
  <outline>
    <contour>
      <point x="370" y="787" type="qcurve" smooth="yes"/>
      <point x="275" y="787"/>
      <point x="154" y="892"/>
      <point x="104" y="1040"/>
      <point x="104" y="1111" type="qcurve" smooth="yes"/>
      <point x="104" y="1167"/>
      <point x="132" y="1281"/>
      <point x="193" y="1377"/>
      <point x="292" y="1436"/>
      <point x="364" y="1436" type="qcurve" smooth="yes"/>
      <point x="453" y="1436"/>
      <point x="570" y="1340"/>
      <point x="628" y="1190"/>
      <point x="628" y="1109" type="qcurve" smooth="yes"/>
      <point x="628" y="1033"/>
      <point x="574" y="885"/>
      <point x="460" y="787"/>
    </contour>
    <contour>
      <point x="472" y="-8" type="line"/>
      <point x="303" y="-8" type="line"/>
      <point x="1074" y="1429" type="line"/>
      <point x="1243" y="1429" type="line"/>
    </contour>
    <contour>
      <point x="367" y="921" type="qcurve" smooth="yes"/>
      <point x="406" y="921"/>
      <point x="458" y="975"/>
      <point x="485" y="1062"/>
      <point x="485" y="1111" type="qcurve" smooth="yes"/>
      <point x="485" y="1162"/>
      <point x="458" y="1248"/>
      <point x="404" y="1300"/>
      <point x="364" y="1300" type="qcurve" smooth="yes"/>
      <point x="323" y="1300"/>
      <point x="269" y="1248"/>
      <point x="243" y="1162"/>
      <point x="243" y="1111" type="qcurve" smooth="yes"/>
      <point x="243" y="1060"/>
      <point x="270" y="974"/>
      <point x="325" y="921"/>
    </contour>
    <contour>
      <point x="1197" y="-3" type="qcurve" smooth="yes"/>
      <point x="1102" y="-3"/>
      <point x="982" y="103"/>
      <point x="932" y="251"/>
      <point x="932" y="322" type="qcurve" smooth="yes"/>
      <point x="932" y="377"/>
      <point x="959" y="492"/>
      <point x="1019" y="588"/>
      <point x="1119" y="648"/>
      <point x="1191" y="648" type="qcurve" smooth="yes"/>
      <point x="1280" y="648"/>
      <point x="1398" y="551"/>
      <point x="1456" y="401"/>
      <point x="1456" y="321" type="qcurve" smooth="yes"/>
      <point x="1456" y="243"/>
      <point x="1401" y="94"/>
      <point x="1286" y="-3"/>
    </contour>
    <contour>
      <point x="1811" y="-3" type="qcurve" smooth="yes"/>
      <point x="1716" y="-3"/>
      <point x="1596" y="103"/>
      <point x="1546" y="251"/>
      <point x="1546" y="322" type="qcurve" smooth="yes"/>
      <point x="1546" y="377"/>
      <point x="1573" y="492"/>
      <point x="1633" y="588"/>
      <point x="1733" y="648"/>
      <point x="1805" y="648" type="qcurve" smooth="yes"/>
      <point x="1894" y="648"/>
      <point x="2012" y="551"/>
      <point x="2070" y="401"/>
      <point x="2070" y="321" type="qcurve" smooth="yes"/>
      <point x="2070" y="243"/>
      <point x="2015" y="94"/>
      <point x="1900" y="-3"/>
    </contour>
    <contour>
      <point x="1195" y="130" type="qcurve" smooth="yes"/>
      <point x="1251" y="130"/>
      <point x="1313" y="246"/>
      <point x="1313" y="323" type="qcurve" smooth="yes"/>
      <point x="1313" y="374"/>
      <point x="1286" y="460"/>
      <point x="1232" y="513"/>
      <point x="1191" y="513" type="qcurve" smooth="yes"/>
      <point x="1152" y="513"/>
      <point x="1098" y="460"/>
      <point x="1071" y="373"/>
      <point x="1071" y="322" type="qcurve" smooth="yes"/>
      <point x="1071" y="271"/>
      <point x="1098" y="183"/>
      <point x="1153" y="130"/>
    </contour>
    <contour>
      <point x="1809" y="130" type="qcurve" smooth="yes"/>
      <point x="1865" y="130"/>
      <point x="1926" y="246"/>
      <point x="1926" y="323" type="qcurve" smooth="yes"/>
      <point x="1926" y="374"/>
      <point x="1899" y="460"/>
      <point x="1845" y="513"/>
      <point x="1805" y="513" type="qcurve" smooth="yes"/>
      <point x="1765" y="513"/>
      <point x="1712" y="460"/>
      <point x="1685" y="373"/>
      <point x="1685" y="322" type="qcurve" smooth="yes"/>
      <point x="1685" y="271"/>
      <point x="1712" y="183"/>
      <point x="1767" y="130"/>
    </contour>
  </outline>
</glyph>
<glyph name="guilsinglright" format="2">
  <advance width="597"/>
  <unicode hex="203A"/>
  <outline>
    <contour>
      <point x="155" y="171" type="line"/>
      <point x="155" y="356" type="line"/>
      <point x="342" y="511" type="line"/>
      <point x="155" y="666" type="line"/>
      <point x="155" y="851" type="line"/>
      <point x="552" y="511" type="line"/>
    </contour>
  </outline>
</glyph>
<glyph name="zerosuperior" format="2">
  <advance width="826"/>
  <unicode hex="2070"/>
  <outline>
    <contour>
      <point x="420" y="464" type="qcurve" smooth="yes"/>
      <point x="285" y="464"/>
      <point x="113" y="615"/>
      <point x="37" y="840"/>
      <point x="37" y="957" type="qcurve" smooth="yes"/>
      <point x="37" y="1074"/>
      <point x="111" y="1300"/>
      <point x="278" y="1451"/>
      <point x="410" y="1451" type="qcurve" smooth="yes"/>
      <point x="505" y="1451"/>
      <point x="648" y="1367"/>
      <point x="743" y="1226"/>
      <point x="791" y="1049"/>
      <point x="791" y="955" type="qcurve" smooth="yes"/>
      <point x="791" y="834"/>
      <point x="710" y="609"/>
      <point x="623" y="534" type="qcurve"/>
      <point x="539" y="464"/>
    </contour>
    <contour>
      <point x="415" y="607" type="qcurve" smooth="yes"/>
      <point x="491" y="607"/>
      <point x="540" y="661" type="qcurve" smooth="yes"/>
      <point x="591" y="718"/>
      <point x="633" y="880"/>
      <point x="633" y="958" type="qcurve" smooth="yes"/>
      <point x="633" y="1096"/>
      <point x="582" y="1193" type="qcurve" smooth="yes"/>
      <point x="524" y="1305"/>
      <point x="410" y="1305" type="qcurve" smooth="yes"/>
      <point x="331" y="1305"/>
      <point x="233" y="1201"/>
      <point x="187" y="1041"/>
      <point x="187" y="957" type="qcurve" smooth="yes"/>
      <point x="187" y="820"/>
      <point x="238" y="722" type="qcurve" smooth="yes"/>
      <point x="297" y="607"/>
    </contour>
  </outline>
</glyph>
<glyph name="foursuperior" format="2">
  <advance width="808"/>
  <unicode hex="2074"/>
  <outline>
    <contour>
      <point x="608" y="486" type="line"/>
      <point x="459" y="486" type="line"/>
      <point x="459" y="719" type="line"/>
      <point x="24" y="719" type="line"/>
      <point x="24" y="807" type="line"/>
      <point x="477" y="1428" type="line"/>
      <point x="608" y="1428" type="line"/>
      <point x="608" y="855" type="line"/>
      <point x="758" y="855" type="line"/>
      <point x="758" y="719" type="line"/>
      <point x="608" y="719" type="line"/>
    </contour>
    <contour>
      <point x="459" y="855" type="line"/>
      <point x="459" y="1220" type="line"/>
      <point x="192" y="855" type="line"/>
    </contour>
  </outline>
</glyph>
<glyph name="sixsuperior" format="2">
  <advance width="825"/>
  <unicode hex="2076"/>
  <outline>
    <contour>
      <point x="415" y="473" type="qcurve" smooth="yes"/>
      <point x="314" y="473"/>
      <point x="160" y="562"/>
      <point x="73" y="707"/>
      <point x="73" y="791" type="qcurve" smooth="yes"/>
      <point x="73" y="882"/>
      <point x="123" y="956" type="qcurve"/>
      <point x="416" y="1428" type="line"/>
      <point x="568" y="1428" type="line"/>
      <point x="362" y="1107" type="line"/>
      <point x="395" y="1112"/>
      <point x="418" y="1112" type="qcurve" smooth="yes"/>
      <point x="513" y="1112"/>
      <point x="668" y="1031"/>
      <point x="759" y="889"/>
      <point x="759" y="800" type="qcurve" smooth="yes"/>
      <point x="759" y="663"/>
      <point x="560" y="473"/>
    </contour>
    <contour>
      <point x="416" y="613" type="qcurve" smooth="yes"/>
      <point x="471" y="613"/>
      <point x="560" y="665"/>
      <point x="612" y="750"/>
      <point x="612" y="800" type="qcurve" smooth="yes"/>
      <point x="612" y="881"/>
      <point x="494" y="986"/>
      <point x="416" y="986" type="qcurve" smooth="yes"/>
      <point x="335" y="986"/>
      <point x="221" y="877"/>
      <point x="221" y="800" type="qcurve" smooth="yes"/>
      <point x="221" y="723"/>
      <point x="336" y="613"/>
    </contour>
  </outline>
</glyph>
<glyph name="eightsuperior" format="2">
  <advance width="859"/>
  <unicode hex="2078"/>
  <outline>
    <contour>
      <point x="430" y="465" type="qcurve" smooth="yes"/>
      <point x="335" y="465"/>
      <point x="168" y="527"/>
      <point x="65" y="652"/>
      <point x="65" y="747" type="qcurve" smooth="yes"/>
      <point x="65" y="835"/>
      <point x="157" y="960"/>
      <point x="237" y="995" type="qcurve"/>
      <point x="182" y="1029"/>
      <point x="119" y="1132"/>
      <point x="119" y="1196" type="qcurve" smooth="yes"/>
      <point x="119" y="1277"/>
      <point x="205" y="1390"/>
      <point x="348" y="1449"/>
      <point x="431" y="1449" type="qcurve" smooth="yes"/>
      <point x="513" y="1449"/>
      <point x="655" y="1390"/>
      <point x="742" y="1277"/>
      <point x="742" y="1197" type="qcurve" smooth="yes"/>
      <point x="742" y="1132"/>
      <point x="679" y="1029"/>
      <point x="625" y="995" type="qcurve"/>
      <point x="706" y="959"/>
      <point x="795" y="833"/>
      <point x="795" y="748" type="qcurve" smooth="yes"/>
      <point x="795" y="654"/>
      <point x="694" y="528"/>
      <point x="528" y="465"/>
    </contour>
    <contour>
      <point x="433" y="1048" type="qcurve" smooth="yes"/>
      <point x="502" y="1048"/>
      <point x="598" y="1118"/>
      <point x="598" y="1184" type="qcurve" smooth="yes"/>
      <point x="598" y="1251"/>
      <point x="501" y="1321"/>
      <point x="433" y="1321" type="qcurve" smooth="yes"/>
      <point x="390" y="1321"/>
      <point x="315" y="1292"/>
      <point x="268" y="1233"/>
      <point x="268" y="1189" type="qcurve" smooth="yes"/>
      <point x="268" y="1123"/>
      <point x="361" y="1048"/>
    </contour>
    <contour>
      <point x="429" y="593" type="qcurve" smooth="yes"/>
      <point x="485" y="593"/>
      <point x="583" y="629"/>
      <point x="644" y="702"/>
      <point x="644" y="758" type="qcurve" smooth="yes"/>
      <point x="644" y="812"/>
      <point x="586" y="886"/>
      <point x="488" y="924"/>
      <point x="429" y="924" type="qcurve" smooth="yes"/>
      <point x="339" y="924"/>
      <point x="214" y="839"/>
      <point x="214" y="759" type="qcurve" smooth="yes"/>
      <point x="214" y="703"/>
      <point x="275" y="629"/>
      <point x="373" y="593"/>
    </contour>
  </outline>
</glyph>
<glyph name="uni20B1" format="2">
  <advance width="1348"/>
  <unicode hex="20B1"/>
  <anchor x="654" y="0" name="b.uni0326"/>
  <anchor x="654" y="1412" name="t.ringcmb_1"/>
  <anchor x="0" y="0" name="b.ogonekcmb_2"/>
  <anchor x="0" y="0" name="m.horncmb_3"/>
  <outline>
    <contour>
      <point x="475" y="0" type="line"/>
      <point x="273" y="0" type="line"/>
      <point x="273" y="965" type="line"/>
      <point x="143" y="965" type="line"/>
      <point x="143" y="1065" type="line"/>
      <point x="273" y="1065" type="line"/>
      <point x="273" y="1413" type="line"/>
      <point x="691" y="1413" type="line" smooth="yes"/>
      <point x="894" y="1413"/>
      <point x="1141" y="1226"/>
      <point x="1162" y="1065" type="qcurve"/>
      <point x="1250" y="1065" type="line"/>
      <point x="1250" y="965" type="line"/>
      <point x="1163" y="965" type="line"/>
      <point x="1143" y="792"/>
      <point x="888" y="614"/>
      <point x="691" y="614" type="qcurve" smooth="yes"/>
      <point x="475" y="614" type="line"/>
    </contour>
    <contour>
      <point x="958" y="1065" type="line"/>
      <point x="942" y="1141"/>
      <point x="810" y="1227"/>
      <point x="691" y="1227" type="qcurve" smooth="yes"/>
      <point x="475" y="1227" type="line"/>
      <point x="475" y="1065" type="line"/>
    </contour>
    <contour>
      <point x="691" y="800" type="line" smooth="yes"/>
      <point x="933" y="800"/>
      <point x="960" y="965" type="qcurve"/>
      <point x="475" y="965" type="line"/>
      <point x="475" y="800" type="line"/>
    </contour>
  </outline>
</glyph>
<glyph name="uni20B3" format="2">
  <advance width="1323"/>
  <unicode hex="20B3"/>
  <anchor x="622" y="0" name="b.uni0326"/>
  <anchor x="622" y="1412" name="t.ringcmb_1"/>
  <anchor x="1264" y="0" name="b.ogonekcmb_2"/>
  <anchor x="0" y="0" name="m.horncmb_3"/>
  <outline>
    <contour>
      <point x="1284" y="0" type="line"/>
      <point x="1065" y="0" type="line"/>
      <point x="957" y="307" type="line"/>
      <point x="370" y="307" type="line"/>
      <point x="261" y="0" type="line"/>
      <point x="39" y="0" type="line"/>
      <point x="158" y="307" type="line"/>
      <point x="57" y="307" type="line"/>
      <point x="57" y="440" type="line"/>
      <point x="209" y="440" type="line"/>
      <point x="291" y="650" type="line"/>
      <point x="57" y="650" type="line"/>
      <point x="57" y="783" type="line"/>
      <point x="342" y="783" type="line"/>
      <point x="586" y="1413" type="line"/>
      <point x="740" y="1413" type="line"/>
      <point x="983" y="783" type="line"/>
      <point x="1265" y="783" type="line"/>
      <point x="1265" y="650" type="line"/>
      <point x="1034" y="650" type="line"/>
      <point x="1115" y="440" type="line"/>
      <point x="1265" y="440" type="line"/>
      <point x="1265" y="307" type="line"/>
      <point x="1166" y="307" type="line"/>
    </contour>
    <contour>
      <point x="798" y="783" type="line"/>
      <point x="662" y="1167" type="line"/>
      <point x="528" y="783" type="line"/>
    </contour>
    <contour>
      <point x="919" y="440" type="line"/>
      <point x="845" y="650" type="line"/>
      <point x="482" y="650" type="line"/>
      <point x="408" y="440" type="line"/>
    </contour>
  </outline>
</glyph>
<glyph name="uni20B8" format="2">
  <advance width="1401"/>
  <unicode hex="20B8"/>
  <outline>
    <contour>
      <point x="1264" y="1236" type="line"/>
      <point x="138" y="1236" type="line"/>
      <point x="138" y="1412" type="line"/>
      <point x="1264" y="1412" type="line"/>
    </contour>
    <contour>
      <point x="802" y="0" type="line"/>
      <point x="599" y="0" type="line"/>
      <point x="599" y="928" type="line"/>
      <point x="138" y="928" type="line"/>
      <point x="138" y="1103" type="line"/>
      <point x="1264" y="1103" type="line"/>
      <point x="1264" y="928" type="line"/>
      <point x="802" y="928" type="line"/>
    </contour>
  </outline>
</glyph>
<glyph name="afii61352" format="2">
  <advance width="2343"/>
  <unicode hex="2116"/>
  <anchor x="1827" y="331" name="b.uni0326"/>
  <anchor x="1827" y="1170" name="t.ringcmb_1"/>
  <anchor x="1942" y="331" name="b.ogonekcmb_2"/>
  <anchor x="2283" y="1170" name="m.horncmb_3"/>
  <outline>
    <contour>
      <point x="1237" y="0" type="line"/>
      <point x="994" y="0" type="line"/>
      <point x="396" y="1127" type="line"/>
      <point x="396" y="0" type="line"/>
      <point x="198" y="0" type="line"/>
      <point x="198" y="1413" type="line"/>
      <point x="438" y="1413" type="line"/>
      <point x="1039" y="288" type="line"/>
      <point x="1039" y="1413" type="line"/>
      <point x="1237" y="1413" type="line"/>
    </contour>
    <contour>
      <point x="1827" y="314" type="qcurve" smooth="yes"/>
      <point x="1700" y="314"/>
      <point x="1514" y="434"/>
      <point x="1414" y="632"/>
      <point x="1414" y="748" type="qcurve" smooth="yes"/>
      <point x="1414" y="861"/>
      <point x="1514" y="1061"/>
      <point x="1612" y="1123" type="qcurve" smooth="yes"/>
      <point x="1706" y="1181"/>
      <point x="1827" y="1181" type="qcurve" smooth="yes"/>
      <point x="1954" y="1181"/>
      <point x="2140" y="1060"/>
      <point x="2241" y="862"/>
      <point x="2241" y="748" type="qcurve" smooth="yes"/>
      <point x="2241" y="633"/>
      <point x="2139" y="434"/>
      <point x="2042" y="372" type="qcurve"/>
      <point x="1947" y="314"/>
    </contour>
    <contour>
      <point x="1827" y="456" type="qcurve" smooth="yes"/>
      <point x="1948" y="456"/>
      <point x="2066" y="622"/>
      <point x="2066" y="748" type="qcurve" smooth="yes"/>
      <point x="2066" y="874"/>
      <point x="1948" y="1039"/>
      <point x="1827" y="1039" type="qcurve" smooth="yes"/>
      <point x="1707" y="1039"/>
      <point x="1589" y="874"/>
      <point x="1589" y="748" type="qcurve" smooth="yes"/>
      <point x="1589" y="622"/>
      <point x="1706" y="456"/>
    </contour>
    <contour>
      <point x="2202" y="0" type="line"/>
      <point x="1442" y="0" type="line"/>
      <point x="1442" y="154" type="line"/>
      <point x="2202" y="154" type="line"/>
    </contour>
  </outline>
</glyph>
<glyph name="trademark" format="2">
  <advance width="1347"/>
  <unicode hex="2122"/>
  <outline>
    <contour>
      <point x="402" y="877" type="line"/>
      <point x="288" y="877" type="line"/>
      <point x="288" y="1311" type="line"/>
      <point x="143" y="1311" type="line"/>
      <point x="143" y="1413" type="line"/>
      <point x="548" y="1413" type="line"/>
      <point x="548" y="1311" type="line"/>
      <point x="402" y="1311" type="line"/>
    </contour>
    <contour>
      <point x="1110" y="877" type="line"/>
      <point x="996" y="877" type="line"/>
      <point x="996" y="1206" type="line"/>
      <point x="909" y="958" type="line"/>
      <point x="826" y="958" type="line"/>
      <point x="736" y="1210" type="line"/>
      <point x="736" y="877" type="line"/>
      <point x="621" y="877" type="line"/>
      <point x="621" y="1413" type="line"/>
      <point x="741" y="1413" type="line"/>
      <point x="867" y="1078" type="line"/>
      <point x="994" y="1413" type="line"/>
      <point x="1110" y="1413" type="line"/>
    </contour>
  </outline>
</glyph>
<glyph name="Ohm" format="2">
  <advance width="1676"/>
  <unicode hex="2126"/>
  <outline>
    <contour>
      <point x="1510" y="0" type="line"/>
      <point x="968" y="0" type="line"/>
      <point x="968" y="160" type="line"/>
      <point x="1139" y="204"/>
      <point x="1332" y="512"/>
      <point x="1332" y="730" type="qcurve" smooth="yes"/>
      <point x="1332" y="826"/>
      <point x="1269" y="1008"/>
      <point x="1214" y="1069" type="qcurve" smooth="yes"/>
      <point x="1141" y="1148"/>
      <point x="939" y="1240"/>
      <point x="837" y="1240" type="qcurve" smooth="yes"/>
      <point x="731" y="1240"/>
      <point x="533" y="1145"/>
      <point x="462" y="1069" type="qcurve"/>
      <point x="409" y="1010"/>
      <point x="343" y="832"/>
      <point x="343" y="730" type="qcurve" smooth="yes"/>
      <point x="343" y="510"/>
      <point x="542" y="209"/>
      <point x="706" y="160" type="qcurve"/>
      <point x="706" y="0" type="line"/>
      <point x="163" y="0" type="line"/>
      <point x="163" y="165" type="line"/>
      <point x="474" y="165" type="line"/>
      <point x="328" y="266"/>
      <point x="167" y="563"/>
      <point x="167" y="718" type="qcurve" smooth="yes"/>
      <point x="167" y="848"/>
      <point x="260" y="1100"/>
      <point x="343" y="1189" type="qcurve" smooth="yes"/>
      <point x="438" y="1289"/>
      <point x="700" y="1407"/>
      <point x="837" y="1407" type="qcurve" smooth="yes"/>
      <point x="972" y="1407"/>
      <point x="1237" y="1288"/>
      <point x="1332" y="1188" type="qcurve" smooth="yes"/>
      <point x="1414" y="1100"/>
      <point x="1507" y="847"/>
      <point x="1507" y="716" type="qcurve" smooth="yes"/>
      <point x="1507" y="546"/>
      <point x="1350" y="251"/>
      <point x="1220" y="162" type="qcurve"/>
      <point x="1510" y="162" type="line"/>
    </contour>
  </outline>
</glyph>
<glyph name="arrowright" format="2">
  <advance width="2206"/>
  <unicode hex="2192"/>
  <outline>
    <contour>
      <point x="1182" y="106" type="line"/>
      <point x="1094" y="259" type="line"/>
      <point x="1689" y="558" type="line"/>
      <point x="102" y="558" type="line"/>
      <point x="102" y="712" type="line"/>
      <point x="1700" y="712" type="line"/>
      <point x="1094" y="1010" type="line"/>
      <point x="1182" y="1164" type="line"/>
      <point x="2131" y="639" type="line"/>
    </contour>
  </outline>
</glyph>
<glyph name="product" format="2">
  <advance width="1339"/>
  <unicode hex="220F"/>
  <outline>
    <contour>
      <point x="1087" y="0" type="line"/>
      <point x="920" y="0" type="line"/>
      <point x="920" y="1246" type="line"/>
      <point x="419" y="1246" type="line"/>
      <point x="419" y="0" type="line"/>
      <point x="252" y="0" type="line"/>
      <point x="252" y="1246" type="line"/>
      <point x="170" y="1246" type="line"/>
      <point x="170" y="1413" type="line"/>
      <point x="1169" y="1413" type="line"/>
      <point x="1169" y="1246" type="line"/>
      <point x="1087" y="1246" type="line"/>
    </contour>
  </outline>
</glyph>
